<?xml version="1.0" encoding="utf-8" standalone="no"?>
<!DOCTYPE svg PUBLIC "-//W3C//DTD SVG 1.1//EN"
  "http://www.w3.org/Graphics/SVG/1.1/DTD/svg11.dtd">
<svg xmlns:xlink="http://www.w3.org/1999/xlink" width="907.2pt" height="513.36pt" viewBox="0 0 907.2 513.36" xmlns="http://www.w3.org/2000/svg" version="1.1">
 <metadata>
  <rdf:RDF xmlns:dc="http://purl.org/dc/elements/1.1/" xmlns:cc="http://creativecommons.org/ns#" xmlns:rdf="http://www.w3.org/1999/02/22-rdf-syntax-ns#">
   <cc:Work>
    <dc:type rdf:resource="http://purl.org/dc/dcmitype/StillImage"/>
    <dc:date>2026-05-06T22:43:56.128247</dc:date>
    <dc:format>image/svg+xml</dc:format>
    <dc:creator>
     <cc:Agent>
      <dc:title>Matplotlib v3.10.9, https://matplotlib.org/</dc:title>
     </cc:Agent>
    </dc:creator>
   </cc:Work>
  </rdf:RDF>
 </metadata>
 <defs>
  <style type="text/css">*{stroke-linejoin: round; stroke-linecap: butt}</style>
 </defs>
 <g id="figure_1">
  <g id="patch_1">
   <path d="M 0 513.36 
L 907.2 513.36 
L 907.2 -0 
L 0 -0 
z
" style="fill: #ffffff"/>
  </g>
  <g id="axes_1">
   <g id="patch_2">
    <path d="M 78.624 134.4348 
L 355.392 134.4348 
Q 386.64 134.4348 386.64 116.9712 
L 386.64 87.0336 
Q 386.64 69.57 355.392 69.57 
L 78.624 69.57 
Q 47.376 69.57 47.376 87.0336 
L 47.376 116.9712 
Q 47.376 134.4348 78.624 134.4348 
z
" clip-path="url(#p9dd76442c0)" style="fill: #f3f6fa; stroke: #5b6b7a; stroke-width: 2.2; stroke-linejoin: miter"/>
   </g>
   <g id="patch_3">
    <path d="M 384.178588 102.0024 
Q 444.673029 102.0024 502.707796 102.0024 
" clip-path="url(#p9dd76442c0)" style="fill: none; stroke: #666666; stroke-width: 2.2; stroke-linecap: round"/>
    <path d="M 494.707796 98.0024 
L 502.707796 102.0024 
L 494.707796 106.0024 
z
" clip-path="url(#p9dd76442c0)" style="fill: #666666; stroke: #666666; stroke-width: 2.2; stroke-linecap: round"/>
   </g>
   <g id="patch_4">
    <path d="M 542.88 134.4348 
L 819.648 134.4348 
Q 850.896 134.4348 850.896 116.9712 
L 850.896 87.0336 
Q 850.896 69.57 819.648 69.57 
L 542.88 69.57 
Q 511.632 69.57 511.632 87.0336 
L 511.632 116.9712 
Q 511.632 134.4348 542.88 134.4348 
z
" clip-path="url(#p9dd76442c0)" style="fill: #eaf6ef; stroke: #27734d; stroke-width: 2.2; stroke-linejoin: miter"/>
   </g>
   <g id="patch_5">
    <path d="M 78.624 194.31 
L 355.392 194.31 
Q 386.64 194.31 386.64 176.8464 
L 386.64 146.9088 
Q 386.64 129.4452 355.392 129.4452 
L 78.624 129.4452 
Q 47.376 129.4452 47.376 146.9088 
L 47.376 176.8464 
Q 47.376 194.31 78.624 194.31 
z
" clip-path="url(#p9dd76442c0)" style="fill: #f3f6fa; stroke: #5b6b7a; stroke-width: 2.2; stroke-linejoin: miter"/>
   </g>
   <g id="patch_6">
    <path d="M 384.178588 161.8776 
Q 444.673029 161.8776 502.707796 161.8776 
" clip-path="url(#p9dd76442c0)" style="fill: none; stroke: #666666; stroke-width: 2.2; stroke-linecap: round"/>
    <path d="M 494.707796 157.8776 
L 502.707796 161.8776 
L 494.707796 165.8776 
z
" clip-path="url(#p9dd76442c0)" style="fill: #666666; stroke: #666666; stroke-width: 2.2; stroke-linecap: round"/>
   </g>
   <g id="patch_7">
    <path d="M 542.88 194.31 
L 819.648 194.31 
Q 850.896 194.31 850.896 176.8464 
L 850.896 146.9088 
Q 850.896 129.4452 819.648 129.4452 
L 542.88 129.4452 
Q 511.632 129.4452 511.632 146.9088 
L 511.632 176.8464 
Q 511.632 194.31 542.88 194.31 
z
" clip-path="url(#p9dd76442c0)" style="fill: #eaf6ef; stroke: #27734d; stroke-width: 2.2; stroke-linejoin: miter"/>
   </g>
   <g id="patch_8">
    <path d="M 78.624 254.1852 
L 355.392 254.1852 
Q 386.64 254.1852 386.64 236.7216 
L 386.64 206.784 
Q 386.64 189.3204 355.392 189.3204 
L 78.624 189.3204 
Q 47.376 189.3204 47.376 206.784 
L 47.376 236.7216 
Q 47.376 254.1852 78.624 254.1852 
z
" clip-path="url(#p9dd76442c0)" style="fill: #f3f6fa; stroke: #5b6b7a; stroke-width: 2.2; stroke-linejoin: miter"/>
   </g>
   <g id="patch_9">
    <path d="M 384.178588 221.7528 
Q 444.673029 221.7528 502.707796 221.7528 
" clip-path="url(#p9dd76442c0)" style="fill: none; stroke: #666666; stroke-width: 2.2; stroke-linecap: round"/>
    <path d="M 494.707796 217.7528 
L 502.707796 221.7528 
L 494.707796 225.7528 
z
" clip-path="url(#p9dd76442c0)" style="fill: #666666; stroke: #666666; stroke-width: 2.2; stroke-linecap: round"/>
   </g>
   <g id="patch_10">
    <path d="M 542.88 254.1852 
L 819.648 254.1852 
Q 850.896 254.1852 850.896 236.7216 
L 850.896 206.784 
Q 850.896 189.3204 819.648 189.3204 
L 542.88 189.3204 
Q 511.632 189.3204 511.632 206.784 
L 511.632 236.7216 
Q 511.632 254.1852 542.88 254.1852 
z
" clip-path="url(#p9dd76442c0)" style="fill: #eaf6ef; stroke: #27734d; stroke-width: 2.2; stroke-linejoin: miter"/>
   </g>
   <g id="patch_11">
    <path d="M 78.624 314.0604 
L 355.392 314.0604 
Q 386.64 314.0604 386.64 296.5968 
L 386.64 266.6592 
Q 386.64 249.1956 355.392 249.1956 
L 78.624 249.1956 
Q 47.376 249.1956 47.376 266.6592 
L 47.376 296.5968 
Q 47.376 314.0604 78.624 314.0604 
z
" clip-path="url(#p9dd76442c0)" style="fill: #f3f6fa; stroke: #5b6b7a; stroke-width: 2.2; stroke-linejoin: miter"/>
   </g>
   <g id="patch_12">
    <path d="M 384.178588 281.628 
Q 444.673029 281.628 502.707796 281.628 
" clip-path="url(#p9dd76442c0)" style="fill: none; stroke: #666666; stroke-width: 2.2; stroke-linecap: round"/>
    <path d="M 494.707796 277.628 
L 502.707796 281.628 
L 494.707796 285.628 
z
" clip-path="url(#p9dd76442c0)" style="fill: #666666; stroke: #666666; stroke-width: 2.2; stroke-linecap: round"/>
   </g>
   <g id="patch_13">
    <path d="M 542.88 314.0604 
L 819.648 314.0604 
Q 850.896 314.0604 850.896 296.5968 
L 850.896 266.6592 
Q 850.896 249.1956 819.648 249.1956 
L 542.88 249.1956 
Q 511.632 249.1956 511.632 266.6592 
L 511.632 296.5968 
Q 511.632 314.0604 542.88 314.0604 
z
" clip-path="url(#p9dd76442c0)" style="fill: #eaf6ef; stroke: #27734d; stroke-width: 2.2; stroke-linejoin: miter"/>
   </g>
   <g id="patch_14">
    <path d="M 78.624 373.9356 
L 355.392 373.9356 
Q 386.64 373.9356 386.64 356.472 
L 386.64 326.5344 
Q 386.64 309.0708 355.392 309.0708 
L 78.624 309.0708 
Q 47.376 309.0708 47.376 326.5344 
L 47.376 356.472 
Q 47.376 373.9356 78.624 373.9356 
z
" clip-path="url(#p9dd76442c0)" style="fill: #f3f6fa; stroke: #5b6b7a; stroke-width: 2.2; stroke-linejoin: miter"/>
   </g>
   <g id="patch_15">
    <path d="M 384.178588 341.5032 
Q 444.673029 341.5032 502.707796 341.5032 
" clip-path="url(#p9dd76442c0)" style="fill: none; stroke: #666666; stroke-width: 2.2; stroke-linecap: round"/>
    <path d="M 494.707796 337.5032 
L 502.707796 341.5032 
L 494.707796 345.5032 
z
" clip-path="url(#p9dd76442c0)" style="fill: #666666; stroke: #666666; stroke-width: 2.2; stroke-linecap: round"/>
   </g>
   <g id="patch_16">
    <path d="M 542.88 373.9356 
L 819.648 373.9356 
Q 850.896 373.9356 850.896 356.472 
L 850.896 326.5344 
Q 850.896 309.0708 819.648 309.0708 
L 542.88 309.0708 
Q 511.632 309.0708 511.632 326.5344 
L 511.632 356.472 
Q 511.632 373.9356 542.88 373.9356 
z
" clip-path="url(#p9dd76442c0)" style="fill: #eaf6ef; stroke: #27734d; stroke-width: 2.2; stroke-linejoin: miter"/>
   </g>
   <g id="patch_17">
    <path d="M 78.624 433.8108 
L 355.392 433.8108 
Q 386.64 433.8108 386.64 416.3472 
L 386.64 386.4096 
Q 386.64 368.946 355.392 368.946 
L 78.624 368.946 
Q 47.376 368.946 47.376 386.4096 
L 47.376 416.3472 
Q 47.376 433.8108 78.624 433.8108 
z
" clip-path="url(#p9dd76442c0)" style="fill: #f3f6fa; stroke: #5b6b7a; stroke-width: 2.2; stroke-linejoin: miter"/>
   </g>
   <g id="patch_18">
    <path d="M 384.178588 401.3784 
Q 444.673029 401.3784 502.707796 401.3784 
" clip-path="url(#p9dd76442c0)" style="fill: none; stroke: #666666; stroke-width: 2.2; stroke-linecap: round"/>
    <path d="M 494.707796 397.3784 
L 502.707796 401.3784 
L 494.707796 405.3784 
z
" clip-path="url(#p9dd76442c0)" style="fill: #666666; stroke: #666666; stroke-width: 2.2; stroke-linecap: round"/>
   </g>
   <g id="patch_19">
    <path d="M 542.88 433.8108 
L 819.648 433.8108 
Q 850.896 433.8108 850.896 416.3472 
L 850.896 386.4096 
Q 850.896 368.946 819.648 368.946 
L 542.88 368.946 
Q 511.632 368.946 511.632 386.4096 
L 511.632 416.3472 
Q 511.632 433.8108 542.88 433.8108 
z
" clip-path="url(#p9dd76442c0)" style="fill: #eaf6ef; stroke: #27734d; stroke-width: 2.2; stroke-linejoin: miter"/>
   </g>
   <g id="text_1">
    <!-- Challenges → Modeling Decisions -->
    <g transform="translate(33.984 47.1168) scale(0.3 -0.3)">
     <defs>
      <path id="DejaVuSans-Bold-43" d="M 4288 256 
Q 3956 84 3597 -3 
Q 3238 -91 2847 -91 
Q 1681 -91 1000 561 
Q 319 1213 319 2328 
Q 319 3447 1000 4098 
Q 1681 4750 2847 4750 
Q 3238 4750 3597 4662 
Q 3956 4575 4288 4403 
L 4288 3438 
Q 3953 3666 3628 3772 
Q 3303 3878 2944 3878 
Q 2300 3878 1931 3465 
Q 1563 3053 1563 2328 
Q 1563 1606 1931 1193 
Q 2300 781 2944 781 
Q 3303 781 3628 887 
Q 3953 994 4288 1222 
L 4288 256 
z
" transform="scale(0.015625)"/>
      <path id="DejaVuSans-Bold-68" d="M 4056 2131 
L 4056 0 
L 2931 0 
L 2931 347 
L 2931 1625 
Q 2931 2084 2911 2256 
Q 2891 2428 2841 2509 
Q 2775 2619 2662 2680 
Q 2550 2741 2406 2741 
Q 2056 2741 1856 2470 
Q 1656 2200 1656 1722 
L 1656 0 
L 538 0 
L 538 4863 
L 1656 4863 
L 1656 2988 
Q 1909 3294 2193 3439 
Q 2478 3584 2822 3584 
Q 3428 3584 3742 3212 
Q 4056 2841 4056 2131 
z
" transform="scale(0.015625)"/>
      <path id="DejaVuSans-Bold-61" d="M 2106 1575 
Q 1756 1575 1579 1456 
Q 1403 1338 1403 1106 
Q 1403 894 1545 773 
Q 1688 653 1941 653 
Q 2256 653 2472 879 
Q 2688 1106 2688 1447 
L 2688 1575 
L 2106 1575 
z
M 3816 1997 
L 3816 0 
L 2688 0 
L 2688 519 
Q 2463 200 2181 54 
Q 1900 -91 1497 -91 
Q 953 -91 614 226 
Q 275 544 275 1050 
Q 275 1666 698 1953 
Q 1122 2241 2028 2241 
L 2688 2241 
L 2688 2328 
Q 2688 2594 2478 2717 
Q 2269 2841 1825 2841 
Q 1466 2841 1156 2769 
Q 847 2697 581 2553 
L 581 3406 
Q 941 3494 1303 3539 
Q 1666 3584 2028 3584 
Q 2975 3584 3395 3211 
Q 3816 2838 3816 1997 
z
" transform="scale(0.015625)"/>
      <path id="DejaVuSans-Bold-6c" d="M 538 4863 
L 1656 4863 
L 1656 0 
L 538 0 
L 538 4863 
z
" transform="scale(0.015625)"/>
      <path id="DejaVuSans-Bold-65" d="M 4031 1759 
L 4031 1441 
L 1416 1441 
Q 1456 1047 1700 850 
Q 1944 653 2381 653 
Q 2734 653 3104 758 
Q 3475 863 3866 1075 
L 3866 213 
Q 3469 63 3072 -14 
Q 2675 -91 2278 -91 
Q 1328 -91 801 392 
Q 275 875 275 1747 
Q 275 2603 792 3093 
Q 1309 3584 2216 3584 
Q 3041 3584 3536 3087 
Q 4031 2591 4031 1759 
z
M 2881 2131 
Q 2881 2450 2695 2645 
Q 2509 2841 2209 2841 
Q 1884 2841 1681 2658 
Q 1478 2475 1428 2131 
L 2881 2131 
z
" transform="scale(0.015625)"/>
      <path id="DejaVuSans-Bold-6e" d="M 4056 2131 
L 4056 0 
L 2931 0 
L 2931 347 
L 2931 1631 
Q 2931 2084 2911 2256 
Q 2891 2428 2841 2509 
Q 2775 2619 2662 2680 
Q 2550 2741 2406 2741 
Q 2056 2741 1856 2470 
Q 1656 2200 1656 1722 
L 1656 0 
L 538 0 
L 538 3500 
L 1656 3500 
L 1656 2988 
Q 1909 3294 2193 3439 
Q 2478 3584 2822 3584 
Q 3428 3584 3742 3212 
Q 4056 2841 4056 2131 
z
" transform="scale(0.015625)"/>
      <path id="DejaVuSans-Bold-67" d="M 2919 594 
Q 2688 288 2409 144 
Q 2131 0 1766 0 
Q 1125 0 706 504 
Q 288 1009 288 1791 
Q 288 2575 706 3076 
Q 1125 3578 1766 3578 
Q 2131 3578 2409 3434 
Q 2688 3291 2919 2981 
L 2919 3500 
L 4044 3500 
L 4044 353 
Q 4044 -491 3511 -936 
Q 2978 -1381 1966 -1381 
Q 1638 -1381 1331 -1331 
Q 1025 -1281 716 -1178 
L 716 -306 
Q 1009 -475 1290 -558 
Q 1572 -641 1856 -641 
Q 2406 -641 2662 -400 
Q 2919 -159 2919 353 
L 2919 594 
z
M 2181 2772 
Q 1834 2772 1640 2515 
Q 1447 2259 1447 1791 
Q 1447 1309 1634 1061 
Q 1822 813 2181 813 
Q 2531 813 2725 1069 
Q 2919 1325 2919 1791 
Q 2919 2259 2725 2515 
Q 2531 2772 2181 2772 
z
" transform="scale(0.015625)"/>
      <path id="DejaVuSans-Bold-73" d="M 3272 3391 
L 3272 2541 
Q 2913 2691 2578 2766 
Q 2244 2841 1947 2841 
Q 1628 2841 1473 2761 
Q 1319 2681 1319 2516 
Q 1319 2381 1436 2309 
Q 1553 2238 1856 2203 
L 2053 2175 
Q 2913 2066 3209 1816 
Q 3506 1566 3506 1031 
Q 3506 472 3093 190 
Q 2681 -91 1863 -91 
Q 1516 -91 1145 -36 
Q 775 19 384 128 
L 384 978 
Q 719 816 1070 734 
Q 1422 653 1784 653 
Q 2113 653 2278 743 
Q 2444 834 2444 1013 
Q 2444 1163 2330 1236 
Q 2216 1309 1875 1350 
L 1678 1375 
Q 931 1469 631 1722 
Q 331 1975 331 2491 
Q 331 3047 712 3315 
Q 1094 3584 1881 3584 
Q 2191 3584 2531 3537 
Q 2872 3491 3272 3391 
z
" transform="scale(0.015625)"/>
      <path id="DejaVuSans-Bold-20" transform="scale(0.015625)"/>
      <path id="DejaVuSans-Bold-2192" d="M 5050 2225 
L 5050 1788 
L 3822 559 
L 3369 1013 
L 3988 1631 
L 366 1631 
L 366 2381 
L 3988 2381 
L 3369 3000 
L 3822 3453 
L 5050 2225 
z
" transform="scale(0.015625)"/>
      <path id="DejaVuSans-Bold-4d" d="M 588 4666 
L 2119 4666 
L 3181 2169 
L 4250 4666 
L 5778 4666 
L 5778 0 
L 4641 0 
L 4641 3413 
L 3566 897 
L 2803 897 
L 1728 3413 
L 1728 0 
L 588 0 
L 588 4666 
z
" transform="scale(0.015625)"/>
      <path id="DejaVuSans-Bold-6f" d="M 2203 2784 
Q 1831 2784 1636 2517 
Q 1441 2250 1441 1747 
Q 1441 1244 1636 976 
Q 1831 709 2203 709 
Q 2569 709 2762 976 
Q 2956 1244 2956 1747 
Q 2956 2250 2762 2517 
Q 2569 2784 2203 2784 
z
M 2203 3584 
Q 3106 3584 3614 3096 
Q 4122 2609 4122 1747 
Q 4122 884 3614 396 
Q 3106 -91 2203 -91 
Q 1297 -91 786 396 
Q 275 884 275 1747 
Q 275 2609 786 3096 
Q 1297 3584 2203 3584 
z
" transform="scale(0.015625)"/>
      <path id="DejaVuSans-Bold-64" d="M 2919 2988 
L 2919 4863 
L 4044 4863 
L 4044 0 
L 2919 0 
L 2919 506 
Q 2688 197 2409 53 
Q 2131 -91 1766 -91 
Q 1119 -91 703 423 
Q 288 938 288 1747 
Q 288 2556 703 3070 
Q 1119 3584 1766 3584 
Q 2128 3584 2408 3439 
Q 2688 3294 2919 2988 
z
M 2181 722 
Q 2541 722 2730 984 
Q 2919 1247 2919 1747 
Q 2919 2247 2730 2509 
Q 2541 2772 2181 2772 
Q 1825 2772 1636 2509 
Q 1447 2247 1447 1747 
Q 1447 1247 1636 984 
Q 1825 722 2181 722 
z
" transform="scale(0.015625)"/>
      <path id="DejaVuSans-Bold-69" d="M 538 3500 
L 1656 3500 
L 1656 0 
L 538 0 
L 538 3500 
z
M 538 4863 
L 1656 4863 
L 1656 3950 
L 538 3950 
L 538 4863 
z
" transform="scale(0.015625)"/>
      <path id="DejaVuSans-Bold-44" d="M 1791 3756 
L 1791 909 
L 2222 909 
Q 2959 909 3348 1275 
Q 3738 1641 3738 2338 
Q 3738 3031 3350 3393 
Q 2963 3756 2222 3756 
L 1791 3756 
z
M 588 4666 
L 1856 4666 
Q 2919 4666 3439 4514 
Q 3959 4363 4331 4000 
Q 4659 3684 4818 3271 
Q 4978 2859 4978 2338 
Q 4978 1809 4818 1395 
Q 4659 981 4331 666 
Q 3956 303 3431 151 
Q 2906 0 1856 0 
L 588 0 
L 588 4666 
z
" transform="scale(0.015625)"/>
      <path id="DejaVuSans-Bold-63" d="M 3366 3391 
L 3366 2478 
Q 3138 2634 2908 2709 
Q 2678 2784 2431 2784 
Q 1963 2784 1702 2511 
Q 1441 2238 1441 1747 
Q 1441 1256 1702 982 
Q 1963 709 2431 709 
Q 2694 709 2930 787 
Q 3166 866 3366 1019 
L 3366 103 
Q 3103 6 2833 -42 
Q 2563 -91 2291 -91 
Q 1344 -91 809 395 
Q 275 881 275 1747 
Q 275 2613 809 3098 
Q 1344 3584 2291 3584 
Q 2566 3584 2833 3536 
Q 3100 3488 3366 3391 
z
" transform="scale(0.015625)"/>
     </defs>
     <use xlink:href="#DejaVuSans-Bold-43"/>
     <use xlink:href="#DejaVuSans-Bold-68" transform="translate(73.388672 0)"/>
     <use xlink:href="#DejaVuSans-Bold-61" transform="translate(144.580078 0)"/>
     <use xlink:href="#DejaVuSans-Bold-6c" transform="translate(212.060547 0)"/>
     <use xlink:href="#DejaVuSans-Bold-6c" transform="translate(246.337891 0)"/>
     <use xlink:href="#DejaVuSans-Bold-65" transform="translate(280.615234 0)"/>
     <use xlink:href="#DejaVuSans-Bold-6e" transform="translate(348.4375 0)"/>
     <use xlink:href="#DejaVuSans-Bold-67" transform="translate(419.628906 0)"/>
     <use xlink:href="#DejaVuSans-Bold-65" transform="translate(491.210938 0)"/>
     <use xlink:href="#DejaVuSans-Bold-73" transform="translate(559.033203 0)"/>
     <use xlink:href="#DejaVuSans-Bold-20" transform="translate(618.554688 0)"/>
     <use xlink:href="#DejaVuSans-Bold-2192" transform="translate(653.369141 0)"/>
     <use xlink:href="#DejaVuSans-Bold-20" transform="translate(737.158203 0)"/>
     <use xlink:href="#DejaVuSans-Bold-4d" transform="translate(771.972656 0)"/>
     <use xlink:href="#DejaVuSans-Bold-6f" transform="translate(871.484375 0)"/>
     <use xlink:href="#DejaVuSans-Bold-64" transform="translate(940.185547 0)"/>
     <use xlink:href="#DejaVuSans-Bold-65" transform="translate(1011.767578 0)"/>
     <use xlink:href="#DejaVuSans-Bold-6c" transform="translate(1079.589844 0)"/>
     <use xlink:href="#DejaVuSans-Bold-69" transform="translate(1113.867188 0)"/>
     <use xlink:href="#DejaVuSans-Bold-6e" transform="translate(1148.144531 0)"/>
     <use xlink:href="#DejaVuSans-Bold-67" transform="translate(1219.335938 0)"/>
     <use xlink:href="#DejaVuSans-Bold-20" transform="translate(1290.917969 0)"/>
     <use xlink:href="#DejaVuSans-Bold-44" transform="translate(1325.732422 0)"/>
     <use xlink:href="#DejaVuSans-Bold-65" transform="translate(1408.740234 0)"/>
     <use xlink:href="#DejaVuSans-Bold-63" transform="translate(1476.5625 0)"/>
     <use xlink:href="#DejaVuSans-Bold-69" transform="translate(1535.839844 0)"/>
     <use xlink:href="#DejaVuSans-Bold-73" transform="translate(1570.117188 0)"/>
     <use xlink:href="#DejaVuSans-Bold-69" transform="translate(1629.638672 0)"/>
     <use xlink:href="#DejaVuSans-Bold-6f" transform="translate(1663.916016 0)"/>
     <use xlink:href="#DejaVuSans-Bold-6e" transform="translate(1732.617188 0)"/>
     <use xlink:href="#DejaVuSans-Bold-73" transform="translate(1803.808594 0)"/>
    </g>
   </g>
   <g id="text_2">
    <!-- Mobility changes -->
    <g transform="translate(130.743 96.820931) scale(0.18 -0.18)">
     <defs>
      <path id="DejaVuSans-Bold-62" d="M 2400 722 
Q 2759 722 2948 984 
Q 3138 1247 3138 1747 
Q 3138 2247 2948 2509 
Q 2759 2772 2400 2772 
Q 2041 2772 1848 2508 
Q 1656 2244 1656 1747 
Q 1656 1250 1848 986 
Q 2041 722 2400 722 
z
M 1656 2988 
Q 1888 3294 2169 3439 
Q 2450 3584 2816 3584 
Q 3463 3584 3878 3070 
Q 4294 2556 4294 1747 
Q 4294 938 3878 423 
Q 3463 -91 2816 -91 
Q 2450 -91 2169 54 
Q 1888 200 1656 506 
L 1656 0 
L 538 0 
L 538 4863 
L 1656 4863 
L 1656 2988 
z
" transform="scale(0.015625)"/>
      <path id="DejaVuSans-Bold-74" d="M 1759 4494 
L 1759 3500 
L 2913 3500 
L 2913 2700 
L 1759 2700 
L 1759 1216 
Q 1759 972 1856 886 
Q 1953 800 2241 800 
L 2816 800 
L 2816 0 
L 1856 0 
Q 1194 0 917 276 
Q 641 553 641 1216 
L 641 2700 
L 84 2700 
L 84 3500 
L 641 3500 
L 641 4494 
L 1759 4494 
z
" transform="scale(0.015625)"/>
      <path id="DejaVuSans-Bold-79" d="M 78 3500 
L 1197 3500 
L 2138 1125 
L 2938 3500 
L 4056 3500 
L 2584 -331 
Q 2363 -916 2067 -1148 
Q 1772 -1381 1288 -1381 
L 641 -1381 
L 641 -647 
L 991 -647 
Q 1275 -647 1404 -556 
Q 1534 -466 1606 -231 
L 1638 -134 
L 78 3500 
z
" transform="scale(0.015625)"/>
     </defs>
     <use xlink:href="#DejaVuSans-Bold-4d"/>
     <use xlink:href="#DejaVuSans-Bold-6f" transform="translate(99.511719 0)"/>
     <use xlink:href="#DejaVuSans-Bold-62" transform="translate(168.212891 0)"/>
     <use xlink:href="#DejaVuSans-Bold-69" transform="translate(239.794922 0)"/>
     <use xlink:href="#DejaVuSans-Bold-6c" transform="translate(274.072266 0)"/>
     <use xlink:href="#DejaVuSans-Bold-69" transform="translate(308.349609 0)"/>
     <use xlink:href="#DejaVuSans-Bold-74" transform="translate(342.626953 0)"/>
     <use xlink:href="#DejaVuSans-Bold-79" transform="translate(390.429688 0)"/>
     <use xlink:href="#DejaVuSans-Bold-20" transform="translate(455.615234 0)"/>
     <use xlink:href="#DejaVuSans-Bold-63" transform="translate(490.429688 0)"/>
     <use xlink:href="#DejaVuSans-Bold-68" transform="translate(549.707031 0)"/>
     <use xlink:href="#DejaVuSans-Bold-61" transform="translate(620.898438 0)"/>
     <use xlink:href="#DejaVuSans-Bold-6e" transform="translate(688.378906 0)"/>
     <use xlink:href="#DejaVuSans-Bold-67" transform="translate(759.570312 0)"/>
     <use xlink:href="#DejaVuSans-Bold-65" transform="translate(831.152344 0)"/>
     <use xlink:href="#DejaVuSans-Bold-73" transform="translate(898.974609 0)"/>
    </g>
    <!-- cooperation -->
    <g transform="translate(156.270656 117.117619) scale(0.18 -0.18)">
     <defs>
      <path id="DejaVuSans-Bold-70" d="M 1656 506 
L 1656 -1331 
L 538 -1331 
L 538 3500 
L 1656 3500 
L 1656 2988 
Q 1888 3294 2169 3439 
Q 2450 3584 2816 3584 
Q 3463 3584 3878 3070 
Q 4294 2556 4294 1747 
Q 4294 938 3878 423 
Q 3463 -91 2816 -91 
Q 2450 -91 2169 54 
Q 1888 200 1656 506 
z
M 2400 2772 
Q 2041 2772 1848 2508 
Q 1656 2244 1656 1747 
Q 1656 1250 1848 986 
Q 2041 722 2400 722 
Q 2759 722 2948 984 
Q 3138 1247 3138 1747 
Q 3138 2247 2948 2509 
Q 2759 2772 2400 2772 
z
" transform="scale(0.015625)"/>
      <path id="DejaVuSans-Bold-72" d="M 3138 2547 
Q 2991 2616 2845 2648 
Q 2700 2681 2553 2681 
Q 2122 2681 1889 2404 
Q 1656 2128 1656 1613 
L 1656 0 
L 538 0 
L 538 3500 
L 1656 3500 
L 1656 2925 
Q 1872 3269 2151 3426 
Q 2431 3584 2822 3584 
Q 2878 3584 2943 3579 
Q 3009 3575 3134 3559 
L 3138 2547 
z
" transform="scale(0.015625)"/>
     </defs>
     <use xlink:href="#DejaVuSans-Bold-63"/>
     <use xlink:href="#DejaVuSans-Bold-6f" transform="translate(59.277344 0)"/>
     <use xlink:href="#DejaVuSans-Bold-6f" transform="translate(127.978516 0)"/>
     <use xlink:href="#DejaVuSans-Bold-70" transform="translate(196.679688 0)"/>
     <use xlink:href="#DejaVuSans-Bold-65" transform="translate(268.261719 0)"/>
     <use xlink:href="#DejaVuSans-Bold-72" transform="translate(336.083984 0)"/>
     <use xlink:href="#DejaVuSans-Bold-61" transform="translate(385.400391 0)"/>
     <use xlink:href="#DejaVuSans-Bold-74" transform="translate(452.880859 0)"/>
     <use xlink:href="#DejaVuSans-Bold-69" transform="translate(500.683594 0)"/>
     <use xlink:href="#DejaVuSans-Bold-6f" transform="translate(534.960938 0)"/>
     <use xlink:href="#DejaVuSans-Bold-6e" transform="translate(603.662109 0)"/>
    </g>
   </g>
   <g id="text_3">
    <!-- Weighted AP -->
    <g transform="translate(616.0815 96.750619) scale(0.18 -0.18)">
     <defs>
      <path id="DejaVuSans-Bold-57" d="M 191 4666 
L 1344 4666 
L 2150 1275 
L 2950 4666 
L 4109 4666 
L 4909 1275 
L 5716 4666 
L 6859 4666 
L 5759 0 
L 4372 0 
L 3525 3547 
L 2688 0 
L 1300 0 
L 191 4666 
z
" transform="scale(0.015625)"/>
      <path id="DejaVuSans-Bold-41" d="M 3419 850 
L 1538 850 
L 1241 0 
L 31 0 
L 1759 4666 
L 3194 4666 
L 4922 0 
L 3713 0 
L 3419 850 
z
M 1838 1716 
L 3116 1716 
L 2478 3572 
L 1838 1716 
z
" transform="scale(0.015625)"/>
      <path id="DejaVuSans-Bold-50" d="M 588 4666 
L 2584 4666 
Q 3475 4666 3951 4270 
Q 4428 3875 4428 3144 
Q 4428 2409 3951 2014 
Q 3475 1619 2584 1619 
L 1791 1619 
L 1791 0 
L 588 0 
L 588 4666 
z
M 1791 3794 
L 1791 2491 
L 2456 2491 
Q 2806 2491 2997 2661 
Q 3188 2831 3188 3144 
Q 3188 3456 2997 3625 
Q 2806 3794 2456 3794 
L 1791 3794 
z
" transform="scale(0.015625)"/>
     </defs>
     <use xlink:href="#DejaVuSans-Bold-57"/>
     <use xlink:href="#DejaVuSans-Bold-65" transform="translate(106.677734 0)"/>
     <use xlink:href="#DejaVuSans-Bold-69" transform="translate(174.5 0)"/>
     <use xlink:href="#DejaVuSans-Bold-67" transform="translate(208.777344 0)"/>
     <use xlink:href="#DejaVuSans-Bold-68" transform="translate(280.359375 0)"/>
     <use xlink:href="#DejaVuSans-Bold-74" transform="translate(351.550781 0)"/>
     <use xlink:href="#DejaVuSans-Bold-65" transform="translate(399.353516 0)"/>
     <use xlink:href="#DejaVuSans-Bold-64" transform="translate(467.175781 0)"/>
     <use xlink:href="#DejaVuSans-Bold-20" transform="translate(538.757812 0)"/>
     <use xlink:href="#DejaVuSans-Bold-41" transform="translate(573.572266 0)"/>
     <use xlink:href="#DejaVuSans-Bold-50" transform="translate(650.964844 0)"/>
    </g>
    <!-- handoff graph -->
    <g transform="translate(608.985563 117.047306) scale(0.18 -0.18)">
     <defs>
      <path id="DejaVuSans-Bold-66" d="M 2841 4863 
L 2841 4128 
L 2222 4128 
Q 1984 4128 1890 4042 
Q 1797 3956 1797 3744 
L 1797 3500 
L 2753 3500 
L 2753 2700 
L 1797 2700 
L 1797 0 
L 678 0 
L 678 2700 
L 122 2700 
L 122 3500 
L 678 3500 
L 678 3744 
Q 678 4316 997 4589 
Q 1316 4863 1984 4863 
L 2841 4863 
z
" transform="scale(0.015625)"/>
     </defs>
     <use xlink:href="#DejaVuSans-Bold-68"/>
     <use xlink:href="#DejaVuSans-Bold-61" transform="translate(71.191406 0)"/>
     <use xlink:href="#DejaVuSans-Bold-6e" transform="translate(138.671875 0)"/>
     <use xlink:href="#DejaVuSans-Bold-64" transform="translate(209.863281 0)"/>
     <use xlink:href="#DejaVuSans-Bold-6f" transform="translate(281.445312 0)"/>
     <use xlink:href="#DejaVuSans-Bold-66" transform="translate(350.146484 0)"/>
     <use xlink:href="#DejaVuSans-Bold-66" transform="translate(393.652344 0)"/>
     <use xlink:href="#DejaVuSans-Bold-20" transform="translate(437.158203 0)"/>
     <use xlink:href="#DejaVuSans-Bold-67" transform="translate(471.972656 0)"/>
     <use xlink:href="#DejaVuSans-Bold-72" transform="translate(543.554688 0)"/>
     <use xlink:href="#DejaVuSans-Bold-61" transform="translate(592.871094 0)"/>
     <use xlink:href="#DejaVuSans-Bold-70" transform="translate(660.351562 0)"/>
     <use xlink:href="#DejaVuSans-Bold-68" transform="translate(731.933594 0)"/>
    </g>
   </g>
   <g id="text_4">
    <!-- Demand differs -->
    <g transform="translate(138.74175 156.696131) scale(0.18 -0.18)">
     <defs>
      <path id="DejaVuSans-Bold-6d" d="M 3781 2919 
Q 3994 3244 4286 3414 
Q 4578 3584 4928 3584 
Q 5531 3584 5847 3212 
Q 6163 2841 6163 2131 
L 6163 0 
L 5038 0 
L 5038 1825 
Q 5041 1866 5042 1909 
Q 5044 1953 5044 2034 
Q 5044 2406 4934 2573 
Q 4825 2741 4581 2741 
Q 4263 2741 4089 2478 
Q 3916 2216 3909 1719 
L 3909 0 
L 2784 0 
L 2784 1825 
Q 2784 2406 2684 2573 
Q 2584 2741 2328 2741 
Q 2006 2741 1831 2477 
Q 1656 2213 1656 1722 
L 1656 0 
L 531 0 
L 531 3500 
L 1656 3500 
L 1656 2988 
Q 1863 3284 2130 3434 
Q 2397 3584 2719 3584 
Q 3081 3584 3359 3409 
Q 3638 3234 3781 2919 
z
" transform="scale(0.015625)"/>
     </defs>
     <use xlink:href="#DejaVuSans-Bold-44"/>
     <use xlink:href="#DejaVuSans-Bold-65" transform="translate(83.007812 0)"/>
     <use xlink:href="#DejaVuSans-Bold-6d" transform="translate(150.830078 0)"/>
     <use xlink:href="#DejaVuSans-Bold-61" transform="translate(255.029297 0)"/>
     <use xlink:href="#DejaVuSans-Bold-6e" transform="translate(322.509766 0)"/>
     <use xlink:href="#DejaVuSans-Bold-64" transform="translate(393.701172 0)"/>
     <use xlink:href="#DejaVuSans-Bold-20" transform="translate(465.283203 0)"/>
     <use xlink:href="#DejaVuSans-Bold-64" transform="translate(500.097656 0)"/>
     <use xlink:href="#DejaVuSans-Bold-69" transform="translate(571.679688 0)"/>
     <use xlink:href="#DejaVuSans-Bold-66" transform="translate(605.957031 0)"/>
     <use xlink:href="#DejaVuSans-Bold-66" transform="translate(649.462891 0)"/>
     <use xlink:href="#DejaVuSans-Bold-65" transform="translate(692.96875 0)"/>
     <use xlink:href="#DejaVuSans-Bold-72" transform="translate(760.791016 0)"/>
     <use xlink:href="#DejaVuSans-Bold-73" transform="translate(810.107422 0)"/>
    </g>
    <!-- by AP -->
    <g transform="translate(188.004094 176.852194) scale(0.18 -0.18)">
     <use xlink:href="#DejaVuSans-Bold-62"/>
     <use xlink:href="#DejaVuSans-Bold-79" transform="translate(71.582031 0)"/>
     <use xlink:href="#DejaVuSans-Bold-20" transform="translate(136.767578 0)"/>
     <use xlink:href="#DejaVuSans-Bold-41" transform="translate(171.582031 0)"/>
     <use xlink:href="#DejaVuSans-Bold-50" transform="translate(248.974609 0)"/>
    </g>
   </g>
   <g id="text_5">
    <!-- Zipf + spatial -->
    <g transform="translate(613.069313 156.696131) scale(0.18 -0.18)">
     <defs>
      <path id="DejaVuSans-Bold-5a" d="M 359 4666 
L 4281 4666 
L 4281 3938 
L 1778 909 
L 4353 909 
L 4353 0 
L 288 0 
L 288 728 
L 2791 3756 
L 359 3756 
L 359 4666 
z
" transform="scale(0.015625)"/>
      <path id="DejaVuSans-Bold-2b" d="M 3053 4013 
L 3053 2375 
L 4684 2375 
L 4684 1638 
L 3053 1638 
L 3053 0 
L 2309 0 
L 2309 1638 
L 678 1638 
L 678 2375 
L 2309 2375 
L 2309 4013 
L 3053 4013 
z
" transform="scale(0.015625)"/>
     </defs>
     <use xlink:href="#DejaVuSans-Bold-5a"/>
     <use xlink:href="#DejaVuSans-Bold-69" transform="translate(72.509766 0)"/>
     <use xlink:href="#DejaVuSans-Bold-70" transform="translate(106.787109 0)"/>
     <use xlink:href="#DejaVuSans-Bold-66" transform="translate(178.369141 0)"/>
     <use xlink:href="#DejaVuSans-Bold-20" transform="translate(221.875 0)"/>
     <use xlink:href="#DejaVuSans-Bold-2b" transform="translate(256.689453 0)"/>
     <use xlink:href="#DejaVuSans-Bold-20" transform="translate(340.478516 0)"/>
     <use xlink:href="#DejaVuSans-Bold-73" transform="translate(375.292969 0)"/>
     <use xlink:href="#DejaVuSans-Bold-70" transform="translate(434.814453 0)"/>
     <use xlink:href="#DejaVuSans-Bold-61" transform="translate(506.396484 0)"/>
     <use xlink:href="#DejaVuSans-Bold-74" transform="translate(573.876953 0)"/>
     <use xlink:href="#DejaVuSans-Bold-69" transform="translate(621.679688 0)"/>
     <use xlink:href="#DejaVuSans-Bold-61" transform="translate(655.957031 0)"/>
     <use xlink:href="#DejaVuSans-Bold-6c" transform="translate(723.4375 0)"/>
    </g>
    <!-- locality -->
    <g transform="translate(644.247281 176.852194) scale(0.18 -0.18)">
     <use xlink:href="#DejaVuSans-Bold-6c"/>
     <use xlink:href="#DejaVuSans-Bold-6f" transform="translate(34.277344 0)"/>
     <use xlink:href="#DejaVuSans-Bold-63" transform="translate(102.978516 0)"/>
     <use xlink:href="#DejaVuSans-Bold-61" transform="translate(162.255859 0)"/>
     <use xlink:href="#DejaVuSans-Bold-6c" transform="translate(229.736328 0)"/>
     <use xlink:href="#DejaVuSans-Bold-69" transform="translate(264.013672 0)"/>
     <use xlink:href="#DejaVuSans-Bold-74" transform="translate(298.291016 0)"/>
     <use xlink:href="#DejaVuSans-Bold-79" transform="translate(346.09375 0)"/>
    </g>
   </g>
   <g id="text_6">
    <!-- Capacity is -->
    <g transform="translate(161.649563 216.571331) scale(0.18 -0.18)">
     <use xlink:href="#DejaVuSans-Bold-43"/>
     <use xlink:href="#DejaVuSans-Bold-61" transform="translate(73.388672 0)"/>
     <use xlink:href="#DejaVuSans-Bold-70" transform="translate(140.869141 0)"/>
     <use xlink:href="#DejaVuSans-Bold-61" transform="translate(212.451172 0)"/>
     <use xlink:href="#DejaVuSans-Bold-63" transform="translate(279.931641 0)"/>
     <use xlink:href="#DejaVuSans-Bold-69" transform="translate(339.208984 0)"/>
     <use xlink:href="#DejaVuSans-Bold-74" transform="translate(373.486328 0)"/>
     <use xlink:href="#DejaVuSans-Bold-79" transform="translate(421.289062 0)"/>
     <use xlink:href="#DejaVuSans-Bold-20" transform="translate(486.474609 0)"/>
     <use xlink:href="#DejaVuSans-Bold-69" transform="translate(521.289062 0)"/>
     <use xlink:href="#DejaVuSans-Bold-73" transform="translate(555.566406 0)"/>
    </g>
    <!-- small -->
    <g transform="translate(190.029094 236.868019) scale(0.18 -0.18)">
     <use xlink:href="#DejaVuSans-Bold-73"/>
     <use xlink:href="#DejaVuSans-Bold-6d" transform="translate(59.521484 0)"/>
     <use xlink:href="#DejaVuSans-Bold-61" transform="translate(163.720703 0)"/>
     <use xlink:href="#DejaVuSans-Bold-6c" transform="translate(231.201172 0)"/>
     <use xlink:href="#DejaVuSans-Bold-6c" transform="translate(265.478516 0)"/>
    </g>
   </g>
   <g id="text_7">
    <!-- Binary placement -->
    <g transform="translate(592.168219 216.571331) scale(0.18 -0.18)">
     <defs>
      <path id="DejaVuSans-Bold-42" d="M 2456 2859 
Q 2741 2859 2887 2984 
Q 3034 3109 3034 3353 
Q 3034 3594 2887 3720 
Q 2741 3847 2456 3847 
L 1791 3847 
L 1791 2859 
L 2456 2859 
z
M 2497 819 
Q 2859 819 3042 972 
Q 3225 1125 3225 1434 
Q 3225 1738 3044 1889 
Q 2863 2041 2497 2041 
L 1791 2041 
L 1791 819 
L 2497 819 
z
M 3616 2497 
Q 4003 2384 4215 2081 
Q 4428 1778 4428 1338 
Q 4428 663 3972 331 
Q 3516 0 2584 0 
L 588 0 
L 588 4666 
L 2394 4666 
Q 3366 4666 3802 4372 
Q 4238 4078 4238 3431 
Q 4238 3091 4078 2852 
Q 3919 2613 3616 2497 
z
" transform="scale(0.015625)"/>
     </defs>
     <use xlink:href="#DejaVuSans-Bold-42"/>
     <use xlink:href="#DejaVuSans-Bold-69" transform="translate(76.220703 0)"/>
     <use xlink:href="#DejaVuSans-Bold-6e" transform="translate(110.498047 0)"/>
     <use xlink:href="#DejaVuSans-Bold-61" transform="translate(181.689453 0)"/>
     <use xlink:href="#DejaVuSans-Bold-72" transform="translate(249.169922 0)"/>
     <use xlink:href="#DejaVuSans-Bold-79" transform="translate(298.486328 0)"/>
     <use xlink:href="#DejaVuSans-Bold-20" transform="translate(363.671875 0)"/>
     <use xlink:href="#DejaVuSans-Bold-70" transform="translate(398.486328 0)"/>
     <use xlink:href="#DejaVuSans-Bold-6c" transform="translate(470.068359 0)"/>
     <use xlink:href="#DejaVuSans-Bold-61" transform="translate(504.345703 0)"/>
     <use xlink:href="#DejaVuSans-Bold-63" transform="translate(571.826172 0)"/>
     <use xlink:href="#DejaVuSans-Bold-65" transform="translate(631.103516 0)"/>
     <use xlink:href="#DejaVuSans-Bold-6d" transform="translate(698.925781 0)"/>
     <use xlink:href="#DejaVuSans-Bold-65" transform="translate(803.125 0)"/>
     <use xlink:href="#DejaVuSans-Bold-6e" transform="translate(870.947266 0)"/>
     <use xlink:href="#DejaVuSans-Bold-74" transform="translate(942.138672 0)"/>
    </g>
    <!-- with K=5 -->
    <g transform="translate(635.244469 236.868019) scale(0.18 -0.18)">
     <defs>
      <path id="DejaVuSans-Bold-77" d="M 225 3500 
L 1313 3500 
L 1900 1088 
L 2491 3500 
L 3425 3500 
L 4013 1113 
L 4603 3500 
L 5691 3500 
L 4769 0 
L 3547 0 
L 2956 2406 
L 2369 0 
L 1147 0 
L 225 3500 
z
" transform="scale(0.015625)"/>
      <path id="DejaVuSans-Bold-4b" d="M 588 4666 
L 1791 4666 
L 1791 2963 
L 3525 4666 
L 4922 4666 
L 2675 2456 
L 5153 0 
L 3647 0 
L 1791 1838 
L 1791 0 
L 588 0 
L 588 4666 
z
" transform="scale(0.015625)"/>
      <path id="DejaVuSans-Bold-3d" d="M 678 3084 
L 4684 3084 
L 4684 2350 
L 678 2350 
L 678 3084 
z
M 678 1663 
L 4684 1663 
L 4684 922 
L 678 922 
L 678 1663 
z
" transform="scale(0.015625)"/>
      <path id="DejaVuSans-Bold-35" d="M 678 4666 
L 3669 4666 
L 3669 3781 
L 1638 3781 
L 1638 3059 
Q 1775 3097 1914 3117 
Q 2053 3138 2203 3138 
Q 3056 3138 3531 2711 
Q 4006 2284 4006 1522 
Q 4006 766 3489 337 
Q 2972 -91 2053 -91 
Q 1656 -91 1267 -14 
Q 878 63 494 219 
L 494 1166 
Q 875 947 1217 837 
Q 1559 728 1863 728 
Q 2300 728 2551 942 
Q 2803 1156 2803 1522 
Q 2803 1891 2551 2103 
Q 2300 2316 1863 2316 
Q 1603 2316 1309 2248 
Q 1016 2181 678 2041 
L 678 4666 
z
" transform="scale(0.015625)"/>
     </defs>
     <use xlink:href="#DejaVuSans-Bold-77"/>
     <use xlink:href="#DejaVuSans-Bold-69" transform="translate(92.382812 0)"/>
     <use xlink:href="#DejaVuSans-Bold-74" transform="translate(126.660156 0)"/>
     <use xlink:href="#DejaVuSans-Bold-68" transform="translate(174.462891 0)"/>
     <use xlink:href="#DejaVuSans-Bold-20" transform="translate(245.654297 0)"/>
     <use xlink:href="#DejaVuSans-Bold-4b" transform="translate(280.46875 0)"/>
     <use xlink:href="#DejaVuSans-Bold-3d" transform="translate(357.958984 0)"/>
     <use xlink:href="#DejaVuSans-Bold-35" transform="translate(441.748047 0)"/>
    </g>
   </g>
   <g id="text_8">
    <!-- Duplication can -->
    <g transform="translate(138.182063 276.446531) scale(0.18 -0.18)">
     <defs>
      <path id="DejaVuSans-Bold-75" d="M 500 1363 
L 500 3500 
L 1625 3500 
L 1625 3150 
Q 1625 2866 1622 2436 
Q 1619 2006 1619 1863 
Q 1619 1441 1641 1255 
Q 1663 1069 1716 984 
Q 1784 875 1895 815 
Q 2006 756 2150 756 
Q 2500 756 2700 1025 
Q 2900 1294 2900 1772 
L 2900 3500 
L 4019 3500 
L 4019 0 
L 2900 0 
L 2900 506 
Q 2647 200 2364 54 
Q 2081 -91 1741 -91 
Q 1134 -91 817 281 
Q 500 653 500 1363 
z
" transform="scale(0.015625)"/>
     </defs>
     <use xlink:href="#DejaVuSans-Bold-44"/>
     <use xlink:href="#DejaVuSans-Bold-75" transform="translate(83.007812 0)"/>
     <use xlink:href="#DejaVuSans-Bold-70" transform="translate(154.199219 0)"/>
     <use xlink:href="#DejaVuSans-Bold-6c" transform="translate(225.78125 0)"/>
     <use xlink:href="#DejaVuSans-Bold-69" transform="translate(260.058594 0)"/>
     <use xlink:href="#DejaVuSans-Bold-63" transform="translate(294.335938 0)"/>
     <use xlink:href="#DejaVuSans-Bold-61" transform="translate(353.613281 0)"/>
     <use xlink:href="#DejaVuSans-Bold-74" transform="translate(421.09375 0)"/>
     <use xlink:href="#DejaVuSans-Bold-69" transform="translate(468.896484 0)"/>
     <use xlink:href="#DejaVuSans-Bold-6f" transform="translate(503.173828 0)"/>
     <use xlink:href="#DejaVuSans-Bold-6e" transform="translate(571.875 0)"/>
     <use xlink:href="#DejaVuSans-Bold-20" transform="translate(643.066406 0)"/>
     <use xlink:href="#DejaVuSans-Bold-63" transform="translate(677.880859 0)"/>
     <use xlink:href="#DejaVuSans-Bold-61" transform="translate(737.158203 0)"/>
     <use xlink:href="#DejaVuSans-Bold-6e" transform="translate(804.638672 0)"/>
    </g>
    <!-- waste coverage -->
    <g transform="translate(137.175187 296.602594) scale(0.18 -0.18)">
     <defs>
      <path id="DejaVuSans-Bold-76" d="M 97 3500 
L 1216 3500 
L 2088 1081 
L 2956 3500 
L 4078 3500 
L 2700 0 
L 1472 0 
L 97 3500 
z
" transform="scale(0.015625)"/>
     </defs>
     <use xlink:href="#DejaVuSans-Bold-77"/>
     <use xlink:href="#DejaVuSans-Bold-61" transform="translate(92.382812 0)"/>
     <use xlink:href="#DejaVuSans-Bold-73" transform="translate(159.863281 0)"/>
     <use xlink:href="#DejaVuSans-Bold-74" transform="translate(219.384766 0)"/>
     <use xlink:href="#DejaVuSans-Bold-65" transform="translate(267.1875 0)"/>
     <use xlink:href="#DejaVuSans-Bold-20" transform="translate(335.009766 0)"/>
     <use xlink:href="#DejaVuSans-Bold-63" transform="translate(369.824219 0)"/>
     <use xlink:href="#DejaVuSans-Bold-6f" transform="translate(429.101562 0)"/>
     <use xlink:href="#DejaVuSans-Bold-76" transform="translate(497.802734 0)"/>
     <use xlink:href="#DejaVuSans-Bold-65" transform="translate(562.988281 0)"/>
     <use xlink:href="#DejaVuSans-Bold-72" transform="translate(630.810547 0)"/>
     <use xlink:href="#DejaVuSans-Bold-61" transform="translate(680.126953 0)"/>
     <use xlink:href="#DejaVuSans-Bold-67" transform="translate(747.607422 0)"/>
     <use xlink:href="#DejaVuSans-Bold-65" transform="translate(819.189453 0)"/>
    </g>
   </g>
   <g id="text_9">
    <!-- Edge-weighted -->
    <g transform="translate(605.190094 276.376219) scale(0.18 -0.18)">
     <defs>
      <path id="DejaVuSans-Bold-45" d="M 588 4666 
L 3834 4666 
L 3834 3756 
L 1791 3756 
L 1791 2888 
L 3713 2888 
L 3713 1978 
L 1791 1978 
L 1791 909 
L 3903 909 
L 3903 0 
L 588 0 
L 588 4666 
z
" transform="scale(0.015625)"/>
      <path id="DejaVuSans-Bold-2d" d="M 347 2297 
L 2309 2297 
L 2309 1388 
L 347 1388 
L 347 2297 
z
" transform="scale(0.015625)"/>
     </defs>
     <use xlink:href="#DejaVuSans-Bold-45"/>
     <use xlink:href="#DejaVuSans-Bold-64" transform="translate(68.310547 0)"/>
     <use xlink:href="#DejaVuSans-Bold-67" transform="translate(139.892578 0)"/>
     <use xlink:href="#DejaVuSans-Bold-65" transform="translate(211.474609 0)"/>
     <use xlink:href="#DejaVuSans-Bold-2d" transform="translate(279.296875 0)"/>
     <use xlink:href="#DejaVuSans-Bold-77" transform="translate(320.800781 0)"/>
     <use xlink:href="#DejaVuSans-Bold-65" transform="translate(413.183594 0)"/>
     <use xlink:href="#DejaVuSans-Bold-69" transform="translate(481.005859 0)"/>
     <use xlink:href="#DejaVuSans-Bold-67" transform="translate(515.283203 0)"/>
     <use xlink:href="#DejaVuSans-Bold-68" transform="translate(586.865234 0)"/>
     <use xlink:href="#DejaVuSans-Bold-74" transform="translate(658.056641 0)"/>
     <use xlink:href="#DejaVuSans-Bold-65" transform="translate(705.859375 0)"/>
     <use xlink:href="#DejaVuSans-Bold-64" transform="translate(773.681641 0)"/>
    </g>
    <!-- redundancy -->
    <g transform="translate(621.340875 296.672906) scale(0.18 -0.18)">
     <use xlink:href="#DejaVuSans-Bold-72"/>
     <use xlink:href="#DejaVuSans-Bold-65" transform="translate(49.316406 0)"/>
     <use xlink:href="#DejaVuSans-Bold-64" transform="translate(117.138672 0)"/>
     <use xlink:href="#DejaVuSans-Bold-75" transform="translate(188.720703 0)"/>
     <use xlink:href="#DejaVuSans-Bold-6e" transform="translate(259.912109 0)"/>
     <use xlink:href="#DejaVuSans-Bold-64" transform="translate(331.103516 0)"/>
     <use xlink:href="#DejaVuSans-Bold-61" transform="translate(402.685547 0)"/>
     <use xlink:href="#DejaVuSans-Bold-6e" transform="translate(470.166016 0)"/>
     <use xlink:href="#DejaVuSans-Bold-63" transform="translate(541.357422 0)"/>
     <use xlink:href="#DejaVuSans-Bold-79" transform="translate(600.634766 0)"/>
    </g>
   </g>
   <g id="text_10">
    <!-- Topology is -->
    <g transform="translate(160.099875 336.321731) scale(0.18 -0.18)">
     <defs>
      <path id="DejaVuSans-Bold-54" d="M 31 4666 
L 4331 4666 
L 4331 3756 
L 2784 3756 
L 2784 0 
L 1581 0 
L 1581 3756 
L 31 3756 
L 31 4666 
z
" transform="scale(0.015625)"/>
     </defs>
     <use xlink:href="#DejaVuSans-Bold-54"/>
     <use xlink:href="#DejaVuSans-Bold-6f" transform="translate(54.962891 0)"/>
     <use xlink:href="#DejaVuSans-Bold-70" transform="translate(123.664062 0)"/>
     <use xlink:href="#DejaVuSans-Bold-6f" transform="translate(195.246094 0)"/>
     <use xlink:href="#DejaVuSans-Bold-6c" transform="translate(263.947266 0)"/>
     <use xlink:href="#DejaVuSans-Bold-6f" transform="translate(298.224609 0)"/>
     <use xlink:href="#DejaVuSans-Bold-67" transform="translate(366.925781 0)"/>
     <use xlink:href="#DejaVuSans-Bold-79" transform="translate(438.507812 0)"/>
     <use xlink:href="#DejaVuSans-Bold-20" transform="translate(503.693359 0)"/>
     <use xlink:href="#DejaVuSans-Bold-69" transform="translate(538.507812 0)"/>
     <use xlink:href="#DejaVuSans-Bold-73" transform="translate(572.785156 0)"/>
    </g>
    <!-- unstable -->
    <g transform="translate(172.830656 356.618419) scale(0.18 -0.18)">
     <use xlink:href="#DejaVuSans-Bold-75"/>
     <use xlink:href="#DejaVuSans-Bold-6e" transform="translate(71.191406 0)"/>
     <use xlink:href="#DejaVuSans-Bold-73" transform="translate(142.382812 0)"/>
     <use xlink:href="#DejaVuSans-Bold-74" transform="translate(201.904297 0)"/>
     <use xlink:href="#DejaVuSans-Bold-61" transform="translate(249.707031 0)"/>
     <use xlink:href="#DejaVuSans-Bold-62" transform="translate(317.1875 0)"/>
     <use xlink:href="#DejaVuSans-Bold-6c" transform="translate(388.769531 0)"/>
     <use xlink:href="#DejaVuSans-Bold-65" transform="translate(423.046875 0)"/>
    </g>
   </g>
   <g id="text_11">
    <!-- Node/edge -->
    <g transform="translate(626.621344 336.321731) scale(0.18 -0.18)">
     <defs>
      <path id="DejaVuSans-Bold-4e" d="M 588 4666 
L 1931 4666 
L 3628 1466 
L 3628 4666 
L 4769 4666 
L 4769 0 
L 3425 0 
L 1728 3200 
L 1728 0 
L 588 0 
L 588 4666 
z
" transform="scale(0.015625)"/>
      <path id="DejaVuSans-Bold-2f" d="M 1644 4666 
L 2338 4666 
L 691 -594 
L 0 -594 
L 1644 4666 
z
" transform="scale(0.015625)"/>
     </defs>
     <use xlink:href="#DejaVuSans-Bold-4e"/>
     <use xlink:href="#DejaVuSans-Bold-6f" transform="translate(83.691406 0)"/>
     <use xlink:href="#DejaVuSans-Bold-64" transform="translate(152.392578 0)"/>
     <use xlink:href="#DejaVuSans-Bold-65" transform="translate(223.974609 0)"/>
     <use xlink:href="#DejaVuSans-Bold-2f" transform="translate(291.796875 0)"/>
     <use xlink:href="#DejaVuSans-Bold-65" transform="translate(328.320312 0)"/>
     <use xlink:href="#DejaVuSans-Bold-64" transform="translate(396.142578 0)"/>
     <use xlink:href="#DejaVuSans-Bold-67" transform="translate(467.724609 0)"/>
     <use xlink:href="#DejaVuSans-Bold-65" transform="translate(539.306641 0)"/>
    </g>
    <!-- perturbation -->
    <g transform="translate(616.639781 356.618419) scale(0.18 -0.18)">
     <use xlink:href="#DejaVuSans-Bold-70"/>
     <use xlink:href="#DejaVuSans-Bold-65" transform="translate(71.582031 0)"/>
     <use xlink:href="#DejaVuSans-Bold-72" transform="translate(139.404297 0)"/>
     <use xlink:href="#DejaVuSans-Bold-74" transform="translate(188.720703 0)"/>
     <use xlink:href="#DejaVuSans-Bold-75" transform="translate(236.523438 0)"/>
     <use xlink:href="#DejaVuSans-Bold-72" transform="translate(307.714844 0)"/>
     <use xlink:href="#DejaVuSans-Bold-62" transform="translate(357.03125 0)"/>
     <use xlink:href="#DejaVuSans-Bold-61" transform="translate(428.613281 0)"/>
     <use xlink:href="#DejaVuSans-Bold-74" transform="translate(496.09375 0)"/>
     <use xlink:href="#DejaVuSans-Bold-69" transform="translate(543.896484 0)"/>
     <use xlink:href="#DejaVuSans-Bold-6f" transform="translate(578.173828 0)"/>
     <use xlink:href="#DejaVuSans-Bold-6e" transform="translate(646.875 0)"/>
    </g>
   </g>
   <g id="text_12">
    <!-- Updates are -->
    <g transform="translate(155.230031 396.196931) scale(0.18 -0.18)">
     <defs>
      <path id="DejaVuSans-Bold-55" d="M 588 4666 
L 1791 4666 
L 1791 1869 
Q 1791 1291 1980 1042 
Q 2169 794 2597 794 
Q 3028 794 3217 1042 
Q 3406 1291 3406 1869 
L 3406 4666 
L 4609 4666 
L 4609 1869 
Q 4609 878 4112 393 
Q 3616 -91 2597 -91 
Q 1581 -91 1084 393 
Q 588 878 588 1869 
L 588 4666 
z
" transform="scale(0.015625)"/>
     </defs>
     <use xlink:href="#DejaVuSans-Bold-55"/>
     <use xlink:href="#DejaVuSans-Bold-70" transform="translate(81.201172 0)"/>
     <use xlink:href="#DejaVuSans-Bold-64" transform="translate(152.783203 0)"/>
     <use xlink:href="#DejaVuSans-Bold-61" transform="translate(224.365234 0)"/>
     <use xlink:href="#DejaVuSans-Bold-74" transform="translate(291.845703 0)"/>
     <use xlink:href="#DejaVuSans-Bold-65" transform="translate(339.648438 0)"/>
     <use xlink:href="#DejaVuSans-Bold-73" transform="translate(407.470703 0)"/>
     <use xlink:href="#DejaVuSans-Bold-20" transform="translate(466.992188 0)"/>
     <use xlink:href="#DejaVuSans-Bold-61" transform="translate(501.806641 0)"/>
     <use xlink:href="#DejaVuSans-Bold-72" transform="translate(569.287109 0)"/>
     <use xlink:href="#DejaVuSans-Bold-65" transform="translate(618.603516 0)"/>
    </g>
    <!-- costly -->
    <g transform="translate(186.879094 416.352994) scale(0.18 -0.18)">
     <use xlink:href="#DejaVuSans-Bold-63"/>
     <use xlink:href="#DejaVuSans-Bold-6f" transform="translate(59.277344 0)"/>
     <use xlink:href="#DejaVuSans-Bold-73" transform="translate(127.978516 0)"/>
     <use xlink:href="#DejaVuSans-Bold-74" transform="translate(187.5 0)"/>
     <use xlink:href="#DejaVuSans-Bold-6c" transform="translate(235.302734 0)"/>
     <use xlink:href="#DejaVuSans-Bold-79" transform="translate(269.580078 0)"/>
    </g>
   </g>
   <g id="text_13">
    <!-- Relocation vs. -->
    <g transform="translate(609.799781 396.267244) scale(0.18 -0.18)">
     <defs>
      <path id="DejaVuSans-Bold-52" d="M 2297 2597 
Q 2675 2597 2839 2737 
Q 3003 2878 3003 3200 
Q 3003 3519 2839 3656 
Q 2675 3794 2297 3794 
L 1791 3794 
L 1791 2597 
L 2297 2597 
z
M 1791 1766 
L 1791 0 
L 588 0 
L 588 4666 
L 2425 4666 
Q 3347 4666 3776 4356 
Q 4206 4047 4206 3378 
Q 4206 2916 3982 2619 
Q 3759 2322 3309 2181 
Q 3556 2125 3751 1926 
Q 3947 1728 4147 1325 
L 4800 0 
L 3519 0 
L 2950 1159 
Q 2778 1509 2601 1637 
Q 2425 1766 2131 1766 
L 1791 1766 
z
" transform="scale(0.015625)"/>
      <path id="DejaVuSans-Bold-2e" d="M 653 1209 
L 1778 1209 
L 1778 0 
L 653 0 
L 653 1209 
z
" transform="scale(0.015625)"/>
     </defs>
     <use xlink:href="#DejaVuSans-Bold-52"/>
     <use xlink:href="#DejaVuSans-Bold-65" transform="translate(77.001953 0)"/>
     <use xlink:href="#DejaVuSans-Bold-6c" transform="translate(144.824219 0)"/>
     <use xlink:href="#DejaVuSans-Bold-6f" transform="translate(179.101562 0)"/>
     <use xlink:href="#DejaVuSans-Bold-63" transform="translate(247.802734 0)"/>
     <use xlink:href="#DejaVuSans-Bold-61" transform="translate(307.080078 0)"/>
     <use xlink:href="#DejaVuSans-Bold-74" transform="translate(374.560547 0)"/>
     <use xlink:href="#DejaVuSans-Bold-69" transform="translate(422.363281 0)"/>
     <use xlink:href="#DejaVuSans-Bold-6f" transform="translate(456.640625 0)"/>
     <use xlink:href="#DejaVuSans-Bold-6e" transform="translate(525.341797 0)"/>
     <use xlink:href="#DejaVuSans-Bold-20" transform="translate(596.533203 0)"/>
     <use xlink:href="#DejaVuSans-Bold-76" transform="translate(631.347656 0)"/>
     <use xlink:href="#DejaVuSans-Bold-73" transform="translate(696.533203 0)"/>
     <use xlink:href="#DejaVuSans-Bold-2e" transform="translate(756.054688 0)"/>
    </g>
    <!-- previous cache -->
    <g transform="translate(604.991813 416.423306) scale(0.18 -0.18)">
     <use xlink:href="#DejaVuSans-Bold-70"/>
     <use xlink:href="#DejaVuSans-Bold-72" transform="translate(71.582031 0)"/>
     <use xlink:href="#DejaVuSans-Bold-65" transform="translate(120.898438 0)"/>
     <use xlink:href="#DejaVuSans-Bold-76" transform="translate(188.720703 0)"/>
     <use xlink:href="#DejaVuSans-Bold-69" transform="translate(253.90625 0)"/>
     <use xlink:href="#DejaVuSans-Bold-6f" transform="translate(288.183594 0)"/>
     <use xlink:href="#DejaVuSans-Bold-75" transform="translate(356.884766 0)"/>
     <use xlink:href="#DejaVuSans-Bold-73" transform="translate(428.076172 0)"/>
     <use xlink:href="#DejaVuSans-Bold-20" transform="translate(487.597656 0)"/>
     <use xlink:href="#DejaVuSans-Bold-63" transform="translate(522.412109 0)"/>
     <use xlink:href="#DejaVuSans-Bold-61" transform="translate(581.689453 0)"/>
     <use xlink:href="#DejaVuSans-Bold-63" transform="translate(649.169922 0)"/>
     <use xlink:href="#DejaVuSans-Bold-68" transform="translate(708.447266 0)"/>
     <use xlink:href="#DejaVuSans-Bold-65" transform="translate(779.638672 0)"/>
    </g>
   </g>
  </g>
 </g>
 <defs>
  <clipPath id="p9dd76442c0">
   <rect x="7.2" y="7.2" width="892.8" height="498.96"/>
  </clipPath>
 </defs>
</svg>
