<?xml version="1.0" encoding="utf-8" standalone="no"?>
<!DOCTYPE svg PUBLIC "-//W3C//DTD SVG 1.1//EN"
  "http://www.w3.org/Graphics/SVG/1.1/DTD/svg11.dtd">
<svg xmlns:xlink="http://www.w3.org/1999/xlink" width="907.2pt" height="513.36pt" viewBox="0 0 907.2 513.36" xmlns="http://www.w3.org/2000/svg" version="1.1">
 <metadata>
  <rdf:RDF xmlns:dc="http://purl.org/dc/elements/1.1/" xmlns:cc="http://creativecommons.org/ns#" xmlns:rdf="http://www.w3.org/1999/02/22-rdf-syntax-ns#">
   <cc:Work>
    <dc:type rdf:resource="http://purl.org/dc/dcmitype/StillImage"/>
    <dc:date>2026-05-06T22:43:56.796637</dc:date>
    <dc:format>image/svg+xml</dc:format>
    <dc:creator>
     <cc:Agent>
      <dc:title>Matplotlib v3.10.9, https://matplotlib.org/</dc:title>
     </cc:Agent>
    </dc:creator>
   </cc:Work>
  </rdf:RDF>
 </metadata>
 <defs>
  <style type="text/css">*{stroke-linejoin: round; stroke-linecap: butt}</style>
 </defs>
 <g id="figure_1">
  <g id="patch_1">
   <path d="M 0 513.36 
L 907.2 513.36 
L 907.2 -0 
L 0 -0 
z
" style="fill: #ffffff"/>
  </g>
  <g id="axes_1">
   <g id="patch_2">
    <path d="M 78.624 229.2372 
L 266.112 229.2372 
Q 297.36 229.2372 297.36 211.7736 
L 297.36 141.9192 
Q 297.36 124.4556 266.112 124.4556 
L 78.624 124.4556 
Q 47.376 124.4556 47.376 141.9192 
L 47.376 211.7736 
Q 47.376 229.2372 78.624 229.2372 
z
" clip-path="url(#pb14fc64435)" style="fill: #f5f7fb; stroke: #3b5b7c; stroke-width: 2.2; stroke-linejoin: miter"/>
   </g>
   <g id="patch_3">
    <path d="M 346.464 229.2372 
L 533.952 229.2372 
Q 565.2 229.2372 565.2 211.7736 
L 565.2 141.9192 
Q 565.2 124.4556 533.952 124.4556 
L 346.464 124.4556 
Q 315.216 124.4556 315.216 141.9192 
L 315.216 211.7736 
Q 315.216 229.2372 346.464 229.2372 
z
" clip-path="url(#pb14fc64435)" style="fill: #f5f7fb; stroke: #3b5b7c; stroke-width: 2.2; stroke-linejoin: miter"/>
   </g>
   <g id="patch_4">
    <path d="M 614.304 229.2372 
L 801.792 229.2372 
Q 833.04 229.2372 833.04 211.7736 
L 833.04 141.9192 
Q 833.04 124.4556 801.792 124.4556 
L 614.304 124.4556 
Q 583.056 124.4556 583.056 141.9192 
L 583.056 211.7736 
Q 583.056 229.2372 614.304 229.2372 
z
" clip-path="url(#pb14fc64435)" style="fill: #f5f7fb; stroke: #3b5b7c; stroke-width: 2.2; stroke-linejoin: miter"/>
   </g>
   <g id="patch_5">
    <path d="M 78.624 378.9252 
L 266.112 378.9252 
Q 297.36 378.9252 297.36 361.4616 
L 297.36 291.6072 
Q 297.36 274.1436 266.112 274.1436 
L 78.624 274.1436 
Q 47.376 274.1436 47.376 291.6072 
L 47.376 361.4616 
Q 47.376 378.9252 78.624 378.9252 
z
" clip-path="url(#pb14fc64435)" style="fill: #f5f7fb; stroke: #3b5b7c; stroke-width: 2.2; stroke-linejoin: miter"/>
   </g>
   <g id="patch_6">
    <path d="M 346.464 378.9252 
L 533.952 378.9252 
Q 565.2 378.9252 565.2 361.4616 
L 565.2 291.6072 
Q 565.2 274.1436 533.952 274.1436 
L 346.464 274.1436 
Q 315.216 274.1436 315.216 291.6072 
L 315.216 361.4616 
Q 315.216 378.9252 346.464 378.9252 
z
" clip-path="url(#pb14fc64435)" style="fill: #f5f7fb; stroke: #3b5b7c; stroke-width: 2.2; stroke-linejoin: miter"/>
   </g>
   <g id="patch_7">
    <path d="M 614.304 378.9252 
L 801.792 378.9252 
Q 833.04 378.9252 833.04 361.4616 
L 833.04 291.6072 
Q 833.04 274.1436 801.792 274.1436 
L 614.304 274.1436 
Q 583.056 274.1436 583.056 291.6072 
L 583.056 361.4616 
Q 583.056 378.9252 614.304 378.9252 
z
" clip-path="url(#pb14fc64435)" style="fill: #f5f7fb; stroke: #3b5b7c; stroke-width: 2.2; stroke-linejoin: miter"/>
   </g>
   <g id="text_1">
    <!-- Experimental Protocol -->
    <g transform="translate(33.984 47.1168) scale(0.3 -0.3)">
     <defs>
      <path id="DejaVuSans-Bold-45" d="M 588 4666 
L 3834 4666 
L 3834 3756 
L 1791 3756 
L 1791 2888 
L 3713 2888 
L 3713 1978 
L 1791 1978 
L 1791 909 
L 3903 909 
L 3903 0 
L 588 0 
L 588 4666 
z
" transform="scale(0.015625)"/>
      <path id="DejaVuSans-Bold-78" d="M 1422 1791 
L 159 3500 
L 1344 3500 
L 2059 2463 
L 2784 3500 
L 3969 3500 
L 2706 1797 
L 4031 0 
L 2847 0 
L 2059 1106 
L 1281 0 
L 97 0 
L 1422 1791 
z
" transform="scale(0.015625)"/>
      <path id="DejaVuSans-Bold-70" d="M 1656 506 
L 1656 -1331 
L 538 -1331 
L 538 3500 
L 1656 3500 
L 1656 2988 
Q 1888 3294 2169 3439 
Q 2450 3584 2816 3584 
Q 3463 3584 3878 3070 
Q 4294 2556 4294 1747 
Q 4294 938 3878 423 
Q 3463 -91 2816 -91 
Q 2450 -91 2169 54 
Q 1888 200 1656 506 
z
M 2400 2772 
Q 2041 2772 1848 2508 
Q 1656 2244 1656 1747 
Q 1656 1250 1848 986 
Q 2041 722 2400 722 
Q 2759 722 2948 984 
Q 3138 1247 3138 1747 
Q 3138 2247 2948 2509 
Q 2759 2772 2400 2772 
z
" transform="scale(0.015625)"/>
      <path id="DejaVuSans-Bold-65" d="M 4031 1759 
L 4031 1441 
L 1416 1441 
Q 1456 1047 1700 850 
Q 1944 653 2381 653 
Q 2734 653 3104 758 
Q 3475 863 3866 1075 
L 3866 213 
Q 3469 63 3072 -14 
Q 2675 -91 2278 -91 
Q 1328 -91 801 392 
Q 275 875 275 1747 
Q 275 2603 792 3093 
Q 1309 3584 2216 3584 
Q 3041 3584 3536 3087 
Q 4031 2591 4031 1759 
z
M 2881 2131 
Q 2881 2450 2695 2645 
Q 2509 2841 2209 2841 
Q 1884 2841 1681 2658 
Q 1478 2475 1428 2131 
L 2881 2131 
z
" transform="scale(0.015625)"/>
      <path id="DejaVuSans-Bold-72" d="M 3138 2547 
Q 2991 2616 2845 2648 
Q 2700 2681 2553 2681 
Q 2122 2681 1889 2404 
Q 1656 2128 1656 1613 
L 1656 0 
L 538 0 
L 538 3500 
L 1656 3500 
L 1656 2925 
Q 1872 3269 2151 3426 
Q 2431 3584 2822 3584 
Q 2878 3584 2943 3579 
Q 3009 3575 3134 3559 
L 3138 2547 
z
" transform="scale(0.015625)"/>
      <path id="DejaVuSans-Bold-69" d="M 538 3500 
L 1656 3500 
L 1656 0 
L 538 0 
L 538 3500 
z
M 538 4863 
L 1656 4863 
L 1656 3950 
L 538 3950 
L 538 4863 
z
" transform="scale(0.015625)"/>
      <path id="DejaVuSans-Bold-6d" d="M 3781 2919 
Q 3994 3244 4286 3414 
Q 4578 3584 4928 3584 
Q 5531 3584 5847 3212 
Q 6163 2841 6163 2131 
L 6163 0 
L 5038 0 
L 5038 1825 
Q 5041 1866 5042 1909 
Q 5044 1953 5044 2034 
Q 5044 2406 4934 2573 
Q 4825 2741 4581 2741 
Q 4263 2741 4089 2478 
Q 3916 2216 3909 1719 
L 3909 0 
L 2784 0 
L 2784 1825 
Q 2784 2406 2684 2573 
Q 2584 2741 2328 2741 
Q 2006 2741 1831 2477 
Q 1656 2213 1656 1722 
L 1656 0 
L 531 0 
L 531 3500 
L 1656 3500 
L 1656 2988 
Q 1863 3284 2130 3434 
Q 2397 3584 2719 3584 
Q 3081 3584 3359 3409 
Q 3638 3234 3781 2919 
z
" transform="scale(0.015625)"/>
      <path id="DejaVuSans-Bold-6e" d="M 4056 2131 
L 4056 0 
L 2931 0 
L 2931 347 
L 2931 1631 
Q 2931 2084 2911 2256 
Q 2891 2428 2841 2509 
Q 2775 2619 2662 2680 
Q 2550 2741 2406 2741 
Q 2056 2741 1856 2470 
Q 1656 2200 1656 1722 
L 1656 0 
L 538 0 
L 538 3500 
L 1656 3500 
L 1656 2988 
Q 1909 3294 2193 3439 
Q 2478 3584 2822 3584 
Q 3428 3584 3742 3212 
Q 4056 2841 4056 2131 
z
" transform="scale(0.015625)"/>
      <path id="DejaVuSans-Bold-74" d="M 1759 4494 
L 1759 3500 
L 2913 3500 
L 2913 2700 
L 1759 2700 
L 1759 1216 
Q 1759 972 1856 886 
Q 1953 800 2241 800 
L 2816 800 
L 2816 0 
L 1856 0 
Q 1194 0 917 276 
Q 641 553 641 1216 
L 641 2700 
L 84 2700 
L 84 3500 
L 641 3500 
L 641 4494 
L 1759 4494 
z
" transform="scale(0.015625)"/>
      <path id="DejaVuSans-Bold-61" d="M 2106 1575 
Q 1756 1575 1579 1456 
Q 1403 1338 1403 1106 
Q 1403 894 1545 773 
Q 1688 653 1941 653 
Q 2256 653 2472 879 
Q 2688 1106 2688 1447 
L 2688 1575 
L 2106 1575 
z
M 3816 1997 
L 3816 0 
L 2688 0 
L 2688 519 
Q 2463 200 2181 54 
Q 1900 -91 1497 -91 
Q 953 -91 614 226 
Q 275 544 275 1050 
Q 275 1666 698 1953 
Q 1122 2241 2028 2241 
L 2688 2241 
L 2688 2328 
Q 2688 2594 2478 2717 
Q 2269 2841 1825 2841 
Q 1466 2841 1156 2769 
Q 847 2697 581 2553 
L 581 3406 
Q 941 3494 1303 3539 
Q 1666 3584 2028 3584 
Q 2975 3584 3395 3211 
Q 3816 2838 3816 1997 
z
" transform="scale(0.015625)"/>
      <path id="DejaVuSans-Bold-6c" d="M 538 4863 
L 1656 4863 
L 1656 0 
L 538 0 
L 538 4863 
z
" transform="scale(0.015625)"/>
      <path id="DejaVuSans-Bold-20" transform="scale(0.015625)"/>
      <path id="DejaVuSans-Bold-50" d="M 588 4666 
L 2584 4666 
Q 3475 4666 3951 4270 
Q 4428 3875 4428 3144 
Q 4428 2409 3951 2014 
Q 3475 1619 2584 1619 
L 1791 1619 
L 1791 0 
L 588 0 
L 588 4666 
z
M 1791 3794 
L 1791 2491 
L 2456 2491 
Q 2806 2491 2997 2661 
Q 3188 2831 3188 3144 
Q 3188 3456 2997 3625 
Q 2806 3794 2456 3794 
L 1791 3794 
z
" transform="scale(0.015625)"/>
      <path id="DejaVuSans-Bold-6f" d="M 2203 2784 
Q 1831 2784 1636 2517 
Q 1441 2250 1441 1747 
Q 1441 1244 1636 976 
Q 1831 709 2203 709 
Q 2569 709 2762 976 
Q 2956 1244 2956 1747 
Q 2956 2250 2762 2517 
Q 2569 2784 2203 2784 
z
M 2203 3584 
Q 3106 3584 3614 3096 
Q 4122 2609 4122 1747 
Q 4122 884 3614 396 
Q 3106 -91 2203 -91 
Q 1297 -91 786 396 
Q 275 884 275 1747 
Q 275 2609 786 3096 
Q 1297 3584 2203 3584 
z
" transform="scale(0.015625)"/>
      <path id="DejaVuSans-Bold-63" d="M 3366 3391 
L 3366 2478 
Q 3138 2634 2908 2709 
Q 2678 2784 2431 2784 
Q 1963 2784 1702 2511 
Q 1441 2238 1441 1747 
Q 1441 1256 1702 982 
Q 1963 709 2431 709 
Q 2694 709 2930 787 
Q 3166 866 3366 1019 
L 3366 103 
Q 3103 6 2833 -42 
Q 2563 -91 2291 -91 
Q 1344 -91 809 395 
Q 275 881 275 1747 
Q 275 2613 809 3098 
Q 1344 3584 2291 3584 
Q 2566 3584 2833 3536 
Q 3100 3488 3366 3391 
z
" transform="scale(0.015625)"/>
     </defs>
     <use xlink:href="#DejaVuSans-Bold-45"/>
     <use xlink:href="#DejaVuSans-Bold-78" transform="translate(68.310547 0)"/>
     <use xlink:href="#DejaVuSans-Bold-70" transform="translate(132.8125 0)"/>
     <use xlink:href="#DejaVuSans-Bold-65" transform="translate(204.394531 0)"/>
     <use xlink:href="#DejaVuSans-Bold-72" transform="translate(272.216797 0)"/>
     <use xlink:href="#DejaVuSans-Bold-69" transform="translate(321.533203 0)"/>
     <use xlink:href="#DejaVuSans-Bold-6d" transform="translate(355.810547 0)"/>
     <use xlink:href="#DejaVuSans-Bold-65" transform="translate(460.009766 0)"/>
     <use xlink:href="#DejaVuSans-Bold-6e" transform="translate(527.832031 0)"/>
     <use xlink:href="#DejaVuSans-Bold-74" transform="translate(599.023438 0)"/>
     <use xlink:href="#DejaVuSans-Bold-61" transform="translate(646.826172 0)"/>
     <use xlink:href="#DejaVuSans-Bold-6c" transform="translate(714.306641 0)"/>
     <use xlink:href="#DejaVuSans-Bold-20" transform="translate(748.583984 0)"/>
     <use xlink:href="#DejaVuSans-Bold-50" transform="translate(783.398438 0)"/>
     <use xlink:href="#DejaVuSans-Bold-72" transform="translate(856.689453 0)"/>
     <use xlink:href="#DejaVuSans-Bold-6f" transform="translate(906.005859 0)"/>
     <use xlink:href="#DejaVuSans-Bold-74" transform="translate(974.707031 0)"/>
     <use xlink:href="#DejaVuSans-Bold-6f" transform="translate(1022.509766 0)"/>
     <use xlink:href="#DejaVuSans-Bold-63" transform="translate(1091.210938 0)"/>
     <use xlink:href="#DejaVuSans-Bold-6f" transform="translate(1150.488281 0)"/>
     <use xlink:href="#DejaVuSans-Bold-6c" transform="translate(1219.189453 0)"/>
    </g>
   </g>
   <g id="text_2">
    <!-- Topology -->
    <g transform="translate(127.034719 161.516588) scale(0.18 -0.18)">
     <defs>
      <path id="DejaVuSans-Bold-54" d="M 31 4666 
L 4331 4666 
L 4331 3756 
L 2784 3756 
L 2784 0 
L 1581 0 
L 1581 3756 
L 31 3756 
L 31 4666 
z
" transform="scale(0.015625)"/>
      <path id="DejaVuSans-Bold-67" d="M 2919 594 
Q 2688 288 2409 144 
Q 2131 0 1766 0 
Q 1125 0 706 504 
Q 288 1009 288 1791 
Q 288 2575 706 3076 
Q 1125 3578 1766 3578 
Q 2131 3578 2409 3434 
Q 2688 3291 2919 2981 
L 2919 3500 
L 4044 3500 
L 4044 353 
Q 4044 -491 3511 -936 
Q 2978 -1381 1966 -1381 
Q 1638 -1381 1331 -1331 
Q 1025 -1281 716 -1178 
L 716 -306 
Q 1009 -475 1290 -558 
Q 1572 -641 1856 -641 
Q 2406 -641 2662 -400 
Q 2919 -159 2919 353 
L 2919 594 
z
M 2181 2772 
Q 1834 2772 1640 2515 
Q 1447 2259 1447 1791 
Q 1447 1309 1634 1061 
Q 1822 813 2181 813 
Q 2531 813 2725 1069 
Q 2919 1325 2919 1791 
Q 2919 2259 2725 2515 
Q 2531 2772 2181 2772 
z
" transform="scale(0.015625)"/>
      <path id="DejaVuSans-Bold-79" d="M 78 3500 
L 1197 3500 
L 2138 1125 
L 2938 3500 
L 4056 3500 
L 2584 -331 
Q 2363 -916 2067 -1148 
Q 1772 -1381 1288 -1381 
L 641 -1381 
L 641 -647 
L 991 -647 
Q 1275 -647 1404 -556 
Q 1534 -466 1606 -231 
L 1638 -134 
L 78 3500 
z
" transform="scale(0.015625)"/>
     </defs>
     <use xlink:href="#DejaVuSans-Bold-54"/>
     <use xlink:href="#DejaVuSans-Bold-6f" transform="translate(54.962891 0)"/>
     <use xlink:href="#DejaVuSans-Bold-70" transform="translate(123.664062 0)"/>
     <use xlink:href="#DejaVuSans-Bold-6f" transform="translate(195.246094 0)"/>
     <use xlink:href="#DejaVuSans-Bold-6c" transform="translate(263.947266 0)"/>
     <use xlink:href="#DejaVuSans-Bold-6f" transform="translate(298.224609 0)"/>
     <use xlink:href="#DejaVuSans-Bold-67" transform="translate(366.925781 0)"/>
     <use xlink:href="#DejaVuSans-Bold-79" transform="translate(438.507812 0)"/>
    </g>
    <!-- 20 AP nodes -->
    <g transform="translate(109.522687 181.813275) scale(0.18 -0.18)">
     <defs>
      <path id="DejaVuSans-Bold-32" d="M 1844 884 
L 3897 884 
L 3897 0 
L 506 0 
L 506 884 
L 2209 2388 
Q 2438 2594 2547 2791 
Q 2656 2988 2656 3200 
Q 2656 3528 2436 3728 
Q 2216 3928 1850 3928 
Q 1569 3928 1234 3808 
Q 900 3688 519 3450 
L 519 4475 
Q 925 4609 1322 4679 
Q 1719 4750 2100 4750 
Q 2938 4750 3402 4381 
Q 3866 4013 3866 3353 
Q 3866 2972 3669 2642 
Q 3472 2313 2841 1759 
L 1844 884 
z
" transform="scale(0.015625)"/>
      <path id="DejaVuSans-Bold-30" d="M 2944 2338 
Q 2944 3213 2780 3570 
Q 2616 3928 2228 3928 
Q 1841 3928 1675 3570 
Q 1509 3213 1509 2338 
Q 1509 1453 1675 1090 
Q 1841 728 2228 728 
Q 2613 728 2778 1090 
Q 2944 1453 2944 2338 
z
M 4147 2328 
Q 4147 1169 3647 539 
Q 3147 -91 2228 -91 
Q 1306 -91 806 539 
Q 306 1169 306 2328 
Q 306 3491 806 4120 
Q 1306 4750 2228 4750 
Q 3147 4750 3647 4120 
Q 4147 3491 4147 2328 
z
" transform="scale(0.015625)"/>
      <path id="DejaVuSans-Bold-41" d="M 3419 850 
L 1538 850 
L 1241 0 
L 31 0 
L 1759 4666 
L 3194 4666 
L 4922 0 
L 3713 0 
L 3419 850 
z
M 1838 1716 
L 3116 1716 
L 2478 3572 
L 1838 1716 
z
" transform="scale(0.015625)"/>
      <path id="DejaVuSans-Bold-64" d="M 2919 2988 
L 2919 4863 
L 4044 4863 
L 4044 0 
L 2919 0 
L 2919 506 
Q 2688 197 2409 53 
Q 2131 -91 1766 -91 
Q 1119 -91 703 423 
Q 288 938 288 1747 
Q 288 2556 703 3070 
Q 1119 3584 1766 3584 
Q 2128 3584 2408 3439 
Q 2688 3294 2919 2988 
z
M 2181 722 
Q 2541 722 2730 984 
Q 2919 1247 2919 1747 
Q 2919 2247 2730 2509 
Q 2541 2772 2181 2772 
Q 1825 2772 1636 2509 
Q 1447 2247 1447 1747 
Q 1447 1247 1636 984 
Q 1825 722 2181 722 
z
" transform="scale(0.015625)"/>
      <path id="DejaVuSans-Bold-73" d="M 3272 3391 
L 3272 2541 
Q 2913 2691 2578 2766 
Q 2244 2841 1947 2841 
Q 1628 2841 1473 2761 
Q 1319 2681 1319 2516 
Q 1319 2381 1436 2309 
Q 1553 2238 1856 2203 
L 2053 2175 
Q 2913 2066 3209 1816 
Q 3506 1566 3506 1031 
Q 3506 472 3093 190 
Q 2681 -91 1863 -91 
Q 1516 -91 1145 -36 
Q 775 19 384 128 
L 384 978 
Q 719 816 1070 734 
Q 1422 653 1784 653 
Q 2113 653 2278 743 
Q 2444 834 2444 1013 
Q 2444 1163 2330 1236 
Q 2216 1309 1875 1350 
L 1678 1375 
Q 931 1469 631 1722 
Q 331 1975 331 2491 
Q 331 3047 712 3315 
Q 1094 3584 1881 3584 
Q 2191 3584 2531 3537 
Q 2872 3491 3272 3391 
z
" transform="scale(0.015625)"/>
     </defs>
     <use xlink:href="#DejaVuSans-Bold-32"/>
     <use xlink:href="#DejaVuSans-Bold-30" transform="translate(69.580078 0)"/>
     <use xlink:href="#DejaVuSans-Bold-20" transform="translate(139.160156 0)"/>
     <use xlink:href="#DejaVuSans-Bold-41" transform="translate(173.974609 0)"/>
     <use xlink:href="#DejaVuSans-Bold-50" transform="translate(251.367188 0)"/>
     <use xlink:href="#DejaVuSans-Bold-20" transform="translate(324.658203 0)"/>
     <use xlink:href="#DejaVuSans-Bold-6e" transform="translate(359.472656 0)"/>
     <use xlink:href="#DejaVuSans-Bold-6f" transform="translate(430.664062 0)"/>
     <use xlink:href="#DejaVuSans-Bold-64" transform="translate(499.365234 0)"/>
     <use xlink:href="#DejaVuSans-Bold-65" transform="translate(570.947266 0)"/>
     <use xlink:href="#DejaVuSans-Bold-73" transform="translate(638.769531 0)"/>
    </g>
    <!-- 190 edges -->
    <g transform="translate(119.99925 201.969337) scale(0.18 -0.18)">
     <defs>
      <path id="DejaVuSans-Bold-31" d="M 750 831 
L 1813 831 
L 1813 3847 
L 722 3622 
L 722 4441 
L 1806 4666 
L 2950 4666 
L 2950 831 
L 4013 831 
L 4013 0 
L 750 0 
L 750 831 
z
" transform="scale(0.015625)"/>
      <path id="DejaVuSans-Bold-39" d="M 641 103 
L 641 966 
Q 928 831 1190 764 
Q 1453 697 1709 697 
Q 2247 697 2547 995 
Q 2847 1294 2900 1881 
Q 2688 1725 2447 1647 
Q 2206 1569 1925 1569 
Q 1209 1569 770 1986 
Q 331 2403 331 3084 
Q 331 3838 820 4291 
Q 1309 4744 2131 4744 
Q 3044 4744 3544 4128 
Q 4044 3513 4044 2388 
Q 4044 1231 3459 570 
Q 2875 -91 1856 -91 
Q 1528 -91 1228 -42 
Q 928 6 641 103 
z
M 2125 2350 
Q 2441 2350 2600 2554 
Q 2759 2759 2759 3169 
Q 2759 3575 2600 3781 
Q 2441 3988 2125 3988 
Q 1809 3988 1650 3781 
Q 1491 3575 1491 3169 
Q 1491 2759 1650 2554 
Q 1809 2350 2125 2350 
z
" transform="scale(0.015625)"/>
     </defs>
     <use xlink:href="#DejaVuSans-Bold-31"/>
     <use xlink:href="#DejaVuSans-Bold-39" transform="translate(69.580078 0)"/>
     <use xlink:href="#DejaVuSans-Bold-30" transform="translate(139.160156 0)"/>
     <use xlink:href="#DejaVuSans-Bold-20" transform="translate(208.740234 0)"/>
     <use xlink:href="#DejaVuSans-Bold-65" transform="translate(243.554688 0)"/>
     <use xlink:href="#DejaVuSans-Bold-64" transform="translate(311.376953 0)"/>
     <use xlink:href="#DejaVuSans-Bold-67" transform="translate(382.958984 0)"/>
     <use xlink:href="#DejaVuSans-Bold-65" transform="translate(454.541016 0)"/>
     <use xlink:href="#DejaVuSans-Bold-73" transform="translate(522.363281 0)"/>
    </g>
   </g>
   <g id="text_3">
    <!-- Catalog -->
    <g transform="translate(401.443312 161.516588) scale(0.18 -0.18)">
     <defs>
      <path id="DejaVuSans-Bold-43" d="M 4288 256 
Q 3956 84 3597 -3 
Q 3238 -91 2847 -91 
Q 1681 -91 1000 561 
Q 319 1213 319 2328 
Q 319 3447 1000 4098 
Q 1681 4750 2847 4750 
Q 3238 4750 3597 4662 
Q 3956 4575 4288 4403 
L 4288 3438 
Q 3953 3666 3628 3772 
Q 3303 3878 2944 3878 
Q 2300 3878 1931 3465 
Q 1563 3053 1563 2328 
Q 1563 1606 1931 1193 
Q 2300 781 2944 781 
Q 3303 781 3628 887 
Q 3953 994 4288 1222 
L 4288 256 
z
" transform="scale(0.015625)"/>
     </defs>
     <use xlink:href="#DejaVuSans-Bold-43"/>
     <use xlink:href="#DejaVuSans-Bold-61" transform="translate(73.388672 0)"/>
     <use xlink:href="#DejaVuSans-Bold-74" transform="translate(140.869141 0)"/>
     <use xlink:href="#DejaVuSans-Bold-61" transform="translate(188.671875 0)"/>
     <use xlink:href="#DejaVuSans-Bold-6c" transform="translate(256.152344 0)"/>
     <use xlink:href="#DejaVuSans-Bold-6f" transform="translate(290.429688 0)"/>
     <use xlink:href="#DejaVuSans-Bold-67" transform="translate(359.130859 0)"/>
    </g>
    <!-- 48 objects -->
    <g transform="translate(387.742219 181.813275) scale(0.18 -0.18)">
     <defs>
      <path id="DejaVuSans-Bold-34" d="M 2356 3675 
L 1038 1722 
L 2356 1722 
L 2356 3675 
z
M 2156 4666 
L 3494 4666 
L 3494 1722 
L 4159 1722 
L 4159 850 
L 3494 850 
L 3494 0 
L 2356 0 
L 2356 850 
L 288 850 
L 288 1881 
L 2156 4666 
z
" transform="scale(0.015625)"/>
      <path id="DejaVuSans-Bold-38" d="M 2228 2088 
Q 1891 2088 1709 1903 
Q 1528 1719 1528 1375 
Q 1528 1031 1709 848 
Q 1891 666 2228 666 
Q 2563 666 2741 848 
Q 2919 1031 2919 1375 
Q 2919 1722 2741 1905 
Q 2563 2088 2228 2088 
z
M 1350 2484 
Q 925 2613 709 2878 
Q 494 3144 494 3541 
Q 494 4131 934 4440 
Q 1375 4750 2228 4750 
Q 3075 4750 3515 4442 
Q 3956 4134 3956 3541 
Q 3956 3144 3739 2878 
Q 3522 2613 3097 2484 
Q 3572 2353 3814 2058 
Q 4056 1763 4056 1313 
Q 4056 619 3595 264 
Q 3134 -91 2228 -91 
Q 1319 -91 855 264 
Q 391 619 391 1313 
Q 391 1763 633 2058 
Q 875 2353 1350 2484 
z
M 1631 3419 
Q 1631 3141 1786 2991 
Q 1941 2841 2228 2841 
Q 2509 2841 2662 2991 
Q 2816 3141 2816 3419 
Q 2816 3697 2662 3845 
Q 2509 3994 2228 3994 
Q 1941 3994 1786 3844 
Q 1631 3694 1631 3419 
z
" transform="scale(0.015625)"/>
      <path id="DejaVuSans-Bold-62" d="M 2400 722 
Q 2759 722 2948 984 
Q 3138 1247 3138 1747 
Q 3138 2247 2948 2509 
Q 2759 2772 2400 2772 
Q 2041 2772 1848 2508 
Q 1656 2244 1656 1747 
Q 1656 1250 1848 986 
Q 2041 722 2400 722 
z
M 1656 2988 
Q 1888 3294 2169 3439 
Q 2450 3584 2816 3584 
Q 3463 3584 3878 3070 
Q 4294 2556 4294 1747 
Q 4294 938 3878 423 
Q 3463 -91 2816 -91 
Q 2450 -91 2169 54 
Q 1888 200 1656 506 
L 1656 0 
L 538 0 
L 538 4863 
L 1656 4863 
L 1656 2988 
z
" transform="scale(0.015625)"/>
      <path id="DejaVuSans-Bold-6a" d="M 538 3500 
L 1656 3500 
L 1656 63 
Q 1656 -641 1318 -1011 
Q 981 -1381 341 -1381 
L -213 -1381 
L -213 -647 
L -19 -647 
Q 300 -647 419 -503 
Q 538 -359 538 63 
L 538 3500 
z
M 538 4863 
L 1656 4863 
L 1656 3950 
L 538 3950 
L 538 4863 
z
" transform="scale(0.015625)"/>
     </defs>
     <use xlink:href="#DejaVuSans-Bold-34"/>
     <use xlink:href="#DejaVuSans-Bold-38" transform="translate(69.580078 0)"/>
     <use xlink:href="#DejaVuSans-Bold-20" transform="translate(139.160156 0)"/>
     <use xlink:href="#DejaVuSans-Bold-6f" transform="translate(173.974609 0)"/>
     <use xlink:href="#DejaVuSans-Bold-62" transform="translate(242.675781 0)"/>
     <use xlink:href="#DejaVuSans-Bold-6a" transform="translate(314.257812 0)"/>
     <use xlink:href="#DejaVuSans-Bold-65" transform="translate(348.535156 0)"/>
     <use xlink:href="#DejaVuSans-Bold-63" transform="translate(416.357422 0)"/>
     <use xlink:href="#DejaVuSans-Bold-74" transform="translate(475.634766 0)"/>
     <use xlink:href="#DejaVuSans-Bold-73" transform="translate(523.4375 0)"/>
    </g>
    <!-- K=5 -->
    <g transform="translate(419.430656 202.109962) scale(0.18 -0.18)">
     <defs>
      <path id="DejaVuSans-Bold-4b" d="M 588 4666 
L 1791 4666 
L 1791 2963 
L 3525 4666 
L 4922 4666 
L 2675 2456 
L 5153 0 
L 3647 0 
L 1791 1838 
L 1791 0 
L 588 0 
L 588 4666 
z
" transform="scale(0.015625)"/>
      <path id="DejaVuSans-Bold-3d" d="M 678 3084 
L 4684 3084 
L 4684 2350 
L 678 2350 
L 678 3084 
z
M 678 1663 
L 4684 1663 
L 4684 922 
L 678 922 
L 678 1663 
z
" transform="scale(0.015625)"/>
      <path id="DejaVuSans-Bold-35" d="M 678 4666 
L 3669 4666 
L 3669 3781 
L 1638 3781 
L 1638 3059 
Q 1775 3097 1914 3117 
Q 2053 3138 2203 3138 
Q 3056 3138 3531 2711 
Q 4006 2284 4006 1522 
Q 4006 766 3489 337 
Q 2972 -91 2053 -91 
Q 1656 -91 1267 -14 
Q 878 63 494 219 
L 494 1166 
Q 875 947 1217 837 
Q 1559 728 1863 728 
Q 2300 728 2551 942 
Q 2803 1156 2803 1522 
Q 2803 1891 2551 2103 
Q 2300 2316 1863 2316 
Q 1603 2316 1309 2248 
Q 1016 2181 678 2041 
L 678 4666 
z
" transform="scale(0.015625)"/>
     </defs>
     <use xlink:href="#DejaVuSans-Bold-4b"/>
     <use xlink:href="#DejaVuSans-Bold-3d" transform="translate(77.490234 0)"/>
     <use xlink:href="#DejaVuSans-Bold-35" transform="translate(161.279297 0)"/>
    </g>
   </g>
   <g id="text_4">
    <!-- Demand -->
    <g transform="translate(666.171281 161.5869) scale(0.18 -0.18)">
     <defs>
      <path id="DejaVuSans-Bold-44" d="M 1791 3756 
L 1791 909 
L 2222 909 
Q 2959 909 3348 1275 
Q 3738 1641 3738 2338 
Q 3738 3031 3350 3393 
Q 2963 3756 2222 3756 
L 1791 3756 
z
M 588 4666 
L 1856 4666 
Q 2919 4666 3439 4514 
Q 3959 4363 4331 4000 
Q 4659 3684 4818 3271 
Q 4978 2859 4978 2338 
Q 4978 1809 4818 1395 
Q 4659 981 4331 666 
Q 3956 303 3431 151 
Q 2906 0 1856 0 
L 588 0 
L 588 4666 
z
" transform="scale(0.015625)"/>
     </defs>
     <use xlink:href="#DejaVuSans-Bold-44"/>
     <use xlink:href="#DejaVuSans-Bold-65" transform="translate(83.007812 0)"/>
     <use xlink:href="#DejaVuSans-Bold-6d" transform="translate(150.830078 0)"/>
     <use xlink:href="#DejaVuSans-Bold-61" transform="translate(255.029297 0)"/>
     <use xlink:href="#DejaVuSans-Bold-6e" transform="translate(322.509766 0)"/>
     <use xlink:href="#DejaVuSans-Bold-64" transform="translate(393.701172 0)"/>
    </g>
    <!-- Zipf alpha=0.85 -->
    <g transform="translate(627.118312 181.742963) scale(0.18 -0.18)">
     <defs>
      <path id="DejaVuSans-Bold-5a" d="M 359 4666 
L 4281 4666 
L 4281 3938 
L 1778 909 
L 4353 909 
L 4353 0 
L 288 0 
L 288 728 
L 2791 3756 
L 359 3756 
L 359 4666 
z
" transform="scale(0.015625)"/>
      <path id="DejaVuSans-Bold-66" d="M 2841 4863 
L 2841 4128 
L 2222 4128 
Q 1984 4128 1890 4042 
Q 1797 3956 1797 3744 
L 1797 3500 
L 2753 3500 
L 2753 2700 
L 1797 2700 
L 1797 0 
L 678 0 
L 678 2700 
L 122 2700 
L 122 3500 
L 678 3500 
L 678 3744 
Q 678 4316 997 4589 
Q 1316 4863 1984 4863 
L 2841 4863 
z
" transform="scale(0.015625)"/>
      <path id="DejaVuSans-Bold-68" d="M 4056 2131 
L 4056 0 
L 2931 0 
L 2931 347 
L 2931 1625 
Q 2931 2084 2911 2256 
Q 2891 2428 2841 2509 
Q 2775 2619 2662 2680 
Q 2550 2741 2406 2741 
Q 2056 2741 1856 2470 
Q 1656 2200 1656 1722 
L 1656 0 
L 538 0 
L 538 4863 
L 1656 4863 
L 1656 2988 
Q 1909 3294 2193 3439 
Q 2478 3584 2822 3584 
Q 3428 3584 3742 3212 
Q 4056 2841 4056 2131 
z
" transform="scale(0.015625)"/>
      <path id="DejaVuSans-Bold-2e" d="M 653 1209 
L 1778 1209 
L 1778 0 
L 653 0 
L 653 1209 
z
" transform="scale(0.015625)"/>
     </defs>
     <use xlink:href="#DejaVuSans-Bold-5a"/>
     <use xlink:href="#DejaVuSans-Bold-69" transform="translate(72.509766 0)"/>
     <use xlink:href="#DejaVuSans-Bold-70" transform="translate(106.787109 0)"/>
     <use xlink:href="#DejaVuSans-Bold-66" transform="translate(178.369141 0)"/>
     <use xlink:href="#DejaVuSans-Bold-20" transform="translate(221.875 0)"/>
     <use xlink:href="#DejaVuSans-Bold-61" transform="translate(256.689453 0)"/>
     <use xlink:href="#DejaVuSans-Bold-6c" transform="translate(324.169922 0)"/>
     <use xlink:href="#DejaVuSans-Bold-70" transform="translate(358.447266 0)"/>
     <use xlink:href="#DejaVuSans-Bold-68" transform="translate(430.029297 0)"/>
     <use xlink:href="#DejaVuSans-Bold-61" transform="translate(501.220703 0)"/>
     <use xlink:href="#DejaVuSans-Bold-3d" transform="translate(568.701172 0)"/>
     <use xlink:href="#DejaVuSans-Bold-30" transform="translate(652.490234 0)"/>
     <use xlink:href="#DejaVuSans-Bold-2e" transform="translate(722.070312 0)"/>
     <use xlink:href="#DejaVuSans-Bold-38" transform="translate(760.058594 0)"/>
     <use xlink:href="#DejaVuSans-Bold-35" transform="translate(829.638672 0)"/>
    </g>
    <!-- locality=2.8 -->
    <g transform="translate(647.546906 201.899025) scale(0.18 -0.18)">
     <use xlink:href="#DejaVuSans-Bold-6c"/>
     <use xlink:href="#DejaVuSans-Bold-6f" transform="translate(34.277344 0)"/>
     <use xlink:href="#DejaVuSans-Bold-63" transform="translate(102.978516 0)"/>
     <use xlink:href="#DejaVuSans-Bold-61" transform="translate(162.255859 0)"/>
     <use xlink:href="#DejaVuSans-Bold-6c" transform="translate(229.736328 0)"/>
     <use xlink:href="#DejaVuSans-Bold-69" transform="translate(264.013672 0)"/>
     <use xlink:href="#DejaVuSans-Bold-74" transform="translate(298.291016 0)"/>
     <use xlink:href="#DejaVuSans-Bold-79" transform="translate(346.09375 0)"/>
     <use xlink:href="#DejaVuSans-Bold-3d" transform="translate(411.279297 0)"/>
     <use xlink:href="#DejaVuSans-Bold-32" transform="translate(495.068359 0)"/>
     <use xlink:href="#DejaVuSans-Bold-2e" transform="translate(564.648438 0)"/>
     <use xlink:href="#DejaVuSans-Bold-38" transform="translate(602.636719 0)"/>
    </g>
   </g>
   <g id="text_5">
    <!-- Perturbation -->
    <g transform="translate(107.589094 311.345212) scale(0.18 -0.18)">
     <defs>
      <path id="DejaVuSans-Bold-75" d="M 500 1363 
L 500 3500 
L 1625 3500 
L 1625 3150 
Q 1625 2866 1622 2436 
Q 1619 2006 1619 1863 
Q 1619 1441 1641 1255 
Q 1663 1069 1716 984 
Q 1784 875 1895 815 
Q 2006 756 2150 756 
Q 2500 756 2700 1025 
Q 2900 1294 2900 1772 
L 2900 3500 
L 4019 3500 
L 4019 0 
L 2900 0 
L 2900 506 
Q 2647 200 2364 54 
Q 2081 -91 1741 -91 
Q 1134 -91 817 281 
Q 500 653 500 1363 
z
" transform="scale(0.015625)"/>
     </defs>
     <use xlink:href="#DejaVuSans-Bold-50"/>
     <use xlink:href="#DejaVuSans-Bold-65" transform="translate(73.291016 0)"/>
     <use xlink:href="#DejaVuSans-Bold-72" transform="translate(141.113281 0)"/>
     <use xlink:href="#DejaVuSans-Bold-74" transform="translate(190.429688 0)"/>
     <use xlink:href="#DejaVuSans-Bold-75" transform="translate(238.232422 0)"/>
     <use xlink:href="#DejaVuSans-Bold-72" transform="translate(309.423828 0)"/>
     <use xlink:href="#DejaVuSans-Bold-62" transform="translate(358.740234 0)"/>
     <use xlink:href="#DejaVuSans-Bold-61" transform="translate(430.322266 0)"/>
     <use xlink:href="#DejaVuSans-Bold-74" transform="translate(497.802734 0)"/>
     <use xlink:href="#DejaVuSans-Bold-69" transform="translate(545.605469 0)"/>
     <use xlink:href="#DejaVuSans-Bold-6f" transform="translate(579.882812 0)"/>
     <use xlink:href="#DejaVuSans-Bold-6e" transform="translate(648.583984 0)"/>
    </g>
    <!-- p=0.00..0.25 -->
    <g transform="translate(107.137687 331.501275) scale(0.18 -0.18)">
     <use xlink:href="#DejaVuSans-Bold-70"/>
     <use xlink:href="#DejaVuSans-Bold-3d" transform="translate(71.582031 0)"/>
     <use xlink:href="#DejaVuSans-Bold-30" transform="translate(155.371094 0)"/>
     <use xlink:href="#DejaVuSans-Bold-2e" transform="translate(224.951172 0)"/>
     <use xlink:href="#DejaVuSans-Bold-30" transform="translate(262.939453 0)"/>
     <use xlink:href="#DejaVuSans-Bold-30" transform="translate(332.519531 0)"/>
     <use xlink:href="#DejaVuSans-Bold-2e" transform="translate(402.099609 0)"/>
     <use xlink:href="#DejaVuSans-Bold-2e" transform="translate(440.087891 0)"/>
     <use xlink:href="#DejaVuSans-Bold-30" transform="translate(478.076172 0)"/>
     <use xlink:href="#DejaVuSans-Bold-2e" transform="translate(547.65625 0)"/>
     <use xlink:href="#DejaVuSans-Bold-32" transform="translate(585.644531 0)"/>
     <use xlink:href="#DejaVuSans-Bold-35" transform="translate(655.224609 0)"/>
    </g>
    <!-- 12 samples/rate -->
    <g transform="translate(90.708469 351.657337) scale(0.18 -0.18)">
     <defs>
      <path id="DejaVuSans-Bold-2f" d="M 1644 4666 
L 2338 4666 
L 691 -594 
L 0 -594 
L 1644 4666 
z
" transform="scale(0.015625)"/>
     </defs>
     <use xlink:href="#DejaVuSans-Bold-31"/>
     <use xlink:href="#DejaVuSans-Bold-32" transform="translate(69.580078 0)"/>
     <use xlink:href="#DejaVuSans-Bold-20" transform="translate(139.160156 0)"/>
     <use xlink:href="#DejaVuSans-Bold-73" transform="translate(173.974609 0)"/>
     <use xlink:href="#DejaVuSans-Bold-61" transform="translate(233.496094 0)"/>
     <use xlink:href="#DejaVuSans-Bold-6d" transform="translate(300.976562 0)"/>
     <use xlink:href="#DejaVuSans-Bold-70" transform="translate(405.175781 0)"/>
     <use xlink:href="#DejaVuSans-Bold-6c" transform="translate(476.757812 0)"/>
     <use xlink:href="#DejaVuSans-Bold-65" transform="translate(511.035156 0)"/>
     <use xlink:href="#DejaVuSans-Bold-73" transform="translate(578.857422 0)"/>
     <use xlink:href="#DejaVuSans-Bold-2f" transform="translate(638.378906 0)"/>
     <use xlink:href="#DejaVuSans-Bold-72" transform="translate(674.902344 0)"/>
     <use xlink:href="#DejaVuSans-Bold-61" transform="translate(724.21875 0)"/>
     <use xlink:href="#DejaVuSans-Bold-74" transform="translate(791.699219 0)"/>
     <use xlink:href="#DejaVuSans-Bold-65" transform="translate(839.501953 0)"/>
    </g>
   </g>
   <g id="text_6">
    <!-- DQN -->
    <g transform="translate(417.553312 311.345212) scale(0.18 -0.18)">
     <defs>
      <path id="DejaVuSans-Bold-51" d="M 2847 -84 
L 2753 -84 
Q 1600 -84 959 553 
Q 319 1191 319 2328 
Q 319 3463 958 4106 
Q 1597 4750 2719 4750 
Q 3853 4750 4486 4112 
Q 5119 3475 5119 2328 
Q 5119 1541 4783 972 
Q 4447 403 3816 116 
L 4756 -934 
L 3609 -934 
L 2847 -84 
z
M 2719 3878 
Q 2169 3878 1866 3472 
Q 1563 3066 1563 2328 
Q 1563 1578 1859 1179 
Q 2156 781 2719 781 
Q 3272 781 3575 1187 
Q 3878 1594 3878 2328 
Q 3878 3066 3575 3472 
Q 3272 3878 2719 3878 
z
" transform="scale(0.015625)"/>
      <path id="DejaVuSans-Bold-4e" d="M 588 4666 
L 1931 4666 
L 3628 1466 
L 3628 4666 
L 4769 4666 
L 4769 0 
L 3425 0 
L 1728 3200 
L 1728 0 
L 588 0 
L 588 4666 
z
" transform="scale(0.015625)"/>
     </defs>
     <use xlink:href="#DejaVuSans-Bold-44"/>
     <use xlink:href="#DejaVuSans-Bold-51" transform="translate(83.007812 0)"/>
     <use xlink:href="#DejaVuSans-Bold-4e" transform="translate(168.017578 0)"/>
    </g>
    <!-- 85 episodes -->
    <g transform="translate(379.476281 331.501275) scale(0.18 -0.18)">
     <use xlink:href="#DejaVuSans-Bold-38"/>
     <use xlink:href="#DejaVuSans-Bold-35" transform="translate(69.580078 0)"/>
     <use xlink:href="#DejaVuSans-Bold-20" transform="translate(139.160156 0)"/>
     <use xlink:href="#DejaVuSans-Bold-65" transform="translate(173.974609 0)"/>
     <use xlink:href="#DejaVuSans-Bold-70" transform="translate(241.796875 0)"/>
     <use xlink:href="#DejaVuSans-Bold-69" transform="translate(313.378906 0)"/>
     <use xlink:href="#DejaVuSans-Bold-73" transform="translate(347.65625 0)"/>
     <use xlink:href="#DejaVuSans-Bold-6f" transform="translate(407.177734 0)"/>
     <use xlink:href="#DejaVuSans-Bold-64" transform="translate(475.878906 0)"/>
     <use xlink:href="#DejaVuSans-Bold-65" transform="translate(547.460938 0)"/>
     <use xlink:href="#DejaVuSans-Bold-73" transform="translate(615.283203 0)"/>
    </g>
    <!-- 16 steps -->
    <g transform="translate(396.989719 351.657337) scale(0.18 -0.18)">
     <defs>
      <path id="DejaVuSans-Bold-36" d="M 2316 2303 
Q 2000 2303 1842 2098 
Q 1684 1894 1684 1484 
Q 1684 1075 1842 870 
Q 2000 666 2316 666 
Q 2634 666 2792 870 
Q 2950 1075 2950 1484 
Q 2950 1894 2792 2098 
Q 2634 2303 2316 2303 
z
M 3803 4544 
L 3803 3681 
Q 3506 3822 3243 3889 
Q 2981 3956 2731 3956 
Q 2194 3956 1894 3657 
Q 1594 3359 1544 2772 
Q 1750 2925 1990 3001 
Q 2231 3078 2516 3078 
Q 3231 3078 3670 2659 
Q 4109 2241 4109 1563 
Q 4109 813 3618 361 
Q 3128 -91 2303 -91 
Q 1394 -91 895 523 
Q 397 1138 397 2266 
Q 397 3422 980 4083 
Q 1563 4744 2578 4744 
Q 2900 4744 3203 4694 
Q 3506 4644 3803 4544 
z
" transform="scale(0.015625)"/>
     </defs>
     <use xlink:href="#DejaVuSans-Bold-31"/>
     <use xlink:href="#DejaVuSans-Bold-36" transform="translate(69.580078 0)"/>
     <use xlink:href="#DejaVuSans-Bold-20" transform="translate(139.160156 0)"/>
     <use xlink:href="#DejaVuSans-Bold-73" transform="translate(173.974609 0)"/>
     <use xlink:href="#DejaVuSans-Bold-74" transform="translate(233.496094 0)"/>
     <use xlink:href="#DejaVuSans-Bold-65" transform="translate(281.298828 0)"/>
     <use xlink:href="#DejaVuSans-Bold-70" transform="translate(349.121094 0)"/>
     <use xlink:href="#DejaVuSans-Bold-73" transform="translate(420.703125 0)"/>
    </g>
   </g>
   <g id="text_7">
    <!-- Weights -->
    <g transform="translate(666.750656 311.2749) scale(0.18 -0.18)">
     <defs>
      <path id="DejaVuSans-Bold-57" d="M 191 4666 
L 1344 4666 
L 2150 1275 
L 2950 4666 
L 4109 4666 
L 4909 1275 
L 5716 4666 
L 6859 4666 
L 5759 0 
L 4372 0 
L 3525 3547 
L 2688 0 
L 1300 0 
L 191 4666 
z
" transform="scale(0.015625)"/>
     </defs>
     <use xlink:href="#DejaVuSans-Bold-57"/>
     <use xlink:href="#DejaVuSans-Bold-65" transform="translate(106.677734 0)"/>
     <use xlink:href="#DejaVuSans-Bold-69" transform="translate(174.5 0)"/>
     <use xlink:href="#DejaVuSans-Bold-67" transform="translate(208.777344 0)"/>
     <use xlink:href="#DejaVuSans-Bold-68" transform="translate(280.359375 0)"/>
     <use xlink:href="#DejaVuSans-Bold-74" transform="translate(351.550781 0)"/>
     <use xlink:href="#DejaVuSans-Bold-73" transform="translate(399.353516 0)"/>
    </g>
    <!-- lambda=0.02 -->
    <g transform="translate(640.80675 331.571587) scale(0.18 -0.18)">
     <use xlink:href="#DejaVuSans-Bold-6c"/>
     <use xlink:href="#DejaVuSans-Bold-61" transform="translate(34.277344 0)"/>
     <use xlink:href="#DejaVuSans-Bold-6d" transform="translate(101.757812 0)"/>
     <use xlink:href="#DejaVuSans-Bold-62" transform="translate(205.957031 0)"/>
     <use xlink:href="#DejaVuSans-Bold-64" transform="translate(277.539062 0)"/>
     <use xlink:href="#DejaVuSans-Bold-61" transform="translate(349.121094 0)"/>
     <use xlink:href="#DejaVuSans-Bold-3d" transform="translate(416.601562 0)"/>
     <use xlink:href="#DejaVuSans-Bold-30" transform="translate(500.390625 0)"/>
     <use xlink:href="#DejaVuSans-Bold-2e" transform="translate(569.970703 0)"/>
     <use xlink:href="#DejaVuSans-Bold-30" transform="translate(607.958984 0)"/>
     <use xlink:href="#DejaVuSans-Bold-32" transform="translate(677.539062 0)"/>
    </g>
    <!-- beta=18, mu=0.04 -->
    <g transform="translate(612.977062 351.72765) scale(0.18 -0.18)">
     <defs>
      <path id="DejaVuSans-Bold-2c" d="M 653 1209 
L 1778 1209 
L 1778 256 
L 1006 -909 
L 341 -909 
L 653 256 
L 653 1209 
z
" transform="scale(0.015625)"/>
     </defs>
     <use xlink:href="#DejaVuSans-Bold-62"/>
     <use xlink:href="#DejaVuSans-Bold-65" transform="translate(71.582031 0)"/>
     <use xlink:href="#DejaVuSans-Bold-74" transform="translate(139.404297 0)"/>
     <use xlink:href="#DejaVuSans-Bold-61" transform="translate(187.207031 0)"/>
     <use xlink:href="#DejaVuSans-Bold-3d" transform="translate(254.6875 0)"/>
     <use xlink:href="#DejaVuSans-Bold-31" transform="translate(338.476562 0)"/>
     <use xlink:href="#DejaVuSans-Bold-38" transform="translate(408.056641 0)"/>
     <use xlink:href="#DejaVuSans-Bold-2c" transform="translate(477.636719 0)"/>
     <use xlink:href="#DejaVuSans-Bold-20" transform="translate(515.625 0)"/>
     <use xlink:href="#DejaVuSans-Bold-6d" transform="translate(550.439453 0)"/>
     <use xlink:href="#DejaVuSans-Bold-75" transform="translate(654.638672 0)"/>
     <use xlink:href="#DejaVuSans-Bold-3d" transform="translate(725.830078 0)"/>
     <use xlink:href="#DejaVuSans-Bold-30" transform="translate(809.619141 0)"/>
     <use xlink:href="#DejaVuSans-Bold-2e" transform="translate(879.199219 0)"/>
     <use xlink:href="#DejaVuSans-Bold-30" transform="translate(917.1875 0)"/>
     <use xlink:href="#DejaVuSans-Bold-34" transform="translate(986.767578 0)"/>
    </g>
   </g>
  </g>
 </g>
 <defs>
  <clipPath id="pb14fc64435">
   <rect x="7.2" y="7.2" width="892.8" height="498.96"/>
  </clipPath>
 </defs>
</svg>
