<?xml version="1.0" encoding="utf-8" standalone="no"?>
<!DOCTYPE svg PUBLIC "-//W3C//DTD SVG 1.1//EN"
  "http://www.w3.org/Graphics/SVG/1.1/DTD/svg11.dtd">
<svg xmlns:xlink="http://www.w3.org/1999/xlink" width="907.2pt" height="513.36pt" viewBox="0 0 907.2 513.36" xmlns="http://www.w3.org/2000/svg" version="1.1">
 <metadata>
  <rdf:RDF xmlns:dc="http://purl.org/dc/elements/1.1/" xmlns:cc="http://creativecommons.org/ns#" xmlns:rdf="http://www.w3.org/1999/02/22-rdf-syntax-ns#">
   <cc:Work>
    <dc:type rdf:resource="http://purl.org/dc/dcmitype/StillImage"/>
    <dc:date>2026-05-06T22:43:55.793684</dc:date>
    <dc:format>image/svg+xml</dc:format>
    <dc:creator>
     <cc:Agent>
      <dc:title>Matplotlib v3.10.9, https://matplotlib.org/</dc:title>
     </cc:Agent>
    </dc:creator>
   </cc:Work>
  </rdf:RDF>
 </metadata>
 <defs>
  <style type="text/css">*{stroke-linejoin: round; stroke-linecap: butt}</style>
 </defs>
 <g id="figure_1">
  <g id="patch_1">
   <path d="M 0 513.36 
L 907.2 513.36 
L 907.2 -0 
L 0 -0 
z
" style="fill: #ffffff"/>
  </g>
  <g id="axes_1">
   <g id="patch_2">
    <path d="M 87.552 249.1956 
L 248.256 249.1956 
Q 279.504 249.1956 279.504 231.732 
L 279.504 161.8776 
Q 279.504 144.414 248.256 144.414 
L 87.552 144.414 
Q 56.304 144.414 56.304 161.8776 
L 56.304 231.732 
Q 56.304 249.1956 87.552 249.1956 
z
" clip-path="url(#p07ad79c590)" style="fill: #e8f1fa; stroke: #2b5c7c; stroke-width: 2.2; stroke-linejoin: miter"/>
   </g>
   <g id="patch_3">
    <path d="M 373.248 249.1956 
L 533.952 249.1956 
Q 565.2 249.1956 565.2 231.732 
L 565.2 161.8776 
Q 565.2 144.414 533.952 144.414 
L 373.248 144.414 
Q 342 144.414 342 161.8776 
L 342 231.732 
Q 342 249.1956 373.248 249.1956 
z
" clip-path="url(#p07ad79c590)" style="fill: #e3f4ea; stroke: #2b5c7c; stroke-width: 2.2; stroke-linejoin: miter"/>
   </g>
   <g id="patch_4">
    <path d="M 658.944 249.1956 
L 819.648 249.1956 
Q 850.896 249.1956 850.896 231.732 
L 850.896 161.8776 
Q 850.896 144.414 819.648 144.414 
L 658.944 144.414 
Q 627.696 144.414 627.696 161.8776 
L 627.696 231.732 
Q 627.696 249.1956 658.944 249.1956 
z
" clip-path="url(#p07ad79c590)" style="fill: #f9e2e2; stroke: #2b5c7c; stroke-width: 2.2; stroke-linejoin: miter"/>
   </g>
   <g id="patch_5">
    <path d="M 259.181684 196.8048 
Q 310.751373 196.8048 359.414175 196.8048 
" clip-path="url(#p07ad79c590)" style="fill: none; stroke: #009e73; stroke-width: 2.6; stroke-linecap: round"/>
    <path d="M 351.414175 192.8048 
L 359.414175 196.8048 
L 351.414175 200.8048 
z
" clip-path="url(#p07ad79c590)" style="fill: #009e73; stroke: #009e73; stroke-width: 2.6; stroke-linecap: round"/>
   </g>
   <g id="patch_6">
    <path d="M 544.877684 196.8048 
Q 596.447373 196.8048 645.110175 196.8048 
" clip-path="url(#p07ad79c590)" style="fill: none; stroke: #d55e00; stroke-width: 2.6; stroke-linecap: round"/>
    <path d="M 637.110175 192.8048 
L 645.110175 196.8048 
L 637.110175 200.8048 
z
" clip-path="url(#p07ad79c590)" style="fill: #d55e00; stroke: #d55e00; stroke-width: 2.6; stroke-linecap: round"/>
   </g>
   <g id="text_1">
    <!-- Why Edge Caching? -->
    <g transform="translate(33.984 47.1168) scale(0.3 -0.3)">
     <defs>
      <path id="DejaVuSans-Bold-57" d="M 191 4666 
L 1344 4666 
L 2150 1275 
L 2950 4666 
L 4109 4666 
L 4909 1275 
L 5716 4666 
L 6859 4666 
L 5759 0 
L 4372 0 
L 3525 3547 
L 2688 0 
L 1300 0 
L 191 4666 
z
" transform="scale(0.015625)"/>
      <path id="DejaVuSans-Bold-68" d="M 4056 2131 
L 4056 0 
L 2931 0 
L 2931 347 
L 2931 1625 
Q 2931 2084 2911 2256 
Q 2891 2428 2841 2509 
Q 2775 2619 2662 2680 
Q 2550 2741 2406 2741 
Q 2056 2741 1856 2470 
Q 1656 2200 1656 1722 
L 1656 0 
L 538 0 
L 538 4863 
L 1656 4863 
L 1656 2988 
Q 1909 3294 2193 3439 
Q 2478 3584 2822 3584 
Q 3428 3584 3742 3212 
Q 4056 2841 4056 2131 
z
" transform="scale(0.015625)"/>
      <path id="DejaVuSans-Bold-79" d="M 78 3500 
L 1197 3500 
L 2138 1125 
L 2938 3500 
L 4056 3500 
L 2584 -331 
Q 2363 -916 2067 -1148 
Q 1772 -1381 1288 -1381 
L 641 -1381 
L 641 -647 
L 991 -647 
Q 1275 -647 1404 -556 
Q 1534 -466 1606 -231 
L 1638 -134 
L 78 3500 
z
" transform="scale(0.015625)"/>
      <path id="DejaVuSans-Bold-20" transform="scale(0.015625)"/>
      <path id="DejaVuSans-Bold-45" d="M 588 4666 
L 3834 4666 
L 3834 3756 
L 1791 3756 
L 1791 2888 
L 3713 2888 
L 3713 1978 
L 1791 1978 
L 1791 909 
L 3903 909 
L 3903 0 
L 588 0 
L 588 4666 
z
" transform="scale(0.015625)"/>
      <path id="DejaVuSans-Bold-64" d="M 2919 2988 
L 2919 4863 
L 4044 4863 
L 4044 0 
L 2919 0 
L 2919 506 
Q 2688 197 2409 53 
Q 2131 -91 1766 -91 
Q 1119 -91 703 423 
Q 288 938 288 1747 
Q 288 2556 703 3070 
Q 1119 3584 1766 3584 
Q 2128 3584 2408 3439 
Q 2688 3294 2919 2988 
z
M 2181 722 
Q 2541 722 2730 984 
Q 2919 1247 2919 1747 
Q 2919 2247 2730 2509 
Q 2541 2772 2181 2772 
Q 1825 2772 1636 2509 
Q 1447 2247 1447 1747 
Q 1447 1247 1636 984 
Q 1825 722 2181 722 
z
" transform="scale(0.015625)"/>
      <path id="DejaVuSans-Bold-67" d="M 2919 594 
Q 2688 288 2409 144 
Q 2131 0 1766 0 
Q 1125 0 706 504 
Q 288 1009 288 1791 
Q 288 2575 706 3076 
Q 1125 3578 1766 3578 
Q 2131 3578 2409 3434 
Q 2688 3291 2919 2981 
L 2919 3500 
L 4044 3500 
L 4044 353 
Q 4044 -491 3511 -936 
Q 2978 -1381 1966 -1381 
Q 1638 -1381 1331 -1331 
Q 1025 -1281 716 -1178 
L 716 -306 
Q 1009 -475 1290 -558 
Q 1572 -641 1856 -641 
Q 2406 -641 2662 -400 
Q 2919 -159 2919 353 
L 2919 594 
z
M 2181 2772 
Q 1834 2772 1640 2515 
Q 1447 2259 1447 1791 
Q 1447 1309 1634 1061 
Q 1822 813 2181 813 
Q 2531 813 2725 1069 
Q 2919 1325 2919 1791 
Q 2919 2259 2725 2515 
Q 2531 2772 2181 2772 
z
" transform="scale(0.015625)"/>
      <path id="DejaVuSans-Bold-65" d="M 4031 1759 
L 4031 1441 
L 1416 1441 
Q 1456 1047 1700 850 
Q 1944 653 2381 653 
Q 2734 653 3104 758 
Q 3475 863 3866 1075 
L 3866 213 
Q 3469 63 3072 -14 
Q 2675 -91 2278 -91 
Q 1328 -91 801 392 
Q 275 875 275 1747 
Q 275 2603 792 3093 
Q 1309 3584 2216 3584 
Q 3041 3584 3536 3087 
Q 4031 2591 4031 1759 
z
M 2881 2131 
Q 2881 2450 2695 2645 
Q 2509 2841 2209 2841 
Q 1884 2841 1681 2658 
Q 1478 2475 1428 2131 
L 2881 2131 
z
" transform="scale(0.015625)"/>
      <path id="DejaVuSans-Bold-43" d="M 4288 256 
Q 3956 84 3597 -3 
Q 3238 -91 2847 -91 
Q 1681 -91 1000 561 
Q 319 1213 319 2328 
Q 319 3447 1000 4098 
Q 1681 4750 2847 4750 
Q 3238 4750 3597 4662 
Q 3956 4575 4288 4403 
L 4288 3438 
Q 3953 3666 3628 3772 
Q 3303 3878 2944 3878 
Q 2300 3878 1931 3465 
Q 1563 3053 1563 2328 
Q 1563 1606 1931 1193 
Q 2300 781 2944 781 
Q 3303 781 3628 887 
Q 3953 994 4288 1222 
L 4288 256 
z
" transform="scale(0.015625)"/>
      <path id="DejaVuSans-Bold-61" d="M 2106 1575 
Q 1756 1575 1579 1456 
Q 1403 1338 1403 1106 
Q 1403 894 1545 773 
Q 1688 653 1941 653 
Q 2256 653 2472 879 
Q 2688 1106 2688 1447 
L 2688 1575 
L 2106 1575 
z
M 3816 1997 
L 3816 0 
L 2688 0 
L 2688 519 
Q 2463 200 2181 54 
Q 1900 -91 1497 -91 
Q 953 -91 614 226 
Q 275 544 275 1050 
Q 275 1666 698 1953 
Q 1122 2241 2028 2241 
L 2688 2241 
L 2688 2328 
Q 2688 2594 2478 2717 
Q 2269 2841 1825 2841 
Q 1466 2841 1156 2769 
Q 847 2697 581 2553 
L 581 3406 
Q 941 3494 1303 3539 
Q 1666 3584 2028 3584 
Q 2975 3584 3395 3211 
Q 3816 2838 3816 1997 
z
" transform="scale(0.015625)"/>
      <path id="DejaVuSans-Bold-63" d="M 3366 3391 
L 3366 2478 
Q 3138 2634 2908 2709 
Q 2678 2784 2431 2784 
Q 1963 2784 1702 2511 
Q 1441 2238 1441 1747 
Q 1441 1256 1702 982 
Q 1963 709 2431 709 
Q 2694 709 2930 787 
Q 3166 866 3366 1019 
L 3366 103 
Q 3103 6 2833 -42 
Q 2563 -91 2291 -91 
Q 1344 -91 809 395 
Q 275 881 275 1747 
Q 275 2613 809 3098 
Q 1344 3584 2291 3584 
Q 2566 3584 2833 3536 
Q 3100 3488 3366 3391 
z
" transform="scale(0.015625)"/>
      <path id="DejaVuSans-Bold-69" d="M 538 3500 
L 1656 3500 
L 1656 0 
L 538 0 
L 538 3500 
z
M 538 4863 
L 1656 4863 
L 1656 3950 
L 538 3950 
L 538 4863 
z
" transform="scale(0.015625)"/>
      <path id="DejaVuSans-Bold-6e" d="M 4056 2131 
L 4056 0 
L 2931 0 
L 2931 347 
L 2931 1631 
Q 2931 2084 2911 2256 
Q 2891 2428 2841 2509 
Q 2775 2619 2662 2680 
Q 2550 2741 2406 2741 
Q 2056 2741 1856 2470 
Q 1656 2200 1656 1722 
L 1656 0 
L 538 0 
L 538 3500 
L 1656 3500 
L 1656 2988 
Q 1909 3294 2193 3439 
Q 2478 3584 2822 3584 
Q 3428 3584 3742 3212 
Q 4056 2841 4056 2131 
z
" transform="scale(0.015625)"/>
      <path id="DejaVuSans-Bold-3f" d="M 2216 1575 
L 1088 1575 
L 1088 1728 
Q 1088 1984 1191 2182 
Q 1294 2381 1625 2688 
L 1825 2869 
Q 2003 3031 2086 3175 
Q 2169 3319 2169 3463 
Q 2169 3681 2019 3804 
Q 1869 3928 1600 3928 
Q 1347 3928 1053 3823 
Q 759 3719 441 3513 
L 441 4494 
Q 819 4625 1131 4687 
Q 1444 4750 1734 4750 
Q 2497 4750 2897 4439 
Q 3297 4128 3297 3531 
Q 3297 3225 3175 2983 
Q 3053 2741 2759 2463 
L 2559 2284 
Q 2347 2091 2281 1973 
Q 2216 1856 2216 1716 
L 2216 1575 
z
M 1088 1113 
L 2216 1113 
L 2216 0 
L 1088 0 
L 1088 1113 
z
" transform="scale(0.015625)"/>
     </defs>
     <use xlink:href="#DejaVuSans-Bold-57"/>
     <use xlink:href="#DejaVuSans-Bold-68" transform="translate(110.302734 0)"/>
     <use xlink:href="#DejaVuSans-Bold-79" transform="translate(181.494141 0)"/>
     <use xlink:href="#DejaVuSans-Bold-20" transform="translate(246.679688 0)"/>
     <use xlink:href="#DejaVuSans-Bold-45" transform="translate(281.494141 0)"/>
     <use xlink:href="#DejaVuSans-Bold-64" transform="translate(349.804688 0)"/>
     <use xlink:href="#DejaVuSans-Bold-67" transform="translate(421.386719 0)"/>
     <use xlink:href="#DejaVuSans-Bold-65" transform="translate(492.96875 0)"/>
     <use xlink:href="#DejaVuSans-Bold-20" transform="translate(560.791016 0)"/>
     <use xlink:href="#DejaVuSans-Bold-43" transform="translate(595.605469 0)"/>
     <use xlink:href="#DejaVuSans-Bold-61" transform="translate(668.994141 0)"/>
     <use xlink:href="#DejaVuSans-Bold-63" transform="translate(736.474609 0)"/>
     <use xlink:href="#DejaVuSans-Bold-68" transform="translate(795.751953 0)"/>
     <use xlink:href="#DejaVuSans-Bold-69" transform="translate(866.943359 0)"/>
     <use xlink:href="#DejaVuSans-Bold-6e" transform="translate(901.220703 0)"/>
     <use xlink:href="#DejaVuSans-Bold-67" transform="translate(972.412109 0)"/>
     <use xlink:href="#DejaVuSans-Bold-3f" transform="translate(1043.994141 0)"/>
    </g>
   </g>
   <g id="text_2">
    <!-- Users / -->
    <g transform="translate(130.975719 191.409691) scale(0.19 -0.19)">
     <defs>
      <path id="DejaVuSans-Bold-55" d="M 588 4666 
L 1791 4666 
L 1791 1869 
Q 1791 1291 1980 1042 
Q 2169 794 2597 794 
Q 3028 794 3217 1042 
Q 3406 1291 3406 1869 
L 3406 4666 
L 4609 4666 
L 4609 1869 
Q 4609 878 4112 393 
Q 3616 -91 2597 -91 
Q 1581 -91 1084 393 
Q 588 878 588 1869 
L 588 4666 
z
" transform="scale(0.015625)"/>
      <path id="DejaVuSans-Bold-73" d="M 3272 3391 
L 3272 2541 
Q 2913 2691 2578 2766 
Q 2244 2841 1947 2841 
Q 1628 2841 1473 2761 
Q 1319 2681 1319 2516 
Q 1319 2381 1436 2309 
Q 1553 2238 1856 2203 
L 2053 2175 
Q 2913 2066 3209 1816 
Q 3506 1566 3506 1031 
Q 3506 472 3093 190 
Q 2681 -91 1863 -91 
Q 1516 -91 1145 -36 
Q 775 19 384 128 
L 384 978 
Q 719 816 1070 734 
Q 1422 653 1784 653 
Q 2113 653 2278 743 
Q 2444 834 2444 1013 
Q 2444 1163 2330 1236 
Q 2216 1309 1875 1350 
L 1678 1375 
Q 931 1469 631 1722 
Q 331 1975 331 2491 
Q 331 3047 712 3315 
Q 1094 3584 1881 3584 
Q 2191 3584 2531 3537 
Q 2872 3491 3272 3391 
z
" transform="scale(0.015625)"/>
      <path id="DejaVuSans-Bold-72" d="M 3138 2547 
Q 2991 2616 2845 2648 
Q 2700 2681 2553 2681 
Q 2122 2681 1889 2404 
Q 1656 2128 1656 1613 
L 1656 0 
L 538 0 
L 538 3500 
L 1656 3500 
L 1656 2925 
Q 1872 3269 2151 3426 
Q 2431 3584 2822 3584 
Q 2878 3584 2943 3579 
Q 3009 3575 3134 3559 
L 3138 2547 
z
" transform="scale(0.015625)"/>
      <path id="DejaVuSans-Bold-2f" d="M 1644 4666 
L 2338 4666 
L 691 -594 
L 0 -594 
L 1644 4666 
z
" transform="scale(0.015625)"/>
     </defs>
     <use xlink:href="#DejaVuSans-Bold-55"/>
     <use xlink:href="#DejaVuSans-Bold-73" transform="translate(81.201172 0)"/>
     <use xlink:href="#DejaVuSans-Bold-65" transform="translate(140.722656 0)"/>
     <use xlink:href="#DejaVuSans-Bold-72" transform="translate(208.544922 0)"/>
     <use xlink:href="#DejaVuSans-Bold-73" transform="translate(257.861328 0)"/>
     <use xlink:href="#DejaVuSans-Bold-20" transform="translate(317.382812 0)"/>
     <use xlink:href="#DejaVuSans-Bold-2f" transform="translate(352.197266 0)"/>
    </g>
    <!-- IoT devices -->
    <g transform="translate(107.632437 212.685534) scale(0.19 -0.19)">
     <defs>
      <path id="DejaVuSans-Bold-49" d="M 588 4666 
L 1791 4666 
L 1791 0 
L 588 0 
L 588 4666 
z
" transform="scale(0.015625)"/>
      <path id="DejaVuSans-Bold-6f" d="M 2203 2784 
Q 1831 2784 1636 2517 
Q 1441 2250 1441 1747 
Q 1441 1244 1636 976 
Q 1831 709 2203 709 
Q 2569 709 2762 976 
Q 2956 1244 2956 1747 
Q 2956 2250 2762 2517 
Q 2569 2784 2203 2784 
z
M 2203 3584 
Q 3106 3584 3614 3096 
Q 4122 2609 4122 1747 
Q 4122 884 3614 396 
Q 3106 -91 2203 -91 
Q 1297 -91 786 396 
Q 275 884 275 1747 
Q 275 2609 786 3096 
Q 1297 3584 2203 3584 
z
" transform="scale(0.015625)"/>
      <path id="DejaVuSans-Bold-54" d="M 31 4666 
L 4331 4666 
L 4331 3756 
L 2784 3756 
L 2784 0 
L 1581 0 
L 1581 3756 
L 31 3756 
L 31 4666 
z
" transform="scale(0.015625)"/>
      <path id="DejaVuSans-Bold-76" d="M 97 3500 
L 1216 3500 
L 2088 1081 
L 2956 3500 
L 4078 3500 
L 2700 0 
L 1472 0 
L 97 3500 
z
" transform="scale(0.015625)"/>
     </defs>
     <use xlink:href="#DejaVuSans-Bold-49"/>
     <use xlink:href="#DejaVuSans-Bold-6f" transform="translate(37.207031 0)"/>
     <use xlink:href="#DejaVuSans-Bold-54" transform="translate(105.908203 0)"/>
     <use xlink:href="#DejaVuSans-Bold-20" transform="translate(174.121094 0)"/>
     <use xlink:href="#DejaVuSans-Bold-64" transform="translate(208.935547 0)"/>
     <use xlink:href="#DejaVuSans-Bold-65" transform="translate(280.517578 0)"/>
     <use xlink:href="#DejaVuSans-Bold-76" transform="translate(348.339844 0)"/>
     <use xlink:href="#DejaVuSans-Bold-69" transform="translate(413.525391 0)"/>
     <use xlink:href="#DejaVuSans-Bold-63" transform="translate(447.802734 0)"/>
     <use xlink:href="#DejaVuSans-Bold-65" transform="translate(507.080078 0)"/>
     <use xlink:href="#DejaVuSans-Bold-73" transform="translate(574.902344 0)"/>
    </g>
   </g>
   <g id="text_3">
    <!-- AP edge -->
    <g transform="translate(409.490313 191.335472) scale(0.19 -0.19)">
     <defs>
      <path id="DejaVuSans-Bold-41" d="M 3419 850 
L 1538 850 
L 1241 0 
L 31 0 
L 1759 4666 
L 3194 4666 
L 4922 0 
L 3713 0 
L 3419 850 
z
M 1838 1716 
L 3116 1716 
L 2478 3572 
L 1838 1716 
z
" transform="scale(0.015625)"/>
      <path id="DejaVuSans-Bold-50" d="M 588 4666 
L 2584 4666 
Q 3475 4666 3951 4270 
Q 4428 3875 4428 3144 
Q 4428 2409 3951 2014 
Q 3475 1619 2584 1619 
L 1791 1619 
L 1791 0 
L 588 0 
L 588 4666 
z
M 1791 3794 
L 1791 2491 
L 2456 2491 
Q 2806 2491 2997 2661 
Q 3188 2831 3188 3144 
Q 3188 3456 2997 3625 
Q 2806 3794 2456 3794 
L 1791 3794 
z
" transform="scale(0.015625)"/>
     </defs>
     <use xlink:href="#DejaVuSans-Bold-41"/>
     <use xlink:href="#DejaVuSans-Bold-50" transform="translate(77.392578 0)"/>
     <use xlink:href="#DejaVuSans-Bold-20" transform="translate(150.683594 0)"/>
     <use xlink:href="#DejaVuSans-Bold-65" transform="translate(185.498047 0)"/>
     <use xlink:href="#DejaVuSans-Bold-64" transform="translate(253.320312 0)"/>
     <use xlink:href="#DejaVuSans-Bold-67" transform="translate(324.902344 0)"/>
     <use xlink:href="#DejaVuSans-Bold-65" transform="translate(396.484375 0)"/>
    </g>
    <!-- cache -->
    <g transform="translate(422.719063 212.759753) scale(0.19 -0.19)">
     <use xlink:href="#DejaVuSans-Bold-63"/>
     <use xlink:href="#DejaVuSans-Bold-61" transform="translate(59.277344 0)"/>
     <use xlink:href="#DejaVuSans-Bold-63" transform="translate(126.757812 0)"/>
     <use xlink:href="#DejaVuSans-Bold-68" transform="translate(186.035156 0)"/>
     <use xlink:href="#DejaVuSans-Bold-65" transform="translate(257.226562 0)"/>
    </g>
   </g>
   <g id="text_4">
    <!-- Remote -->
    <g transform="translate(698.126859 191.335472) scale(0.19 -0.19)">
     <defs>
      <path id="DejaVuSans-Bold-52" d="M 2297 2597 
Q 2675 2597 2839 2737 
Q 3003 2878 3003 3200 
Q 3003 3519 2839 3656 
Q 2675 3794 2297 3794 
L 1791 3794 
L 1791 2597 
L 2297 2597 
z
M 1791 1766 
L 1791 0 
L 588 0 
L 588 4666 
L 2425 4666 
Q 3347 4666 3776 4356 
Q 4206 4047 4206 3378 
Q 4206 2916 3982 2619 
Q 3759 2322 3309 2181 
Q 3556 2125 3751 1926 
Q 3947 1728 4147 1325 
L 4800 0 
L 3519 0 
L 2950 1159 
Q 2778 1509 2601 1637 
Q 2425 1766 2131 1766 
L 1791 1766 
z
" transform="scale(0.015625)"/>
      <path id="DejaVuSans-Bold-6d" d="M 3781 2919 
Q 3994 3244 4286 3414 
Q 4578 3584 4928 3584 
Q 5531 3584 5847 3212 
Q 6163 2841 6163 2131 
L 6163 0 
L 5038 0 
L 5038 1825 
Q 5041 1866 5042 1909 
Q 5044 1953 5044 2034 
Q 5044 2406 4934 2573 
Q 4825 2741 4581 2741 
Q 4263 2741 4089 2478 
Q 3916 2216 3909 1719 
L 3909 0 
L 2784 0 
L 2784 1825 
Q 2784 2406 2684 2573 
Q 2584 2741 2328 2741 
Q 2006 2741 1831 2477 
Q 1656 2213 1656 1722 
L 1656 0 
L 531 0 
L 531 3500 
L 1656 3500 
L 1656 2988 
Q 1863 3284 2130 3434 
Q 2397 3584 2719 3584 
Q 3081 3584 3359 3409 
Q 3638 3234 3781 2919 
z
" transform="scale(0.015625)"/>
      <path id="DejaVuSans-Bold-74" d="M 1759 4494 
L 1759 3500 
L 2913 3500 
L 2913 2700 
L 1759 2700 
L 1759 1216 
Q 1759 972 1856 886 
Q 1953 800 2241 800 
L 2816 800 
L 2816 0 
L 1856 0 
Q 1194 0 917 276 
Q 641 553 641 1216 
L 641 2700 
L 84 2700 
L 84 3500 
L 641 3500 
L 641 4494 
L 1759 4494 
z
" transform="scale(0.015625)"/>
     </defs>
     <use xlink:href="#DejaVuSans-Bold-52"/>
     <use xlink:href="#DejaVuSans-Bold-65" transform="translate(77.001953 0)"/>
     <use xlink:href="#DejaVuSans-Bold-6d" transform="translate(144.824219 0)"/>
     <use xlink:href="#DejaVuSans-Bold-6f" transform="translate(249.023438 0)"/>
     <use xlink:href="#DejaVuSans-Bold-74" transform="translate(317.724609 0)"/>
     <use xlink:href="#DejaVuSans-Bold-65" transform="translate(365.527344 0)"/>
    </g>
    <!-- origin -->
    <g transform="translate(708.008344 212.611316) scale(0.19 -0.19)">
     <use xlink:href="#DejaVuSans-Bold-6f"/>
     <use xlink:href="#DejaVuSans-Bold-72" transform="translate(68.701172 0)"/>
     <use xlink:href="#DejaVuSans-Bold-69" transform="translate(118.017578 0)"/>
     <use xlink:href="#DejaVuSans-Bold-67" transform="translate(152.294922 0)"/>
     <use xlink:href="#DejaVuSans-Bold-69" transform="translate(223.876953 0)"/>
     <use xlink:href="#DejaVuSans-Bold-6e" transform="translate(258.154297 0)"/>
    </g>
   </g>
   <g id="text_5">
    <!-- local hit -->
    <g style="fill: #006b45" transform="translate(130.364156 270.331356) scale(0.19 -0.19)">
     <defs>
      <path id="DejaVuSans-6c" d="M 603 4863 
L 1178 4863 
L 1178 0 
L 603 0 
L 603 4863 
z
" transform="scale(0.015625)"/>
      <path id="DejaVuSans-6f" d="M 1959 3097 
Q 1497 3097 1228 2736 
Q 959 2375 959 1747 
Q 959 1119 1226 758 
Q 1494 397 1959 397 
Q 2419 397 2687 759 
Q 2956 1122 2956 1747 
Q 2956 2369 2687 2733 
Q 2419 3097 1959 3097 
z
M 1959 3584 
Q 2709 3584 3137 3096 
Q 3566 2609 3566 1747 
Q 3566 888 3137 398 
Q 2709 -91 1959 -91 
Q 1206 -91 779 398 
Q 353 888 353 1747 
Q 353 2609 779 3096 
Q 1206 3584 1959 3584 
z
" transform="scale(0.015625)"/>
      <path id="DejaVuSans-63" d="M 3122 3366 
L 3122 2828 
Q 2878 2963 2633 3030 
Q 2388 3097 2138 3097 
Q 1578 3097 1268 2742 
Q 959 2388 959 1747 
Q 959 1106 1268 751 
Q 1578 397 2138 397 
Q 2388 397 2633 464 
Q 2878 531 3122 666 
L 3122 134 
Q 2881 22 2623 -34 
Q 2366 -91 2075 -91 
Q 1284 -91 818 406 
Q 353 903 353 1747 
Q 353 2603 823 3093 
Q 1294 3584 2113 3584 
Q 2378 3584 2631 3529 
Q 2884 3475 3122 3366 
z
" transform="scale(0.015625)"/>
      <path id="DejaVuSans-61" d="M 2194 1759 
Q 1497 1759 1228 1600 
Q 959 1441 959 1056 
Q 959 750 1161 570 
Q 1363 391 1709 391 
Q 2188 391 2477 730 
Q 2766 1069 2766 1631 
L 2766 1759 
L 2194 1759 
z
M 3341 1997 
L 3341 0 
L 2766 0 
L 2766 531 
Q 2569 213 2275 61 
Q 1981 -91 1556 -91 
Q 1019 -91 701 211 
Q 384 513 384 1019 
Q 384 1609 779 1909 
Q 1175 2209 1959 2209 
L 2766 2209 
L 2766 2266 
Q 2766 2663 2505 2880 
Q 2244 3097 1772 3097 
Q 1472 3097 1187 3025 
Q 903 2953 641 2809 
L 641 3341 
Q 956 3463 1253 3523 
Q 1550 3584 1831 3584 
Q 2591 3584 2966 3190 
Q 3341 2797 3341 1997 
z
" transform="scale(0.015625)"/>
      <path id="DejaVuSans-20" transform="scale(0.015625)"/>
      <path id="DejaVuSans-68" d="M 3513 2113 
L 3513 0 
L 2938 0 
L 2938 2094 
Q 2938 2591 2744 2837 
Q 2550 3084 2163 3084 
Q 1697 3084 1428 2787 
Q 1159 2491 1159 1978 
L 1159 0 
L 581 0 
L 581 4863 
L 1159 4863 
L 1159 2956 
Q 1366 3272 1645 3428 
Q 1925 3584 2291 3584 
Q 2894 3584 3203 3211 
Q 3513 2838 3513 2113 
z
" transform="scale(0.015625)"/>
      <path id="DejaVuSans-69" d="M 603 3500 
L 1178 3500 
L 1178 0 
L 603 0 
L 603 3500 
z
M 603 4863 
L 1178 4863 
L 1178 4134 
L 603 4134 
L 603 4863 
z
" transform="scale(0.015625)"/>
      <path id="DejaVuSans-74" d="M 1172 4494 
L 1172 3500 
L 2356 3500 
L 2356 3053 
L 1172 3053 
L 1172 1153 
Q 1172 725 1289 603 
Q 1406 481 1766 481 
L 2356 481 
L 2356 0 
L 1766 0 
Q 1100 0 847 248 
Q 594 497 594 1153 
L 594 3053 
L 172 3053 
L 172 3500 
L 594 3500 
L 594 4494 
L 1172 4494 
z
" transform="scale(0.015625)"/>
     </defs>
     <use xlink:href="#DejaVuSans-6c"/>
     <use xlink:href="#DejaVuSans-6f" transform="translate(27.783203 0)"/>
     <use xlink:href="#DejaVuSans-63" transform="translate(88.964844 0)"/>
     <use xlink:href="#DejaVuSans-61" transform="translate(143.945312 0)"/>
     <use xlink:href="#DejaVuSans-6c" transform="translate(205.224609 0)"/>
     <use xlink:href="#DejaVuSans-20" transform="translate(233.007812 0)"/>
     <use xlink:href="#DejaVuSans-68" transform="translate(264.794922 0)"/>
     <use xlink:href="#DejaVuSans-69" transform="translate(328.173828 0)"/>
     <use xlink:href="#DejaVuSans-74" transform="translate(355.957031 0)"/>
    </g>
    <!-- low latency -->
    <g style="fill: #006b45" transform="translate(113.765875 291.6072) scale(0.19 -0.19)">
     <defs>
      <path id="DejaVuSans-77" d="M 269 3500 
L 844 3500 
L 1563 769 
L 2278 3500 
L 2956 3500 
L 3675 769 
L 4391 3500 
L 4966 3500 
L 4050 0 
L 3372 0 
L 2619 2869 
L 1863 0 
L 1184 0 
L 269 3500 
z
" transform="scale(0.015625)"/>
      <path id="DejaVuSans-65" d="M 3597 1894 
L 3597 1613 
L 953 1613 
Q 991 1019 1311 708 
Q 1631 397 2203 397 
Q 2534 397 2845 478 
Q 3156 559 3463 722 
L 3463 178 
Q 3153 47 2828 -22 
Q 2503 -91 2169 -91 
Q 1331 -91 842 396 
Q 353 884 353 1716 
Q 353 2575 817 3079 
Q 1281 3584 2069 3584 
Q 2775 3584 3186 3129 
Q 3597 2675 3597 1894 
z
M 3022 2063 
Q 3016 2534 2758 2815 
Q 2500 3097 2075 3097 
Q 1594 3097 1305 2825 
Q 1016 2553 972 2059 
L 3022 2063 
z
" transform="scale(0.015625)"/>
      <path id="DejaVuSans-6e" d="M 3513 2113 
L 3513 0 
L 2938 0 
L 2938 2094 
Q 2938 2591 2744 2837 
Q 2550 3084 2163 3084 
Q 1697 3084 1428 2787 
Q 1159 2491 1159 1978 
L 1159 0 
L 581 0 
L 581 3500 
L 1159 3500 
L 1159 2956 
Q 1366 3272 1645 3428 
Q 1925 3584 2291 3584 
Q 2894 3584 3203 3211 
Q 3513 2838 3513 2113 
z
" transform="scale(0.015625)"/>
      <path id="DejaVuSans-79" d="M 2059 -325 
Q 1816 -950 1584 -1140 
Q 1353 -1331 966 -1331 
L 506 -1331 
L 506 -850 
L 844 -850 
Q 1081 -850 1212 -737 
Q 1344 -625 1503 -206 
L 1606 56 
L 191 3500 
L 800 3500 
L 1894 763 
L 2988 3500 
L 3597 3500 
L 2059 -325 
z
" transform="scale(0.015625)"/>
     </defs>
     <use xlink:href="#DejaVuSans-6c"/>
     <use xlink:href="#DejaVuSans-6f" transform="translate(27.783203 0)"/>
     <use xlink:href="#DejaVuSans-77" transform="translate(88.964844 0)"/>
     <use xlink:href="#DejaVuSans-20" transform="translate(170.751953 0)"/>
     <use xlink:href="#DejaVuSans-6c" transform="translate(202.539062 0)"/>
     <use xlink:href="#DejaVuSans-61" transform="translate(230.322266 0)"/>
     <use xlink:href="#DejaVuSans-74" transform="translate(291.601562 0)"/>
     <use xlink:href="#DejaVuSans-65" transform="translate(330.810547 0)"/>
     <use xlink:href="#DejaVuSans-6e" transform="translate(392.333984 0)"/>
     <use xlink:href="#DejaVuSans-63" transform="translate(455.712891 0)"/>
     <use xlink:href="#DejaVuSans-79" transform="translate(510.693359 0)"/>
    </g>
   </g>
   <g id="text_6">
    <!-- origin fetch -->
    <g style="fill: #9b2d00" transform="translate(542.222297 270.331356) scale(0.19 -0.19)">
     <defs>
      <path id="DejaVuSans-72" d="M 2631 2963 
Q 2534 3019 2420 3045 
Q 2306 3072 2169 3072 
Q 1681 3072 1420 2755 
Q 1159 2438 1159 1844 
L 1159 0 
L 581 0 
L 581 3500 
L 1159 3500 
L 1159 2956 
Q 1341 3275 1631 3429 
Q 1922 3584 2338 3584 
Q 2397 3584 2469 3576 
Q 2541 3569 2628 3553 
L 2631 2963 
z
" transform="scale(0.015625)"/>
      <path id="DejaVuSans-67" d="M 2906 1791 
Q 2906 2416 2648 2759 
Q 2391 3103 1925 3103 
Q 1463 3103 1205 2759 
Q 947 2416 947 1791 
Q 947 1169 1205 825 
Q 1463 481 1925 481 
Q 2391 481 2648 825 
Q 2906 1169 2906 1791 
z
M 3481 434 
Q 3481 -459 3084 -895 
Q 2688 -1331 1869 -1331 
Q 1566 -1331 1297 -1286 
Q 1028 -1241 775 -1147 
L 775 -588 
Q 1028 -725 1275 -790 
Q 1522 -856 1778 -856 
Q 2344 -856 2625 -561 
Q 2906 -266 2906 331 
L 2906 616 
Q 2728 306 2450 153 
Q 2172 0 1784 0 
Q 1141 0 747 490 
Q 353 981 353 1791 
Q 353 2603 747 3093 
Q 1141 3584 1784 3584 
Q 2172 3584 2450 3431 
Q 2728 3278 2906 2969 
L 2906 3500 
L 3481 3500 
L 3481 434 
z
" transform="scale(0.015625)"/>
      <path id="DejaVuSans-66" d="M 2375 4863 
L 2375 4384 
L 1825 4384 
Q 1516 4384 1395 4259 
Q 1275 4134 1275 3809 
L 1275 3500 
L 2222 3500 
L 2222 3053 
L 1275 3053 
L 1275 0 
L 697 0 
L 697 3053 
L 147 3053 
L 147 3500 
L 697 3500 
L 697 3744 
Q 697 4328 969 4595 
Q 1241 4863 1831 4863 
L 2375 4863 
z
" transform="scale(0.015625)"/>
     </defs>
     <use xlink:href="#DejaVuSans-6f"/>
     <use xlink:href="#DejaVuSans-72" transform="translate(61.181641 0)"/>
     <use xlink:href="#DejaVuSans-69" transform="translate(102.294922 0)"/>
     <use xlink:href="#DejaVuSans-67" transform="translate(130.078125 0)"/>
     <use xlink:href="#DejaVuSans-69" transform="translate(193.554688 0)"/>
     <use xlink:href="#DejaVuSans-6e" transform="translate(221.337891 0)"/>
     <use xlink:href="#DejaVuSans-20" transform="translate(284.716797 0)"/>
     <use xlink:href="#DejaVuSans-66" transform="translate(316.503906 0)"/>
     <use xlink:href="#DejaVuSans-65" transform="translate(351.708984 0)"/>
     <use xlink:href="#DejaVuSans-74" transform="translate(413.232422 0)"/>
     <use xlink:href="#DejaVuSans-63" transform="translate(452.441406 0)"/>
     <use xlink:href="#DejaVuSans-68" transform="translate(507.421875 0)"/>
    </g>
    <!-- high latency -->
    <g style="fill: #9b2d00" transform="translate(537.819641 291.6072) scale(0.19 -0.19)">
     <use xlink:href="#DejaVuSans-68"/>
     <use xlink:href="#DejaVuSans-69" transform="translate(63.378906 0)"/>
     <use xlink:href="#DejaVuSans-67" transform="translate(91.162109 0)"/>
     <use xlink:href="#DejaVuSans-68" transform="translate(154.638672 0)"/>
     <use xlink:href="#DejaVuSans-20" transform="translate(218.017578 0)"/>
     <use xlink:href="#DejaVuSans-6c" transform="translate(249.804688 0)"/>
     <use xlink:href="#DejaVuSans-61" transform="translate(277.587891 0)"/>
     <use xlink:href="#DejaVuSans-74" transform="translate(338.867188 0)"/>
     <use xlink:href="#DejaVuSans-65" transform="translate(378.076172 0)"/>
     <use xlink:href="#DejaVuSans-6e" transform="translate(439.599609 0)"/>
     <use xlink:href="#DejaVuSans-63" transform="translate(502.978516 0)"/>
     <use xlink:href="#DejaVuSans-79" transform="translate(557.958984 0)"/>
    </g>
   </g>
   <g id="text_7">
    <!-- Caching decision: which objects should each AP store, -->
    <g transform="translate(78.624 390.592231) scale(0.23 -0.23)">
     <defs>
      <path id="DejaVuSans-43" d="M 4122 4306 
L 4122 3641 
Q 3803 3938 3442 4084 
Q 3081 4231 2675 4231 
Q 1875 4231 1450 3742 
Q 1025 3253 1025 2328 
Q 1025 1406 1450 917 
Q 1875 428 2675 428 
Q 3081 428 3442 575 
Q 3803 722 4122 1019 
L 4122 359 
Q 3791 134 3420 21 
Q 3050 -91 2638 -91 
Q 1578 -91 968 557 
Q 359 1206 359 2328 
Q 359 3453 968 4101 
Q 1578 4750 2638 4750 
Q 3056 4750 3426 4639 
Q 3797 4528 4122 4306 
z
" transform="scale(0.015625)"/>
      <path id="DejaVuSans-64" d="M 2906 2969 
L 2906 4863 
L 3481 4863 
L 3481 0 
L 2906 0 
L 2906 525 
Q 2725 213 2448 61 
Q 2172 -91 1784 -91 
Q 1150 -91 751 415 
Q 353 922 353 1747 
Q 353 2572 751 3078 
Q 1150 3584 1784 3584 
Q 2172 3584 2448 3432 
Q 2725 3281 2906 2969 
z
M 947 1747 
Q 947 1113 1208 752 
Q 1469 391 1925 391 
Q 2381 391 2643 752 
Q 2906 1113 2906 1747 
Q 2906 2381 2643 2742 
Q 2381 3103 1925 3103 
Q 1469 3103 1208 2742 
Q 947 2381 947 1747 
z
" transform="scale(0.015625)"/>
      <path id="DejaVuSans-73" d="M 2834 3397 
L 2834 2853 
Q 2591 2978 2328 3040 
Q 2066 3103 1784 3103 
Q 1356 3103 1142 2972 
Q 928 2841 928 2578 
Q 928 2378 1081 2264 
Q 1234 2150 1697 2047 
L 1894 2003 
Q 2506 1872 2764 1633 
Q 3022 1394 3022 966 
Q 3022 478 2636 193 
Q 2250 -91 1575 -91 
Q 1294 -91 989 -36 
Q 684 19 347 128 
L 347 722 
Q 666 556 975 473 
Q 1284 391 1588 391 
Q 1994 391 2212 530 
Q 2431 669 2431 922 
Q 2431 1156 2273 1281 
Q 2116 1406 1581 1522 
L 1381 1569 
Q 847 1681 609 1914 
Q 372 2147 372 2553 
Q 372 3047 722 3315 
Q 1072 3584 1716 3584 
Q 2034 3584 2315 3537 
Q 2597 3491 2834 3397 
z
" transform="scale(0.015625)"/>
      <path id="DejaVuSans-3a" d="M 750 794 
L 1409 794 
L 1409 0 
L 750 0 
L 750 794 
z
M 750 3309 
L 1409 3309 
L 1409 2516 
L 750 2516 
L 750 3309 
z
" transform="scale(0.015625)"/>
      <path id="DejaVuSans-62" d="M 3116 1747 
Q 3116 2381 2855 2742 
Q 2594 3103 2138 3103 
Q 1681 3103 1420 2742 
Q 1159 2381 1159 1747 
Q 1159 1113 1420 752 
Q 1681 391 2138 391 
Q 2594 391 2855 752 
Q 3116 1113 3116 1747 
z
M 1159 2969 
Q 1341 3281 1617 3432 
Q 1894 3584 2278 3584 
Q 2916 3584 3314 3078 
Q 3713 2572 3713 1747 
Q 3713 922 3314 415 
Q 2916 -91 2278 -91 
Q 1894 -91 1617 61 
Q 1341 213 1159 525 
L 1159 0 
L 581 0 
L 581 4863 
L 1159 4863 
L 1159 2969 
z
" transform="scale(0.015625)"/>
      <path id="DejaVuSans-6a" d="M 603 3500 
L 1178 3500 
L 1178 -63 
Q 1178 -731 923 -1031 
Q 669 -1331 103 -1331 
L -116 -1331 
L -116 -844 
L 38 -844 
Q 366 -844 484 -692 
Q 603 -541 603 -63 
L 603 3500 
z
M 603 4863 
L 1178 4863 
L 1178 4134 
L 603 4134 
L 603 4863 
z
" transform="scale(0.015625)"/>
      <path id="DejaVuSans-75" d="M 544 1381 
L 544 3500 
L 1119 3500 
L 1119 1403 
Q 1119 906 1312 657 
Q 1506 409 1894 409 
Q 2359 409 2629 706 
Q 2900 1003 2900 1516 
L 2900 3500 
L 3475 3500 
L 3475 0 
L 2900 0 
L 2900 538 
Q 2691 219 2414 64 
Q 2138 -91 1772 -91 
Q 1169 -91 856 284 
Q 544 659 544 1381 
z
M 1991 3584 
L 1991 3584 
z
" transform="scale(0.015625)"/>
      <path id="DejaVuSans-41" d="M 2188 4044 
L 1331 1722 
L 3047 1722 
L 2188 4044 
z
M 1831 4666 
L 2547 4666 
L 4325 0 
L 3669 0 
L 3244 1197 
L 1141 1197 
L 716 0 
L 50 0 
L 1831 4666 
z
" transform="scale(0.015625)"/>
      <path id="DejaVuSans-50" d="M 1259 4147 
L 1259 2394 
L 2053 2394 
Q 2494 2394 2734 2622 
Q 2975 2850 2975 3272 
Q 2975 3691 2734 3919 
Q 2494 4147 2053 4147 
L 1259 4147 
z
M 628 4666 
L 2053 4666 
Q 2838 4666 3239 4311 
Q 3641 3956 3641 3272 
Q 3641 2581 3239 2228 
Q 2838 1875 2053 1875 
L 1259 1875 
L 1259 0 
L 628 0 
L 628 4666 
z
" transform="scale(0.015625)"/>
      <path id="DejaVuSans-2c" d="M 750 794 
L 1409 794 
L 1409 256 
L 897 -744 
L 494 -744 
L 750 256 
L 750 794 
z
" transform="scale(0.015625)"/>
     </defs>
     <use xlink:href="#DejaVuSans-43"/>
     <use xlink:href="#DejaVuSans-61" transform="translate(69.824219 0)"/>
     <use xlink:href="#DejaVuSans-63" transform="translate(131.103516 0)"/>
     <use xlink:href="#DejaVuSans-68" transform="translate(186.083984 0)"/>
     <use xlink:href="#DejaVuSans-69" transform="translate(249.462891 0)"/>
     <use xlink:href="#DejaVuSans-6e" transform="translate(277.246094 0)"/>
     <use xlink:href="#DejaVuSans-67" transform="translate(340.625 0)"/>
     <use xlink:href="#DejaVuSans-20" transform="translate(404.101562 0)"/>
     <use xlink:href="#DejaVuSans-64" transform="translate(435.888672 0)"/>
     <use xlink:href="#DejaVuSans-65" transform="translate(499.365234 0)"/>
     <use xlink:href="#DejaVuSans-63" transform="translate(560.888672 0)"/>
     <use xlink:href="#DejaVuSans-69" transform="translate(615.869141 0)"/>
     <use xlink:href="#DejaVuSans-73" transform="translate(643.652344 0)"/>
     <use xlink:href="#DejaVuSans-69" transform="translate(695.751953 0)"/>
     <use xlink:href="#DejaVuSans-6f" transform="translate(723.535156 0)"/>
     <use xlink:href="#DejaVuSans-6e" transform="translate(784.716797 0)"/>
     <use xlink:href="#DejaVuSans-3a" transform="translate(848.095703 0)"/>
     <use xlink:href="#DejaVuSans-20" transform="translate(881.787109 0)"/>
     <use xlink:href="#DejaVuSans-77" transform="translate(913.574219 0)"/>
     <use xlink:href="#DejaVuSans-68" transform="translate(995.361328 0)"/>
     <use xlink:href="#DejaVuSans-69" transform="translate(1058.740234 0)"/>
     <use xlink:href="#DejaVuSans-63" transform="translate(1086.523438 0)"/>
     <use xlink:href="#DejaVuSans-68" transform="translate(1141.503906 0)"/>
     <use xlink:href="#DejaVuSans-20" transform="translate(1204.882812 0)"/>
     <use xlink:href="#DejaVuSans-6f" transform="translate(1236.669922 0)"/>
     <use xlink:href="#DejaVuSans-62" transform="translate(1297.851562 0)"/>
     <use xlink:href="#DejaVuSans-6a" transform="translate(1361.328125 0)"/>
     <use xlink:href="#DejaVuSans-65" transform="translate(1389.111328 0)"/>
     <use xlink:href="#DejaVuSans-63" transform="translate(1450.634766 0)"/>
     <use xlink:href="#DejaVuSans-74" transform="translate(1505.615234 0)"/>
     <use xlink:href="#DejaVuSans-73" transform="translate(1544.824219 0)"/>
     <use xlink:href="#DejaVuSans-20" transform="translate(1596.923828 0)"/>
     <use xlink:href="#DejaVuSans-73" transform="translate(1628.710938 0)"/>
     <use xlink:href="#DejaVuSans-68" transform="translate(1680.810547 0)"/>
     <use xlink:href="#DejaVuSans-6f" transform="translate(1744.189453 0)"/>
     <use xlink:href="#DejaVuSans-75" transform="translate(1805.371094 0)"/>
     <use xlink:href="#DejaVuSans-6c" transform="translate(1868.75 0)"/>
     <use xlink:href="#DejaVuSans-64" transform="translate(1896.533203 0)"/>
     <use xlink:href="#DejaVuSans-20" transform="translate(1960.009766 0)"/>
     <use xlink:href="#DejaVuSans-65" transform="translate(1991.796875 0)"/>
     <use xlink:href="#DejaVuSans-61" transform="translate(2053.320312 0)"/>
     <use xlink:href="#DejaVuSans-63" transform="translate(2114.599609 0)"/>
     <use xlink:href="#DejaVuSans-68" transform="translate(2169.580078 0)"/>
     <use xlink:href="#DejaVuSans-20" transform="translate(2232.958984 0)"/>
     <use xlink:href="#DejaVuSans-41" transform="translate(2264.746094 0)"/>
     <use xlink:href="#DejaVuSans-50" transform="translate(2333.154297 0)"/>
     <use xlink:href="#DejaVuSans-20" transform="translate(2393.457031 0)"/>
     <use xlink:href="#DejaVuSans-73" transform="translate(2425.244141 0)"/>
     <use xlink:href="#DejaVuSans-74" transform="translate(2477.34375 0)"/>
     <use xlink:href="#DejaVuSans-6f" transform="translate(2516.552734 0)"/>
     <use xlink:href="#DejaVuSans-72" transform="translate(2577.734375 0)"/>
     <use xlink:href="#DejaVuSans-65" transform="translate(2616.597656 0)"/>
     <use xlink:href="#DejaVuSans-2c" transform="translate(2678.121094 0)"/>
    </g>
    <!-- given mobility, cooperation, capacity, and update cost? -->
    <g transform="translate(78.624 416.3472) scale(0.23 -0.23)">
     <defs>
      <path id="DejaVuSans-76" d="M 191 3500 
L 800 3500 
L 1894 563 
L 2988 3500 
L 3597 3500 
L 2284 0 
L 1503 0 
L 191 3500 
z
" transform="scale(0.015625)"/>
      <path id="DejaVuSans-6d" d="M 3328 2828 
Q 3544 3216 3844 3400 
Q 4144 3584 4550 3584 
Q 5097 3584 5394 3201 
Q 5691 2819 5691 2113 
L 5691 0 
L 5113 0 
L 5113 2094 
Q 5113 2597 4934 2840 
Q 4756 3084 4391 3084 
Q 3944 3084 3684 2787 
Q 3425 2491 3425 1978 
L 3425 0 
L 2847 0 
L 2847 2094 
Q 2847 2600 2669 2842 
Q 2491 3084 2119 3084 
Q 1678 3084 1418 2786 
Q 1159 2488 1159 1978 
L 1159 0 
L 581 0 
L 581 3500 
L 1159 3500 
L 1159 2956 
Q 1356 3278 1631 3431 
Q 1906 3584 2284 3584 
Q 2666 3584 2933 3390 
Q 3200 3197 3328 2828 
z
" transform="scale(0.015625)"/>
      <path id="DejaVuSans-70" d="M 1159 525 
L 1159 -1331 
L 581 -1331 
L 581 3500 
L 1159 3500 
L 1159 2969 
Q 1341 3281 1617 3432 
Q 1894 3584 2278 3584 
Q 2916 3584 3314 3078 
Q 3713 2572 3713 1747 
Q 3713 922 3314 415 
Q 2916 -91 2278 -91 
Q 1894 -91 1617 61 
Q 1341 213 1159 525 
z
M 3116 1747 
Q 3116 2381 2855 2742 
Q 2594 3103 2138 3103 
Q 1681 3103 1420 2742 
Q 1159 2381 1159 1747 
Q 1159 1113 1420 752 
Q 1681 391 2138 391 
Q 2594 391 2855 752 
Q 3116 1113 3116 1747 
z
" transform="scale(0.015625)"/>
      <path id="DejaVuSans-3f" d="M 1222 794 
L 1856 794 
L 1856 0 
L 1222 0 
L 1222 794 
z
M 1838 1253 
L 1241 1253 
L 1241 1734 
Q 1241 2050 1328 2253 
Q 1416 2456 1697 2725 
L 1978 3003 
Q 2156 3169 2236 3316 
Q 2316 3463 2316 3616 
Q 2316 3894 2111 4066 
Q 1906 4238 1569 4238 
Q 1322 4238 1042 4128 
Q 763 4019 459 3809 
L 459 4397 
Q 753 4575 1054 4662 
Q 1356 4750 1678 4750 
Q 2253 4750 2601 4447 
Q 2950 4144 2950 3647 
Q 2950 3409 2837 3195 
Q 2725 2981 2444 2713 
L 2169 2444 
Q 2022 2297 1961 2214 
Q 1900 2131 1875 2053 
Q 1856 1988 1847 1894 
Q 1838 1800 1838 1638 
L 1838 1253 
z
" transform="scale(0.015625)"/>
     </defs>
     <use xlink:href="#DejaVuSans-67"/>
     <use xlink:href="#DejaVuSans-69" transform="translate(63.476562 0)"/>
     <use xlink:href="#DejaVuSans-76" transform="translate(91.259766 0)"/>
     <use xlink:href="#DejaVuSans-65" transform="translate(150.439453 0)"/>
     <use xlink:href="#DejaVuSans-6e" transform="translate(211.962891 0)"/>
     <use xlink:href="#DejaVuSans-20" transform="translate(275.341797 0)"/>
     <use xlink:href="#DejaVuSans-6d" transform="translate(307.128906 0)"/>
     <use xlink:href="#DejaVuSans-6f" transform="translate(404.541016 0)"/>
     <use xlink:href="#DejaVuSans-62" transform="translate(465.722656 0)"/>
     <use xlink:href="#DejaVuSans-69" transform="translate(529.199219 0)"/>
     <use xlink:href="#DejaVuSans-6c" transform="translate(556.982422 0)"/>
     <use xlink:href="#DejaVuSans-69" transform="translate(584.765625 0)"/>
     <use xlink:href="#DejaVuSans-74" transform="translate(612.548828 0)"/>
     <use xlink:href="#DejaVuSans-79" transform="translate(651.757812 0)"/>
     <use xlink:href="#DejaVuSans-2c" transform="translate(710.9375 0)"/>
     <use xlink:href="#DejaVuSans-20" transform="translate(742.724609 0)"/>
     <use xlink:href="#DejaVuSans-63" transform="translate(774.511719 0)"/>
     <use xlink:href="#DejaVuSans-6f" transform="translate(829.492188 0)"/>
     <use xlink:href="#DejaVuSans-6f" transform="translate(890.673828 0)"/>
     <use xlink:href="#DejaVuSans-70" transform="translate(951.855469 0)"/>
     <use xlink:href="#DejaVuSans-65" transform="translate(1015.332031 0)"/>
     <use xlink:href="#DejaVuSans-72" transform="translate(1076.855469 0)"/>
     <use xlink:href="#DejaVuSans-61" transform="translate(1117.96875 0)"/>
     <use xlink:href="#DejaVuSans-74" transform="translate(1179.248047 0)"/>
     <use xlink:href="#DejaVuSans-69" transform="translate(1218.457031 0)"/>
     <use xlink:href="#DejaVuSans-6f" transform="translate(1246.240234 0)"/>
     <use xlink:href="#DejaVuSans-6e" transform="translate(1307.421875 0)"/>
     <use xlink:href="#DejaVuSans-2c" transform="translate(1370.800781 0)"/>
     <use xlink:href="#DejaVuSans-20" transform="translate(1402.587891 0)"/>
     <use xlink:href="#DejaVuSans-63" transform="translate(1434.375 0)"/>
     <use xlink:href="#DejaVuSans-61" transform="translate(1489.355469 0)"/>
     <use xlink:href="#DejaVuSans-70" transform="translate(1550.634766 0)"/>
     <use xlink:href="#DejaVuSans-61" transform="translate(1614.111328 0)"/>
     <use xlink:href="#DejaVuSans-63" transform="translate(1675.390625 0)"/>
     <use xlink:href="#DejaVuSans-69" transform="translate(1730.371094 0)"/>
     <use xlink:href="#DejaVuSans-74" transform="translate(1758.154297 0)"/>
     <use xlink:href="#DejaVuSans-79" transform="translate(1797.363281 0)"/>
     <use xlink:href="#DejaVuSans-2c" transform="translate(1856.542969 0)"/>
     <use xlink:href="#DejaVuSans-20" transform="translate(1888.330078 0)"/>
     <use xlink:href="#DejaVuSans-61" transform="translate(1920.117188 0)"/>
     <use xlink:href="#DejaVuSans-6e" transform="translate(1981.396484 0)"/>
     <use xlink:href="#DejaVuSans-64" transform="translate(2044.775391 0)"/>
     <use xlink:href="#DejaVuSans-20" transform="translate(2108.251953 0)"/>
     <use xlink:href="#DejaVuSans-75" transform="translate(2140.039062 0)"/>
     <use xlink:href="#DejaVuSans-70" transform="translate(2203.417969 0)"/>
     <use xlink:href="#DejaVuSans-64" transform="translate(2266.894531 0)"/>
     <use xlink:href="#DejaVuSans-61" transform="translate(2330.371094 0)"/>
     <use xlink:href="#DejaVuSans-74" transform="translate(2391.650391 0)"/>
     <use xlink:href="#DejaVuSans-65" transform="translate(2430.859375 0)"/>
     <use xlink:href="#DejaVuSans-20" transform="translate(2492.382812 0)"/>
     <use xlink:href="#DejaVuSans-63" transform="translate(2524.169922 0)"/>
     <use xlink:href="#DejaVuSans-6f" transform="translate(2579.150391 0)"/>
     <use xlink:href="#DejaVuSans-73" transform="translate(2640.332031 0)"/>
     <use xlink:href="#DejaVuSans-74" transform="translate(2692.431641 0)"/>
     <use xlink:href="#DejaVuSans-3f" transform="translate(2731.640625 0)"/>
    </g>
   </g>
  </g>
 </g>
 <defs>
  <clipPath id="p07ad79c590">
   <rect x="7.2" y="7.2" width="892.8" height="498.96"/>
  </clipPath>
 </defs>
</svg>
