<?xml version="1.0" encoding="utf-8" standalone="no"?>
<!DOCTYPE svg PUBLIC "-//W3C//DTD SVG 1.1//EN"
  "http://www.w3.org/Graphics/SVG/1.1/DTD/svg11.dtd">
<svg xmlns:xlink="http://www.w3.org/1999/xlink" width="1241.047438pt" height="513.36pt" viewBox="0 0 1241.047438 513.36" xmlns="http://www.w3.org/2000/svg" version="1.1">
 <metadata>
  <rdf:RDF xmlns:dc="http://purl.org/dc/elements/1.1/" xmlns:cc="http://creativecommons.org/ns#" xmlns:rdf="http://www.w3.org/1999/02/22-rdf-syntax-ns#">
   <cc:Work>
    <dc:type rdf:resource="http://purl.org/dc/dcmitype/StillImage"/>
    <dc:date>2026-05-06T22:43:55.996232</dc:date>
    <dc:format>image/svg+xml</dc:format>
    <dc:creator>
     <cc:Agent>
      <dc:title>Matplotlib v3.10.9, https://matplotlib.org/</dc:title>
     </cc:Agent>
    </dc:creator>
   </cc:Work>
  </rdf:RDF>
 </metadata>
 <defs>
  <style type="text/css">*{stroke-linejoin: round; stroke-linecap: butt}</style>
 </defs>
 <g id="figure_1">
  <g id="patch_1">
   <path d="M 0 513.36 
L 1241.047438 513.36 
L 1241.047438 -0 
L 0 -0 
z
" style="fill: #ffffff"/>
  </g>
  <g id="axes_1">
   <g id="patch_2">
    <path d="M 78.624 294.102 
L 221.472 294.102 
Q 252.72 294.102 252.72 276.6384 
L 252.72 166.8672 
Q 252.72 149.4036 221.472 149.4036 
L 78.624 149.4036 
Q 47.376 149.4036 47.376 166.8672 
L 47.376 276.6384 
Q 47.376 294.102 78.624 294.102 
z
" clip-path="url(#pcc1fa2ad6b)" style="fill: #f5f7fb; stroke: #3b5b7c; stroke-width: 2.2; stroke-linejoin: miter"/>
   </g>
   <g id="patch_3">
    <path d="M 283.968 294.102 
L 426.816 294.102 
Q 458.064 294.102 458.064 276.6384 
L 458.064 166.8672 
Q 458.064 149.4036 426.816 149.4036 
L 283.968 149.4036 
Q 252.72 149.4036 252.72 166.8672 
L 252.72 276.6384 
Q 252.72 294.102 283.968 294.102 
z
" clip-path="url(#pcc1fa2ad6b)" style="fill: #f5f7fb; stroke: #3b5b7c; stroke-width: 2.2; stroke-linejoin: miter"/>
   </g>
   <g id="patch_4">
    <path d="M 489.312 294.102 
L 632.16 294.102 
Q 663.408 294.102 663.408 276.6384 
L 663.408 166.8672 
Q 663.408 149.4036 632.16 149.4036 
L 489.312 149.4036 
Q 458.064 149.4036 458.064 166.8672 
L 458.064 276.6384 
Q 458.064 294.102 489.312 294.102 
z
" clip-path="url(#pcc1fa2ad6b)" style="fill: #f5f7fb; stroke: #3b5b7c; stroke-width: 2.2; stroke-linejoin: miter"/>
   </g>
   <g id="patch_5">
    <path d="M 694.656 294.102 
L 837.504 294.102 
Q 868.752 294.102 868.752 276.6384 
L 868.752 166.8672 
Q 868.752 149.4036 837.504 149.4036 
L 694.656 149.4036 
Q 663.408 149.4036 663.408 166.8672 
L 663.408 276.6384 
Q 663.408 294.102 694.656 294.102 
z
" clip-path="url(#pcc1fa2ad6b)" style="fill: #f5f7fb; stroke: #3b5b7c; stroke-width: 2.2; stroke-linejoin: miter"/>
   </g>
   <g id="text_1">
    <!-- Research Questions -->
    <g transform="translate(33.984 47.1168) scale(0.3 -0.3)">
     <defs>
      <path id="DejaVuSans-Bold-52" d="M 2297 2597 
Q 2675 2597 2839 2737 
Q 3003 2878 3003 3200 
Q 3003 3519 2839 3656 
Q 2675 3794 2297 3794 
L 1791 3794 
L 1791 2597 
L 2297 2597 
z
M 1791 1766 
L 1791 0 
L 588 0 
L 588 4666 
L 2425 4666 
Q 3347 4666 3776 4356 
Q 4206 4047 4206 3378 
Q 4206 2916 3982 2619 
Q 3759 2322 3309 2181 
Q 3556 2125 3751 1926 
Q 3947 1728 4147 1325 
L 4800 0 
L 3519 0 
L 2950 1159 
Q 2778 1509 2601 1637 
Q 2425 1766 2131 1766 
L 1791 1766 
z
" transform="scale(0.015625)"/>
      <path id="DejaVuSans-Bold-65" d="M 4031 1759 
L 4031 1441 
L 1416 1441 
Q 1456 1047 1700 850 
Q 1944 653 2381 653 
Q 2734 653 3104 758 
Q 3475 863 3866 1075 
L 3866 213 
Q 3469 63 3072 -14 
Q 2675 -91 2278 -91 
Q 1328 -91 801 392 
Q 275 875 275 1747 
Q 275 2603 792 3093 
Q 1309 3584 2216 3584 
Q 3041 3584 3536 3087 
Q 4031 2591 4031 1759 
z
M 2881 2131 
Q 2881 2450 2695 2645 
Q 2509 2841 2209 2841 
Q 1884 2841 1681 2658 
Q 1478 2475 1428 2131 
L 2881 2131 
z
" transform="scale(0.015625)"/>
      <path id="DejaVuSans-Bold-73" d="M 3272 3391 
L 3272 2541 
Q 2913 2691 2578 2766 
Q 2244 2841 1947 2841 
Q 1628 2841 1473 2761 
Q 1319 2681 1319 2516 
Q 1319 2381 1436 2309 
Q 1553 2238 1856 2203 
L 2053 2175 
Q 2913 2066 3209 1816 
Q 3506 1566 3506 1031 
Q 3506 472 3093 190 
Q 2681 -91 1863 -91 
Q 1516 -91 1145 -36 
Q 775 19 384 128 
L 384 978 
Q 719 816 1070 734 
Q 1422 653 1784 653 
Q 2113 653 2278 743 
Q 2444 834 2444 1013 
Q 2444 1163 2330 1236 
Q 2216 1309 1875 1350 
L 1678 1375 
Q 931 1469 631 1722 
Q 331 1975 331 2491 
Q 331 3047 712 3315 
Q 1094 3584 1881 3584 
Q 2191 3584 2531 3537 
Q 2872 3491 3272 3391 
z
" transform="scale(0.015625)"/>
      <path id="DejaVuSans-Bold-61" d="M 2106 1575 
Q 1756 1575 1579 1456 
Q 1403 1338 1403 1106 
Q 1403 894 1545 773 
Q 1688 653 1941 653 
Q 2256 653 2472 879 
Q 2688 1106 2688 1447 
L 2688 1575 
L 2106 1575 
z
M 3816 1997 
L 3816 0 
L 2688 0 
L 2688 519 
Q 2463 200 2181 54 
Q 1900 -91 1497 -91 
Q 953 -91 614 226 
Q 275 544 275 1050 
Q 275 1666 698 1953 
Q 1122 2241 2028 2241 
L 2688 2241 
L 2688 2328 
Q 2688 2594 2478 2717 
Q 2269 2841 1825 2841 
Q 1466 2841 1156 2769 
Q 847 2697 581 2553 
L 581 3406 
Q 941 3494 1303 3539 
Q 1666 3584 2028 3584 
Q 2975 3584 3395 3211 
Q 3816 2838 3816 1997 
z
" transform="scale(0.015625)"/>
      <path id="DejaVuSans-Bold-72" d="M 3138 2547 
Q 2991 2616 2845 2648 
Q 2700 2681 2553 2681 
Q 2122 2681 1889 2404 
Q 1656 2128 1656 1613 
L 1656 0 
L 538 0 
L 538 3500 
L 1656 3500 
L 1656 2925 
Q 1872 3269 2151 3426 
Q 2431 3584 2822 3584 
Q 2878 3584 2943 3579 
Q 3009 3575 3134 3559 
L 3138 2547 
z
" transform="scale(0.015625)"/>
      <path id="DejaVuSans-Bold-63" d="M 3366 3391 
L 3366 2478 
Q 3138 2634 2908 2709 
Q 2678 2784 2431 2784 
Q 1963 2784 1702 2511 
Q 1441 2238 1441 1747 
Q 1441 1256 1702 982 
Q 1963 709 2431 709 
Q 2694 709 2930 787 
Q 3166 866 3366 1019 
L 3366 103 
Q 3103 6 2833 -42 
Q 2563 -91 2291 -91 
Q 1344 -91 809 395 
Q 275 881 275 1747 
Q 275 2613 809 3098 
Q 1344 3584 2291 3584 
Q 2566 3584 2833 3536 
Q 3100 3488 3366 3391 
z
" transform="scale(0.015625)"/>
      <path id="DejaVuSans-Bold-68" d="M 4056 2131 
L 4056 0 
L 2931 0 
L 2931 347 
L 2931 1625 
Q 2931 2084 2911 2256 
Q 2891 2428 2841 2509 
Q 2775 2619 2662 2680 
Q 2550 2741 2406 2741 
Q 2056 2741 1856 2470 
Q 1656 2200 1656 1722 
L 1656 0 
L 538 0 
L 538 4863 
L 1656 4863 
L 1656 2988 
Q 1909 3294 2193 3439 
Q 2478 3584 2822 3584 
Q 3428 3584 3742 3212 
Q 4056 2841 4056 2131 
z
" transform="scale(0.015625)"/>
      <path id="DejaVuSans-Bold-20" transform="scale(0.015625)"/>
      <path id="DejaVuSans-Bold-51" d="M 2847 -84 
L 2753 -84 
Q 1600 -84 959 553 
Q 319 1191 319 2328 
Q 319 3463 958 4106 
Q 1597 4750 2719 4750 
Q 3853 4750 4486 4112 
Q 5119 3475 5119 2328 
Q 5119 1541 4783 972 
Q 4447 403 3816 116 
L 4756 -934 
L 3609 -934 
L 2847 -84 
z
M 2719 3878 
Q 2169 3878 1866 3472 
Q 1563 3066 1563 2328 
Q 1563 1578 1859 1179 
Q 2156 781 2719 781 
Q 3272 781 3575 1187 
Q 3878 1594 3878 2328 
Q 3878 3066 3575 3472 
Q 3272 3878 2719 3878 
z
" transform="scale(0.015625)"/>
      <path id="DejaVuSans-Bold-75" d="M 500 1363 
L 500 3500 
L 1625 3500 
L 1625 3150 
Q 1625 2866 1622 2436 
Q 1619 2006 1619 1863 
Q 1619 1441 1641 1255 
Q 1663 1069 1716 984 
Q 1784 875 1895 815 
Q 2006 756 2150 756 
Q 2500 756 2700 1025 
Q 2900 1294 2900 1772 
L 2900 3500 
L 4019 3500 
L 4019 0 
L 2900 0 
L 2900 506 
Q 2647 200 2364 54 
Q 2081 -91 1741 -91 
Q 1134 -91 817 281 
Q 500 653 500 1363 
z
" transform="scale(0.015625)"/>
      <path id="DejaVuSans-Bold-74" d="M 1759 4494 
L 1759 3500 
L 2913 3500 
L 2913 2700 
L 1759 2700 
L 1759 1216 
Q 1759 972 1856 886 
Q 1953 800 2241 800 
L 2816 800 
L 2816 0 
L 1856 0 
Q 1194 0 917 276 
Q 641 553 641 1216 
L 641 2700 
L 84 2700 
L 84 3500 
L 641 3500 
L 641 4494 
L 1759 4494 
z
" transform="scale(0.015625)"/>
      <path id="DejaVuSans-Bold-69" d="M 538 3500 
L 1656 3500 
L 1656 0 
L 538 0 
L 538 3500 
z
M 538 4863 
L 1656 4863 
L 1656 3950 
L 538 3950 
L 538 4863 
z
" transform="scale(0.015625)"/>
      <path id="DejaVuSans-Bold-6f" d="M 2203 2784 
Q 1831 2784 1636 2517 
Q 1441 2250 1441 1747 
Q 1441 1244 1636 976 
Q 1831 709 2203 709 
Q 2569 709 2762 976 
Q 2956 1244 2956 1747 
Q 2956 2250 2762 2517 
Q 2569 2784 2203 2784 
z
M 2203 3584 
Q 3106 3584 3614 3096 
Q 4122 2609 4122 1747 
Q 4122 884 3614 396 
Q 3106 -91 2203 -91 
Q 1297 -91 786 396 
Q 275 884 275 1747 
Q 275 2609 786 3096 
Q 1297 3584 2203 3584 
z
" transform="scale(0.015625)"/>
      <path id="DejaVuSans-Bold-6e" d="M 4056 2131 
L 4056 0 
L 2931 0 
L 2931 347 
L 2931 1631 
Q 2931 2084 2911 2256 
Q 2891 2428 2841 2509 
Q 2775 2619 2662 2680 
Q 2550 2741 2406 2741 
Q 2056 2741 1856 2470 
Q 1656 2200 1656 1722 
L 1656 0 
L 538 0 
L 538 3500 
L 1656 3500 
L 1656 2988 
Q 1909 3294 2193 3439 
Q 2478 3584 2822 3584 
Q 3428 3584 3742 3212 
Q 4056 2841 4056 2131 
z
" transform="scale(0.015625)"/>
     </defs>
     <use xlink:href="#DejaVuSans-Bold-52"/>
     <use xlink:href="#DejaVuSans-Bold-65" transform="translate(77.001953 0)"/>
     <use xlink:href="#DejaVuSans-Bold-73" transform="translate(144.824219 0)"/>
     <use xlink:href="#DejaVuSans-Bold-65" transform="translate(204.345703 0)"/>
     <use xlink:href="#DejaVuSans-Bold-61" transform="translate(272.167969 0)"/>
     <use xlink:href="#DejaVuSans-Bold-72" transform="translate(339.648438 0)"/>
     <use xlink:href="#DejaVuSans-Bold-63" transform="translate(388.964844 0)"/>
     <use xlink:href="#DejaVuSans-Bold-68" transform="translate(448.242188 0)"/>
     <use xlink:href="#DejaVuSans-Bold-20" transform="translate(519.433594 0)"/>
     <use xlink:href="#DejaVuSans-Bold-51" transform="translate(554.248047 0)"/>
     <use xlink:href="#DejaVuSans-Bold-75" transform="translate(639.257812 0)"/>
     <use xlink:href="#DejaVuSans-Bold-65" transform="translate(710.449219 0)"/>
     <use xlink:href="#DejaVuSans-Bold-73" transform="translate(778.271484 0)"/>
     <use xlink:href="#DejaVuSans-Bold-74" transform="translate(837.792969 0)"/>
     <use xlink:href="#DejaVuSans-Bold-69" transform="translate(885.595703 0)"/>
     <use xlink:href="#DejaVuSans-Bold-6f" transform="translate(919.873047 0)"/>
     <use xlink:href="#DejaVuSans-Bold-6e" transform="translate(988.574219 0)"/>
     <use xlink:href="#DejaVuSans-Bold-73" transform="translate(1059.765625 0)"/>
    </g>
   </g>
   <g id="text_2">
    <!-- RQ1 -->
    <g transform="translate(126.888625 204.719675) scale(0.2 -0.2)">
     <defs>
      <path id="DejaVuSans-Bold-31" d="M 750 831 
L 1813 831 
L 1813 3847 
L 722 3622 
L 722 4441 
L 1806 4666 
L 2950 4666 
L 2950 831 
L 4013 831 
L 4013 0 
L 750 0 
L 750 831 
z
" transform="scale(0.015625)"/>
     </defs>
     <use xlink:href="#DejaVuSans-Bold-52"/>
     <use xlink:href="#DejaVuSans-Bold-51" transform="translate(77.001953 0)"/>
     <use xlink:href="#DejaVuSans-Bold-31" transform="translate(162.011719 0)"/>
    </g>
    <!-- Mobility -->
    <g transform="translate(104.4855 227.1153) scale(0.2 -0.2)">
     <defs>
      <path id="DejaVuSans-Bold-4d" d="M 588 4666 
L 2119 4666 
L 3181 2169 
L 4250 4666 
L 5778 4666 
L 5778 0 
L 4641 0 
L 4641 3413 
L 3566 897 
L 2803 897 
L 1728 3413 
L 1728 0 
L 588 0 
L 588 4666 
z
" transform="scale(0.015625)"/>
      <path id="DejaVuSans-Bold-62" d="M 2400 722 
Q 2759 722 2948 984 
Q 3138 1247 3138 1747 
Q 3138 2247 2948 2509 
Q 2759 2772 2400 2772 
Q 2041 2772 1848 2508 
Q 1656 2244 1656 1747 
Q 1656 1250 1848 986 
Q 2041 722 2400 722 
z
M 1656 2988 
Q 1888 3294 2169 3439 
Q 2450 3584 2816 3584 
Q 3463 3584 3878 3070 
Q 4294 2556 4294 1747 
Q 4294 938 3878 423 
Q 3463 -91 2816 -91 
Q 2450 -91 2169 54 
Q 1888 200 1656 506 
L 1656 0 
L 538 0 
L 538 4863 
L 1656 4863 
L 1656 2988 
z
" transform="scale(0.015625)"/>
      <path id="DejaVuSans-Bold-6c" d="M 538 4863 
L 1656 4863 
L 1656 0 
L 538 0 
L 538 4863 
z
" transform="scale(0.015625)"/>
      <path id="DejaVuSans-Bold-79" d="M 78 3500 
L 1197 3500 
L 2138 1125 
L 2938 3500 
L 4056 3500 
L 2584 -331 
Q 2363 -916 2067 -1148 
Q 1772 -1381 1288 -1381 
L 641 -1381 
L 641 -647 
L 991 -647 
Q 1275 -647 1404 -556 
Q 1534 -466 1606 -231 
L 1638 -134 
L 78 3500 
z
" transform="scale(0.015625)"/>
     </defs>
     <use xlink:href="#DejaVuSans-Bold-4d"/>
     <use xlink:href="#DejaVuSans-Bold-6f" transform="translate(99.511719 0)"/>
     <use xlink:href="#DejaVuSans-Bold-62" transform="translate(168.212891 0)"/>
     <use xlink:href="#DejaVuSans-Bold-69" transform="translate(239.794922 0)"/>
     <use xlink:href="#DejaVuSans-Bold-6c" transform="translate(274.072266 0)"/>
     <use xlink:href="#DejaVuSans-Bold-69" transform="translate(308.349609 0)"/>
     <use xlink:href="#DejaVuSans-Bold-74" transform="translate(342.626953 0)"/>
     <use xlink:href="#DejaVuSans-Bold-79" transform="translate(390.429688 0)"/>
    </g>
    <!-- -&gt; graph? -->
    <g transform="translate(95.121437 249.667175) scale(0.2 -0.2)">
     <defs>
      <path id="DejaVuSans-Bold-2d" d="M 347 2297 
L 2309 2297 
L 2309 1388 
L 347 1388 
L 347 2297 
z
" transform="scale(0.015625)"/>
      <path id="DejaVuSans-Bold-3e" d="M 678 3041 
L 678 3822 
L 4684 2375 
L 4684 1638 
L 678 191 
L 678 972 
L 3694 2003 
L 678 3041 
z
" transform="scale(0.015625)"/>
      <path id="DejaVuSans-Bold-67" d="M 2919 594 
Q 2688 288 2409 144 
Q 2131 0 1766 0 
Q 1125 0 706 504 
Q 288 1009 288 1791 
Q 288 2575 706 3076 
Q 1125 3578 1766 3578 
Q 2131 3578 2409 3434 
Q 2688 3291 2919 2981 
L 2919 3500 
L 4044 3500 
L 4044 353 
Q 4044 -491 3511 -936 
Q 2978 -1381 1966 -1381 
Q 1638 -1381 1331 -1331 
Q 1025 -1281 716 -1178 
L 716 -306 
Q 1009 -475 1290 -558 
Q 1572 -641 1856 -641 
Q 2406 -641 2662 -400 
Q 2919 -159 2919 353 
L 2919 594 
z
M 2181 2772 
Q 1834 2772 1640 2515 
Q 1447 2259 1447 1791 
Q 1447 1309 1634 1061 
Q 1822 813 2181 813 
Q 2531 813 2725 1069 
Q 2919 1325 2919 1791 
Q 2919 2259 2725 2515 
Q 2531 2772 2181 2772 
z
" transform="scale(0.015625)"/>
      <path id="DejaVuSans-Bold-70" d="M 1656 506 
L 1656 -1331 
L 538 -1331 
L 538 3500 
L 1656 3500 
L 1656 2988 
Q 1888 3294 2169 3439 
Q 2450 3584 2816 3584 
Q 3463 3584 3878 3070 
Q 4294 2556 4294 1747 
Q 4294 938 3878 423 
Q 3463 -91 2816 -91 
Q 2450 -91 2169 54 
Q 1888 200 1656 506 
z
M 2400 2772 
Q 2041 2772 1848 2508 
Q 1656 2244 1656 1747 
Q 1656 1250 1848 986 
Q 2041 722 2400 722 
Q 2759 722 2948 984 
Q 3138 1247 3138 1747 
Q 3138 2247 2948 2509 
Q 2759 2772 2400 2772 
z
" transform="scale(0.015625)"/>
      <path id="DejaVuSans-Bold-3f" d="M 2216 1575 
L 1088 1575 
L 1088 1728 
Q 1088 1984 1191 2182 
Q 1294 2381 1625 2688 
L 1825 2869 
Q 2003 3031 2086 3175 
Q 2169 3319 2169 3463 
Q 2169 3681 2019 3804 
Q 1869 3928 1600 3928 
Q 1347 3928 1053 3823 
Q 759 3719 441 3513 
L 441 4494 
Q 819 4625 1131 4687 
Q 1444 4750 1734 4750 
Q 2497 4750 2897 4439 
Q 3297 4128 3297 3531 
Q 3297 3225 3175 2983 
Q 3053 2741 2759 2463 
L 2559 2284 
Q 2347 2091 2281 1973 
Q 2216 1856 2216 1716 
L 2216 1575 
z
M 1088 1113 
L 2216 1113 
L 2216 0 
L 1088 0 
L 1088 1113 
z
" transform="scale(0.015625)"/>
     </defs>
     <use xlink:href="#DejaVuSans-Bold-2d"/>
     <use xlink:href="#DejaVuSans-Bold-3e" transform="translate(41.503906 0)"/>
     <use xlink:href="#DejaVuSans-Bold-20" transform="translate(125.292969 0)"/>
     <use xlink:href="#DejaVuSans-Bold-67" transform="translate(160.107422 0)"/>
     <use xlink:href="#DejaVuSans-Bold-72" transform="translate(231.689453 0)"/>
     <use xlink:href="#DejaVuSans-Bold-61" transform="translate(281.005859 0)"/>
     <use xlink:href="#DejaVuSans-Bold-70" transform="translate(348.486328 0)"/>
     <use xlink:href="#DejaVuSans-Bold-68" transform="translate(420.068359 0)"/>
     <use xlink:href="#DejaVuSans-Bold-3f" transform="translate(491.259766 0)"/>
    </g>
   </g>
   <g id="text_3">
    <!-- RQ2 -->
    <g transform="translate(332.232625 204.7978) scale(0.2 -0.2)">
     <defs>
      <path id="DejaVuSans-Bold-32" d="M 1844 884 
L 3897 884 
L 3897 0 
L 506 0 
L 506 884 
L 2209 2388 
Q 2438 2594 2547 2791 
Q 2656 2988 2656 3200 
Q 2656 3528 2436 3728 
Q 2216 3928 1850 3928 
Q 1569 3928 1234 3808 
Q 900 3688 519 3450 
L 519 4475 
Q 925 4609 1322 4679 
Q 1719 4750 2100 4750 
Q 2938 4750 3402 4381 
Q 3866 4013 3866 3353 
Q 3866 2972 3669 2642 
Q 3472 2313 2841 1759 
L 1844 884 
z
" transform="scale(0.015625)"/>
     </defs>
     <use xlink:href="#DejaVuSans-Bold-52"/>
     <use xlink:href="#DejaVuSans-Bold-51" transform="translate(77.001953 0)"/>
     <use xlink:href="#DejaVuSans-Bold-32" transform="translate(162.011719 0)"/>
    </g>
    <!-- Does topology -->
    <g transform="translate(274.351375 227.193425) scale(0.2 -0.2)">
     <defs>
      <path id="DejaVuSans-Bold-44" d="M 1791 3756 
L 1791 909 
L 2222 909 
Q 2959 909 3348 1275 
Q 3738 1641 3738 2338 
Q 3738 3031 3350 3393 
Q 2963 3756 2222 3756 
L 1791 3756 
z
M 588 4666 
L 1856 4666 
Q 2919 4666 3439 4514 
Q 3959 4363 4331 4000 
Q 4659 3684 4818 3271 
Q 4978 2859 4978 2338 
Q 4978 1809 4818 1395 
Q 4659 981 4331 666 
Q 3956 303 3431 151 
Q 2906 0 1856 0 
L 588 0 
L 588 4666 
z
" transform="scale(0.015625)"/>
     </defs>
     <use xlink:href="#DejaVuSans-Bold-44"/>
     <use xlink:href="#DejaVuSans-Bold-6f" transform="translate(83.007812 0)"/>
     <use xlink:href="#DejaVuSans-Bold-65" transform="translate(151.708984 0)"/>
     <use xlink:href="#DejaVuSans-Bold-73" transform="translate(219.53125 0)"/>
     <use xlink:href="#DejaVuSans-Bold-20" transform="translate(279.052734 0)"/>
     <use xlink:href="#DejaVuSans-Bold-74" transform="translate(313.867188 0)"/>
     <use xlink:href="#DejaVuSans-Bold-6f" transform="translate(361.669922 0)"/>
     <use xlink:href="#DejaVuSans-Bold-70" transform="translate(430.371094 0)"/>
     <use xlink:href="#DejaVuSans-Bold-6f" transform="translate(501.953125 0)"/>
     <use xlink:href="#DejaVuSans-Bold-6c" transform="translate(570.654297 0)"/>
     <use xlink:href="#DejaVuSans-Bold-6f" transform="translate(604.931641 0)"/>
     <use xlink:href="#DejaVuSans-Bold-67" transform="translate(673.632812 0)"/>
     <use xlink:href="#DejaVuSans-Bold-79" transform="translate(745.214844 0)"/>
    </g>
    <!-- help? -->
    <g transform="translate(325.102938 249.7453) scale(0.2 -0.2)">
     <use xlink:href="#DejaVuSans-Bold-68"/>
     <use xlink:href="#DejaVuSans-Bold-65" transform="translate(71.191406 0)"/>
     <use xlink:href="#DejaVuSans-Bold-6c" transform="translate(139.013672 0)"/>
     <use xlink:href="#DejaVuSans-Bold-70" transform="translate(173.291016 0)"/>
     <use xlink:href="#DejaVuSans-Bold-3f" transform="translate(244.873047 0)"/>
    </g>
   </g>
   <g id="text_4">
    <!-- RQ3 -->
    <g transform="translate(537.576625 204.7978) scale(0.2 -0.2)">
     <defs>
      <path id="DejaVuSans-Bold-33" d="M 2981 2516 
Q 3453 2394 3698 2092 
Q 3944 1791 3944 1325 
Q 3944 631 3412 270 
Q 2881 -91 1863 -91 
Q 1503 -91 1142 -33 
Q 781 25 428 141 
L 428 1069 
Q 766 900 1098 814 
Q 1431 728 1753 728 
Q 2231 728 2486 893 
Q 2741 1059 2741 1369 
Q 2741 1688 2480 1852 
Q 2219 2016 1709 2016 
L 1228 2016 
L 1228 2791 
L 1734 2791 
Q 2188 2791 2409 2933 
Q 2631 3075 2631 3366 
Q 2631 3634 2415 3781 
Q 2200 3928 1806 3928 
Q 1516 3928 1219 3862 
Q 922 3797 628 3669 
L 628 4550 
Q 984 4650 1334 4700 
Q 1684 4750 2022 4750 
Q 2931 4750 3382 4451 
Q 3834 4153 3834 3553 
Q 3834 3144 3618 2883 
Q 3403 2622 2981 2516 
z
" transform="scale(0.015625)"/>
     </defs>
     <use xlink:href="#DejaVuSans-Bold-52"/>
     <use xlink:href="#DejaVuSans-Bold-51" transform="translate(77.001953 0)"/>
     <use xlink:href="#DejaVuSans-Bold-33" transform="translate(162.011719 0)"/>
    </g>
    <!-- Does learning -->
    <g transform="translate(482.634437 227.193425) scale(0.2 -0.2)">
     <use xlink:href="#DejaVuSans-Bold-44"/>
     <use xlink:href="#DejaVuSans-Bold-6f" transform="translate(83.007812 0)"/>
     <use xlink:href="#DejaVuSans-Bold-65" transform="translate(151.708984 0)"/>
     <use xlink:href="#DejaVuSans-Bold-73" transform="translate(219.53125 0)"/>
     <use xlink:href="#DejaVuSans-Bold-20" transform="translate(279.052734 0)"/>
     <use xlink:href="#DejaVuSans-Bold-6c" transform="translate(313.867188 0)"/>
     <use xlink:href="#DejaVuSans-Bold-65" transform="translate(348.144531 0)"/>
     <use xlink:href="#DejaVuSans-Bold-61" transform="translate(415.966797 0)"/>
     <use xlink:href="#DejaVuSans-Bold-72" transform="translate(483.447266 0)"/>
     <use xlink:href="#DejaVuSans-Bold-6e" transform="translate(532.763672 0)"/>
     <use xlink:href="#DejaVuSans-Bold-69" transform="translate(603.955078 0)"/>
     <use xlink:href="#DejaVuSans-Bold-6e" transform="translate(638.232422 0)"/>
     <use xlink:href="#DejaVuSans-Bold-67" transform="translate(709.423828 0)"/>
    </g>
    <!-- add value? -->
    <g transform="translate(499.79225 249.7453) scale(0.2 -0.2)">
     <defs>
      <path id="DejaVuSans-Bold-64" d="M 2919 2988 
L 2919 4863 
L 4044 4863 
L 4044 0 
L 2919 0 
L 2919 506 
Q 2688 197 2409 53 
Q 2131 -91 1766 -91 
Q 1119 -91 703 423 
Q 288 938 288 1747 
Q 288 2556 703 3070 
Q 1119 3584 1766 3584 
Q 2128 3584 2408 3439 
Q 2688 3294 2919 2988 
z
M 2181 722 
Q 2541 722 2730 984 
Q 2919 1247 2919 1747 
Q 2919 2247 2730 2509 
Q 2541 2772 2181 2772 
Q 1825 2772 1636 2509 
Q 1447 2247 1447 1747 
Q 1447 1247 1636 984 
Q 1825 722 2181 722 
z
" transform="scale(0.015625)"/>
      <path id="DejaVuSans-Bold-76" d="M 97 3500 
L 1216 3500 
L 2088 1081 
L 2956 3500 
L 4078 3500 
L 2700 0 
L 1472 0 
L 97 3500 
z
" transform="scale(0.015625)"/>
     </defs>
     <use xlink:href="#DejaVuSans-Bold-61"/>
     <use xlink:href="#DejaVuSans-Bold-64" transform="translate(67.480469 0)"/>
     <use xlink:href="#DejaVuSans-Bold-64" transform="translate(139.0625 0)"/>
     <use xlink:href="#DejaVuSans-Bold-20" transform="translate(210.644531 0)"/>
     <use xlink:href="#DejaVuSans-Bold-76" transform="translate(245.458984 0)"/>
     <use xlink:href="#DejaVuSans-Bold-61" transform="translate(310.644531 0)"/>
     <use xlink:href="#DejaVuSans-Bold-6c" transform="translate(378.125 0)"/>
     <use xlink:href="#DejaVuSans-Bold-75" transform="translate(412.402344 0)"/>
     <use xlink:href="#DejaVuSans-Bold-65" transform="translate(483.59375 0)"/>
     <use xlink:href="#DejaVuSans-Bold-3f" transform="translate(551.416016 0)"/>
    </g>
   </g>
   <g id="text_5">
    <!-- RQ4 -->
    <g transform="translate(742.920625 204.875925) scale(0.2 -0.2)">
     <defs>
      <path id="DejaVuSans-Bold-34" d="M 2356 3675 
L 1038 1722 
L 2356 1722 
L 2356 3675 
z
M 2156 4666 
L 3494 4666 
L 3494 1722 
L 4159 1722 
L 4159 850 
L 3494 850 
L 3494 0 
L 2356 0 
L 2356 850 
L 288 850 
L 288 1881 
L 2156 4666 
z
" transform="scale(0.015625)"/>
     </defs>
     <use xlink:href="#DejaVuSans-Bold-52"/>
     <use xlink:href="#DejaVuSans-Bold-51" transform="translate(77.001953 0)"/>
     <use xlink:href="#DejaVuSans-Bold-34" transform="translate(162.011719 0)"/>
    </g>
    <!-- When should -->
    <g transform="translate(692.903437 227.27155) scale(0.2 -0.2)">
     <defs>
      <path id="DejaVuSans-Bold-57" d="M 191 4666 
L 1344 4666 
L 2150 1275 
L 2950 4666 
L 4109 4666 
L 4909 1275 
L 5716 4666 
L 6859 4666 
L 5759 0 
L 4372 0 
L 3525 3547 
L 2688 0 
L 1300 0 
L 191 4666 
z
" transform="scale(0.015625)"/>
     </defs>
     <use xlink:href="#DejaVuSans-Bold-57"/>
     <use xlink:href="#DejaVuSans-Bold-68" transform="translate(110.302734 0)"/>
     <use xlink:href="#DejaVuSans-Bold-65" transform="translate(181.494141 0)"/>
     <use xlink:href="#DejaVuSans-Bold-6e" transform="translate(249.316406 0)"/>
     <use xlink:href="#DejaVuSans-Bold-20" transform="translate(320.507812 0)"/>
     <use xlink:href="#DejaVuSans-Bold-73" transform="translate(355.322266 0)"/>
     <use xlink:href="#DejaVuSans-Bold-68" transform="translate(414.84375 0)"/>
     <use xlink:href="#DejaVuSans-Bold-6f" transform="translate(486.035156 0)"/>
     <use xlink:href="#DejaVuSans-Bold-75" transform="translate(554.736328 0)"/>
     <use xlink:href="#DejaVuSans-Bold-6c" transform="translate(625.927734 0)"/>
     <use xlink:href="#DejaVuSans-Bold-64" transform="translate(660.205078 0)"/>
    </g>
    <!-- we update? -->
    <g transform="translate(701.03 249.667175) scale(0.2 -0.2)">
     <defs>
      <path id="DejaVuSans-Bold-77" d="M 225 3500 
L 1313 3500 
L 1900 1088 
L 2491 3500 
L 3425 3500 
L 4013 1113 
L 4603 3500 
L 5691 3500 
L 4769 0 
L 3547 0 
L 2956 2406 
L 2369 0 
L 1147 0 
L 225 3500 
z
" transform="scale(0.015625)"/>
     </defs>
     <use xlink:href="#DejaVuSans-Bold-77"/>
     <use xlink:href="#DejaVuSans-Bold-65" transform="translate(92.382812 0)"/>
     <use xlink:href="#DejaVuSans-Bold-20" transform="translate(160.205078 0)"/>
     <use xlink:href="#DejaVuSans-Bold-75" transform="translate(195.019531 0)"/>
     <use xlink:href="#DejaVuSans-Bold-70" transform="translate(266.210938 0)"/>
     <use xlink:href="#DejaVuSans-Bold-64" transform="translate(337.792969 0)"/>
     <use xlink:href="#DejaVuSans-Bold-61" transform="translate(409.375 0)"/>
     <use xlink:href="#DejaVuSans-Bold-74" transform="translate(476.855469 0)"/>
     <use xlink:href="#DejaVuSans-Bold-65" transform="translate(524.658203 0)"/>
     <use xlink:href="#DejaVuSans-Bold-3f" transform="translate(592.480469 0)"/>
    </g>
   </g>
   <g id="text_6">
    <!-- The deck answers these in order: formulation -&gt; method -&gt; measured results -&gt; cautious interpretation. -->
    <g transform="translate(78.624 406.368) scale(0.22 -0.22)">
     <defs>
      <path id="DejaVuSans-54" d="M -19 4666 
L 3928 4666 
L 3928 4134 
L 2272 4134 
L 2272 0 
L 1638 0 
L 1638 4134 
L -19 4134 
L -19 4666 
z
" transform="scale(0.015625)"/>
      <path id="DejaVuSans-68" d="M 3513 2113 
L 3513 0 
L 2938 0 
L 2938 2094 
Q 2938 2591 2744 2837 
Q 2550 3084 2163 3084 
Q 1697 3084 1428 2787 
Q 1159 2491 1159 1978 
L 1159 0 
L 581 0 
L 581 4863 
L 1159 4863 
L 1159 2956 
Q 1366 3272 1645 3428 
Q 1925 3584 2291 3584 
Q 2894 3584 3203 3211 
Q 3513 2838 3513 2113 
z
" transform="scale(0.015625)"/>
      <path id="DejaVuSans-65" d="M 3597 1894 
L 3597 1613 
L 953 1613 
Q 991 1019 1311 708 
Q 1631 397 2203 397 
Q 2534 397 2845 478 
Q 3156 559 3463 722 
L 3463 178 
Q 3153 47 2828 -22 
Q 2503 -91 2169 -91 
Q 1331 -91 842 396 
Q 353 884 353 1716 
Q 353 2575 817 3079 
Q 1281 3584 2069 3584 
Q 2775 3584 3186 3129 
Q 3597 2675 3597 1894 
z
M 3022 2063 
Q 3016 2534 2758 2815 
Q 2500 3097 2075 3097 
Q 1594 3097 1305 2825 
Q 1016 2553 972 2059 
L 3022 2063 
z
" transform="scale(0.015625)"/>
      <path id="DejaVuSans-20" transform="scale(0.015625)"/>
      <path id="DejaVuSans-64" d="M 2906 2969 
L 2906 4863 
L 3481 4863 
L 3481 0 
L 2906 0 
L 2906 525 
Q 2725 213 2448 61 
Q 2172 -91 1784 -91 
Q 1150 -91 751 415 
Q 353 922 353 1747 
Q 353 2572 751 3078 
Q 1150 3584 1784 3584 
Q 2172 3584 2448 3432 
Q 2725 3281 2906 2969 
z
M 947 1747 
Q 947 1113 1208 752 
Q 1469 391 1925 391 
Q 2381 391 2643 752 
Q 2906 1113 2906 1747 
Q 2906 2381 2643 2742 
Q 2381 3103 1925 3103 
Q 1469 3103 1208 2742 
Q 947 2381 947 1747 
z
" transform="scale(0.015625)"/>
      <path id="DejaVuSans-63" d="M 3122 3366 
L 3122 2828 
Q 2878 2963 2633 3030 
Q 2388 3097 2138 3097 
Q 1578 3097 1268 2742 
Q 959 2388 959 1747 
Q 959 1106 1268 751 
Q 1578 397 2138 397 
Q 2388 397 2633 464 
Q 2878 531 3122 666 
L 3122 134 
Q 2881 22 2623 -34 
Q 2366 -91 2075 -91 
Q 1284 -91 818 406 
Q 353 903 353 1747 
Q 353 2603 823 3093 
Q 1294 3584 2113 3584 
Q 2378 3584 2631 3529 
Q 2884 3475 3122 3366 
z
" transform="scale(0.015625)"/>
      <path id="DejaVuSans-6b" d="M 581 4863 
L 1159 4863 
L 1159 1991 
L 2875 3500 
L 3609 3500 
L 1753 1863 
L 3688 0 
L 2938 0 
L 1159 1709 
L 1159 0 
L 581 0 
L 581 4863 
z
" transform="scale(0.015625)"/>
      <path id="DejaVuSans-61" d="M 2194 1759 
Q 1497 1759 1228 1600 
Q 959 1441 959 1056 
Q 959 750 1161 570 
Q 1363 391 1709 391 
Q 2188 391 2477 730 
Q 2766 1069 2766 1631 
L 2766 1759 
L 2194 1759 
z
M 3341 1997 
L 3341 0 
L 2766 0 
L 2766 531 
Q 2569 213 2275 61 
Q 1981 -91 1556 -91 
Q 1019 -91 701 211 
Q 384 513 384 1019 
Q 384 1609 779 1909 
Q 1175 2209 1959 2209 
L 2766 2209 
L 2766 2266 
Q 2766 2663 2505 2880 
Q 2244 3097 1772 3097 
Q 1472 3097 1187 3025 
Q 903 2953 641 2809 
L 641 3341 
Q 956 3463 1253 3523 
Q 1550 3584 1831 3584 
Q 2591 3584 2966 3190 
Q 3341 2797 3341 1997 
z
" transform="scale(0.015625)"/>
      <path id="DejaVuSans-6e" d="M 3513 2113 
L 3513 0 
L 2938 0 
L 2938 2094 
Q 2938 2591 2744 2837 
Q 2550 3084 2163 3084 
Q 1697 3084 1428 2787 
Q 1159 2491 1159 1978 
L 1159 0 
L 581 0 
L 581 3500 
L 1159 3500 
L 1159 2956 
Q 1366 3272 1645 3428 
Q 1925 3584 2291 3584 
Q 2894 3584 3203 3211 
Q 3513 2838 3513 2113 
z
" transform="scale(0.015625)"/>
      <path id="DejaVuSans-73" d="M 2834 3397 
L 2834 2853 
Q 2591 2978 2328 3040 
Q 2066 3103 1784 3103 
Q 1356 3103 1142 2972 
Q 928 2841 928 2578 
Q 928 2378 1081 2264 
Q 1234 2150 1697 2047 
L 1894 2003 
Q 2506 1872 2764 1633 
Q 3022 1394 3022 966 
Q 3022 478 2636 193 
Q 2250 -91 1575 -91 
Q 1294 -91 989 -36 
Q 684 19 347 128 
L 347 722 
Q 666 556 975 473 
Q 1284 391 1588 391 
Q 1994 391 2212 530 
Q 2431 669 2431 922 
Q 2431 1156 2273 1281 
Q 2116 1406 1581 1522 
L 1381 1569 
Q 847 1681 609 1914 
Q 372 2147 372 2553 
Q 372 3047 722 3315 
Q 1072 3584 1716 3584 
Q 2034 3584 2315 3537 
Q 2597 3491 2834 3397 
z
" transform="scale(0.015625)"/>
      <path id="DejaVuSans-77" d="M 269 3500 
L 844 3500 
L 1563 769 
L 2278 3500 
L 2956 3500 
L 3675 769 
L 4391 3500 
L 4966 3500 
L 4050 0 
L 3372 0 
L 2619 2869 
L 1863 0 
L 1184 0 
L 269 3500 
z
" transform="scale(0.015625)"/>
      <path id="DejaVuSans-72" d="M 2631 2963 
Q 2534 3019 2420 3045 
Q 2306 3072 2169 3072 
Q 1681 3072 1420 2755 
Q 1159 2438 1159 1844 
L 1159 0 
L 581 0 
L 581 3500 
L 1159 3500 
L 1159 2956 
Q 1341 3275 1631 3429 
Q 1922 3584 2338 3584 
Q 2397 3584 2469 3576 
Q 2541 3569 2628 3553 
L 2631 2963 
z
" transform="scale(0.015625)"/>
      <path id="DejaVuSans-74" d="M 1172 4494 
L 1172 3500 
L 2356 3500 
L 2356 3053 
L 1172 3053 
L 1172 1153 
Q 1172 725 1289 603 
Q 1406 481 1766 481 
L 2356 481 
L 2356 0 
L 1766 0 
Q 1100 0 847 248 
Q 594 497 594 1153 
L 594 3053 
L 172 3053 
L 172 3500 
L 594 3500 
L 594 4494 
L 1172 4494 
z
" transform="scale(0.015625)"/>
      <path id="DejaVuSans-69" d="M 603 3500 
L 1178 3500 
L 1178 0 
L 603 0 
L 603 3500 
z
M 603 4863 
L 1178 4863 
L 1178 4134 
L 603 4134 
L 603 4863 
z
" transform="scale(0.015625)"/>
      <path id="DejaVuSans-6f" d="M 1959 3097 
Q 1497 3097 1228 2736 
Q 959 2375 959 1747 
Q 959 1119 1226 758 
Q 1494 397 1959 397 
Q 2419 397 2687 759 
Q 2956 1122 2956 1747 
Q 2956 2369 2687 2733 
Q 2419 3097 1959 3097 
z
M 1959 3584 
Q 2709 3584 3137 3096 
Q 3566 2609 3566 1747 
Q 3566 888 3137 398 
Q 2709 -91 1959 -91 
Q 1206 -91 779 398 
Q 353 888 353 1747 
Q 353 2609 779 3096 
Q 1206 3584 1959 3584 
z
" transform="scale(0.015625)"/>
      <path id="DejaVuSans-3a" d="M 750 794 
L 1409 794 
L 1409 0 
L 750 0 
L 750 794 
z
M 750 3309 
L 1409 3309 
L 1409 2516 
L 750 2516 
L 750 3309 
z
" transform="scale(0.015625)"/>
      <path id="DejaVuSans-66" d="M 2375 4863 
L 2375 4384 
L 1825 4384 
Q 1516 4384 1395 4259 
Q 1275 4134 1275 3809 
L 1275 3500 
L 2222 3500 
L 2222 3053 
L 1275 3053 
L 1275 0 
L 697 0 
L 697 3053 
L 147 3053 
L 147 3500 
L 697 3500 
L 697 3744 
Q 697 4328 969 4595 
Q 1241 4863 1831 4863 
L 2375 4863 
z
" transform="scale(0.015625)"/>
      <path id="DejaVuSans-6d" d="M 3328 2828 
Q 3544 3216 3844 3400 
Q 4144 3584 4550 3584 
Q 5097 3584 5394 3201 
Q 5691 2819 5691 2113 
L 5691 0 
L 5113 0 
L 5113 2094 
Q 5113 2597 4934 2840 
Q 4756 3084 4391 3084 
Q 3944 3084 3684 2787 
Q 3425 2491 3425 1978 
L 3425 0 
L 2847 0 
L 2847 2094 
Q 2847 2600 2669 2842 
Q 2491 3084 2119 3084 
Q 1678 3084 1418 2786 
Q 1159 2488 1159 1978 
L 1159 0 
L 581 0 
L 581 3500 
L 1159 3500 
L 1159 2956 
Q 1356 3278 1631 3431 
Q 1906 3584 2284 3584 
Q 2666 3584 2933 3390 
Q 3200 3197 3328 2828 
z
" transform="scale(0.015625)"/>
      <path id="DejaVuSans-75" d="M 544 1381 
L 544 3500 
L 1119 3500 
L 1119 1403 
Q 1119 906 1312 657 
Q 1506 409 1894 409 
Q 2359 409 2629 706 
Q 2900 1003 2900 1516 
L 2900 3500 
L 3475 3500 
L 3475 0 
L 2900 0 
L 2900 538 
Q 2691 219 2414 64 
Q 2138 -91 1772 -91 
Q 1169 -91 856 284 
Q 544 659 544 1381 
z
M 1991 3584 
L 1991 3584 
z
" transform="scale(0.015625)"/>
      <path id="DejaVuSans-6c" d="M 603 4863 
L 1178 4863 
L 1178 0 
L 603 0 
L 603 4863 
z
" transform="scale(0.015625)"/>
      <path id="DejaVuSans-2d" d="M 313 2009 
L 1997 2009 
L 1997 1497 
L 313 1497 
L 313 2009 
z
" transform="scale(0.015625)"/>
      <path id="DejaVuSans-3e" d="M 678 3150 
L 678 3719 
L 4684 2266 
L 4684 1747 
L 678 294 
L 678 863 
L 3897 2003 
L 678 3150 
z
" transform="scale(0.015625)"/>
      <path id="DejaVuSans-70" d="M 1159 525 
L 1159 -1331 
L 581 -1331 
L 581 3500 
L 1159 3500 
L 1159 2969 
Q 1341 3281 1617 3432 
Q 1894 3584 2278 3584 
Q 2916 3584 3314 3078 
Q 3713 2572 3713 1747 
Q 3713 922 3314 415 
Q 2916 -91 2278 -91 
Q 1894 -91 1617 61 
Q 1341 213 1159 525 
z
M 3116 1747 
Q 3116 2381 2855 2742 
Q 2594 3103 2138 3103 
Q 1681 3103 1420 2742 
Q 1159 2381 1159 1747 
Q 1159 1113 1420 752 
Q 1681 391 2138 391 
Q 2594 391 2855 752 
Q 3116 1113 3116 1747 
z
" transform="scale(0.015625)"/>
      <path id="DejaVuSans-2e" d="M 684 794 
L 1344 794 
L 1344 0 
L 684 0 
L 684 794 
z
" transform="scale(0.015625)"/>
     </defs>
     <use xlink:href="#DejaVuSans-54"/>
     <use xlink:href="#DejaVuSans-68" transform="translate(61.083984 0)"/>
     <use xlink:href="#DejaVuSans-65" transform="translate(124.462891 0)"/>
     <use xlink:href="#DejaVuSans-20" transform="translate(185.986328 0)"/>
     <use xlink:href="#DejaVuSans-64" transform="translate(217.773438 0)"/>
     <use xlink:href="#DejaVuSans-65" transform="translate(281.25 0)"/>
     <use xlink:href="#DejaVuSans-63" transform="translate(342.773438 0)"/>
     <use xlink:href="#DejaVuSans-6b" transform="translate(397.753906 0)"/>
     <use xlink:href="#DejaVuSans-20" transform="translate(455.664062 0)"/>
     <use xlink:href="#DejaVuSans-61" transform="translate(487.451172 0)"/>
     <use xlink:href="#DejaVuSans-6e" transform="translate(548.730469 0)"/>
     <use xlink:href="#DejaVuSans-73" transform="translate(612.109375 0)"/>
     <use xlink:href="#DejaVuSans-77" transform="translate(664.208984 0)"/>
     <use xlink:href="#DejaVuSans-65" transform="translate(745.996094 0)"/>
     <use xlink:href="#DejaVuSans-72" transform="translate(807.519531 0)"/>
     <use xlink:href="#DejaVuSans-73" transform="translate(848.632812 0)"/>
     <use xlink:href="#DejaVuSans-20" transform="translate(900.732422 0)"/>
     <use xlink:href="#DejaVuSans-74" transform="translate(932.519531 0)"/>
     <use xlink:href="#DejaVuSans-68" transform="translate(971.728516 0)"/>
     <use xlink:href="#DejaVuSans-65" transform="translate(1035.107422 0)"/>
     <use xlink:href="#DejaVuSans-73" transform="translate(1096.630859 0)"/>
     <use xlink:href="#DejaVuSans-65" transform="translate(1148.730469 0)"/>
     <use xlink:href="#DejaVuSans-20" transform="translate(1210.253906 0)"/>
     <use xlink:href="#DejaVuSans-69" transform="translate(1242.041016 0)"/>
     <use xlink:href="#DejaVuSans-6e" transform="translate(1269.824219 0)"/>
     <use xlink:href="#DejaVuSans-20" transform="translate(1333.203125 0)"/>
     <use xlink:href="#DejaVuSans-6f" transform="translate(1364.990234 0)"/>
     <use xlink:href="#DejaVuSans-72" transform="translate(1426.171875 0)"/>
     <use xlink:href="#DejaVuSans-64" transform="translate(1465.535156 0)"/>
     <use xlink:href="#DejaVuSans-65" transform="translate(1529.011719 0)"/>
     <use xlink:href="#DejaVuSans-72" transform="translate(1590.535156 0)"/>
     <use xlink:href="#DejaVuSans-3a" transform="translate(1629.898438 0)"/>
     <use xlink:href="#DejaVuSans-20" transform="translate(1663.589844 0)"/>
     <use xlink:href="#DejaVuSans-66" transform="translate(1695.376953 0)"/>
     <use xlink:href="#DejaVuSans-6f" transform="translate(1730.582031 0)"/>
     <use xlink:href="#DejaVuSans-72" transform="translate(1791.763672 0)"/>
     <use xlink:href="#DejaVuSans-6d" transform="translate(1831.126953 0)"/>
     <use xlink:href="#DejaVuSans-75" transform="translate(1928.539062 0)"/>
     <use xlink:href="#DejaVuSans-6c" transform="translate(1991.917969 0)"/>
     <use xlink:href="#DejaVuSans-61" transform="translate(2019.701172 0)"/>
     <use xlink:href="#DejaVuSans-74" transform="translate(2080.980469 0)"/>
     <use xlink:href="#DejaVuSans-69" transform="translate(2120.189453 0)"/>
     <use xlink:href="#DejaVuSans-6f" transform="translate(2147.972656 0)"/>
     <use xlink:href="#DejaVuSans-6e" transform="translate(2209.154297 0)"/>
     <use xlink:href="#DejaVuSans-20" transform="translate(2272.533203 0)"/>
     <use xlink:href="#DejaVuSans-2d" transform="translate(2304.320312 0)"/>
     <use xlink:href="#DejaVuSans-3e" transform="translate(2340.404297 0)"/>
     <use xlink:href="#DejaVuSans-20" transform="translate(2424.193359 0)"/>
     <use xlink:href="#DejaVuSans-6d" transform="translate(2455.980469 0)"/>
     <use xlink:href="#DejaVuSans-65" transform="translate(2553.392578 0)"/>
     <use xlink:href="#DejaVuSans-74" transform="translate(2614.916016 0)"/>
     <use xlink:href="#DejaVuSans-68" transform="translate(2654.125 0)"/>
     <use xlink:href="#DejaVuSans-6f" transform="translate(2717.503906 0)"/>
     <use xlink:href="#DejaVuSans-64" transform="translate(2778.685547 0)"/>
     <use xlink:href="#DejaVuSans-20" transform="translate(2842.162109 0)"/>
     <use xlink:href="#DejaVuSans-2d" transform="translate(2873.949219 0)"/>
     <use xlink:href="#DejaVuSans-3e" transform="translate(2910.033203 0)"/>
     <use xlink:href="#DejaVuSans-20" transform="translate(2993.822266 0)"/>
     <use xlink:href="#DejaVuSans-6d" transform="translate(3025.609375 0)"/>
     <use xlink:href="#DejaVuSans-65" transform="translate(3123.021484 0)"/>
     <use xlink:href="#DejaVuSans-61" transform="translate(3184.544922 0)"/>
     <use xlink:href="#DejaVuSans-73" transform="translate(3245.824219 0)"/>
     <use xlink:href="#DejaVuSans-75" transform="translate(3297.923828 0)"/>
     <use xlink:href="#DejaVuSans-72" transform="translate(3361.302734 0)"/>
     <use xlink:href="#DejaVuSans-65" transform="translate(3400.166016 0)"/>
     <use xlink:href="#DejaVuSans-64" transform="translate(3461.689453 0)"/>
     <use xlink:href="#DejaVuSans-20" transform="translate(3525.166016 0)"/>
     <use xlink:href="#DejaVuSans-72" transform="translate(3556.953125 0)"/>
     <use xlink:href="#DejaVuSans-65" transform="translate(3595.816406 0)"/>
     <use xlink:href="#DejaVuSans-73" transform="translate(3657.339844 0)"/>
     <use xlink:href="#DejaVuSans-75" transform="translate(3709.439453 0)"/>
     <use xlink:href="#DejaVuSans-6c" transform="translate(3772.818359 0)"/>
     <use xlink:href="#DejaVuSans-74" transform="translate(3800.601562 0)"/>
     <use xlink:href="#DejaVuSans-73" transform="translate(3839.810547 0)"/>
     <use xlink:href="#DejaVuSans-20" transform="translate(3891.910156 0)"/>
     <use xlink:href="#DejaVuSans-2d" transform="translate(3923.697266 0)"/>
     <use xlink:href="#DejaVuSans-3e" transform="translate(3959.78125 0)"/>
     <use xlink:href="#DejaVuSans-20" transform="translate(4043.570312 0)"/>
     <use xlink:href="#DejaVuSans-63" transform="translate(4075.357422 0)"/>
     <use xlink:href="#DejaVuSans-61" transform="translate(4130.337891 0)"/>
     <use xlink:href="#DejaVuSans-75" transform="translate(4191.617188 0)"/>
     <use xlink:href="#DejaVuSans-74" transform="translate(4254.996094 0)"/>
     <use xlink:href="#DejaVuSans-69" transform="translate(4294.205078 0)"/>
     <use xlink:href="#DejaVuSans-6f" transform="translate(4321.988281 0)"/>
     <use xlink:href="#DejaVuSans-75" transform="translate(4383.169922 0)"/>
     <use xlink:href="#DejaVuSans-73" transform="translate(4446.548828 0)"/>
     <use xlink:href="#DejaVuSans-20" transform="translate(4498.648438 0)"/>
     <use xlink:href="#DejaVuSans-69" transform="translate(4530.435547 0)"/>
     <use xlink:href="#DejaVuSans-6e" transform="translate(4558.21875 0)"/>
     <use xlink:href="#DejaVuSans-74" transform="translate(4621.597656 0)"/>
     <use xlink:href="#DejaVuSans-65" transform="translate(4660.806641 0)"/>
     <use xlink:href="#DejaVuSans-72" transform="translate(4722.330078 0)"/>
     <use xlink:href="#DejaVuSans-70" transform="translate(4763.443359 0)"/>
     <use xlink:href="#DejaVuSans-72" transform="translate(4826.919922 0)"/>
     <use xlink:href="#DejaVuSans-65" transform="translate(4865.783203 0)"/>
     <use xlink:href="#DejaVuSans-74" transform="translate(4927.306641 0)"/>
     <use xlink:href="#DejaVuSans-61" transform="translate(4966.515625 0)"/>
     <use xlink:href="#DejaVuSans-74" transform="translate(5027.794922 0)"/>
     <use xlink:href="#DejaVuSans-69" transform="translate(5067.003906 0)"/>
     <use xlink:href="#DejaVuSans-6f" transform="translate(5094.787109 0)"/>
     <use xlink:href="#DejaVuSans-6e" transform="translate(5155.96875 0)"/>
     <use xlink:href="#DejaVuSans-2e" transform="translate(5219.347656 0)"/>
    </g>
   </g>
  </g>
 </g>
 <defs>
  <clipPath id="pcc1fa2ad6b">
   <rect x="7.2" y="7.2" width="892.8" height="498.96"/>
  </clipPath>
 </defs>
</svg>
