<?xml version="1.0" encoding="utf-8" standalone="no"?>
<!DOCTYPE svg PUBLIC "-//W3C//DTD SVG 1.1//EN"
  "http://www.w3.org/Graphics/SVG/1.1/DTD/svg11.dtd">
<svg xmlns:xlink="http://www.w3.org/1999/xlink" width="907.2pt" height="513.36pt" viewBox="0 0 907.2 513.36" xmlns="http://www.w3.org/2000/svg" version="1.1">
 <metadata>
  <rdf:RDF xmlns:dc="http://purl.org/dc/elements/1.1/" xmlns:cc="http://creativecommons.org/ns#" xmlns:rdf="http://www.w3.org/1999/02/22-rdf-syntax-ns#">
   <cc:Work>
    <dc:type rdf:resource="http://purl.org/dc/dcmitype/StillImage"/>
    <dc:date>2026-05-06T22:43:55.894684</dc:date>
    <dc:format>image/svg+xml</dc:format>
    <dc:creator>
     <cc:Agent>
      <dc:title>Matplotlib v3.10.9, https://matplotlib.org/</dc:title>
     </cc:Agent>
    </dc:creator>
   </cc:Work>
  </rdf:RDF>
 </metadata>
 <defs>
  <style type="text/css">*{stroke-linejoin: round; stroke-linecap: butt}</style>
 </defs>
 <g id="figure_1">
  <g id="patch_1">
   <path d="M 0 513.36 
L 907.2 513.36 
L 907.2 -0 
L 0 -0 
z
" style="fill: #ffffff"/>
  </g>
  <g id="axes_1">
   <g id="patch_2">
    <path d="M 87.552 239.2164 
L 266.112 239.2164 
Q 297.36 239.2164 297.36 221.7528 
L 297.36 161.8776 
Q 297.36 144.414 266.112 144.414 
L 87.552 144.414 
Q 56.304 144.414 56.304 161.8776 
L 56.304 221.7528 
Q 56.304 239.2164 87.552 239.2164 
z
" clip-path="url(#p233de89175)" style="fill: #f9e2e2; stroke: #a64040; stroke-width: 2.2; stroke-linejoin: miter"/>
   </g>
   <g id="patch_3">
    <path d="M 364.32 239.2164 
L 542.88 239.2164 
Q 574.128 239.2164 574.128 221.7528 
L 574.128 161.8776 
Q 574.128 144.414 542.88 144.414 
L 364.32 144.414 
Q 333.072 144.414 333.072 161.8776 
L 333.072 221.7528 
Q 333.072 239.2164 364.32 239.2164 
z
" clip-path="url(#p233de89175)" style="fill: #f9e2e2; stroke: #a64040; stroke-width: 2.2; stroke-linejoin: miter"/>
   </g>
   <g id="patch_4">
    <path d="M 641.088 239.2164 
L 819.648 239.2164 
Q 850.896 239.2164 850.896 221.7528 
L 850.896 161.8776 
Q 850.896 144.414 819.648 144.414 
L 641.088 144.414 
Q 609.84 144.414 609.84 161.8776 
L 609.84 221.7528 
Q 609.84 239.2164 641.088 239.2164 
z
" clip-path="url(#p233de89175)" style="fill: #f9e2e2; stroke: #a64040; stroke-width: 2.2; stroke-linejoin: miter"/>
   </g>
   <g id="text_1">
    <!-- Research Gap -->
    <g transform="translate(33.984 47.1168) scale(0.3 -0.3)">
     <defs>
      <path id="DejaVuSans-Bold-52" d="M 2297 2597 
Q 2675 2597 2839 2737 
Q 3003 2878 3003 3200 
Q 3003 3519 2839 3656 
Q 2675 3794 2297 3794 
L 1791 3794 
L 1791 2597 
L 2297 2597 
z
M 1791 1766 
L 1791 0 
L 588 0 
L 588 4666 
L 2425 4666 
Q 3347 4666 3776 4356 
Q 4206 4047 4206 3378 
Q 4206 2916 3982 2619 
Q 3759 2322 3309 2181 
Q 3556 2125 3751 1926 
Q 3947 1728 4147 1325 
L 4800 0 
L 3519 0 
L 2950 1159 
Q 2778 1509 2601 1637 
Q 2425 1766 2131 1766 
L 1791 1766 
z
" transform="scale(0.015625)"/>
      <path id="DejaVuSans-Bold-65" d="M 4031 1759 
L 4031 1441 
L 1416 1441 
Q 1456 1047 1700 850 
Q 1944 653 2381 653 
Q 2734 653 3104 758 
Q 3475 863 3866 1075 
L 3866 213 
Q 3469 63 3072 -14 
Q 2675 -91 2278 -91 
Q 1328 -91 801 392 
Q 275 875 275 1747 
Q 275 2603 792 3093 
Q 1309 3584 2216 3584 
Q 3041 3584 3536 3087 
Q 4031 2591 4031 1759 
z
M 2881 2131 
Q 2881 2450 2695 2645 
Q 2509 2841 2209 2841 
Q 1884 2841 1681 2658 
Q 1478 2475 1428 2131 
L 2881 2131 
z
" transform="scale(0.015625)"/>
      <path id="DejaVuSans-Bold-73" d="M 3272 3391 
L 3272 2541 
Q 2913 2691 2578 2766 
Q 2244 2841 1947 2841 
Q 1628 2841 1473 2761 
Q 1319 2681 1319 2516 
Q 1319 2381 1436 2309 
Q 1553 2238 1856 2203 
L 2053 2175 
Q 2913 2066 3209 1816 
Q 3506 1566 3506 1031 
Q 3506 472 3093 190 
Q 2681 -91 1863 -91 
Q 1516 -91 1145 -36 
Q 775 19 384 128 
L 384 978 
Q 719 816 1070 734 
Q 1422 653 1784 653 
Q 2113 653 2278 743 
Q 2444 834 2444 1013 
Q 2444 1163 2330 1236 
Q 2216 1309 1875 1350 
L 1678 1375 
Q 931 1469 631 1722 
Q 331 1975 331 2491 
Q 331 3047 712 3315 
Q 1094 3584 1881 3584 
Q 2191 3584 2531 3537 
Q 2872 3491 3272 3391 
z
" transform="scale(0.015625)"/>
      <path id="DejaVuSans-Bold-61" d="M 2106 1575 
Q 1756 1575 1579 1456 
Q 1403 1338 1403 1106 
Q 1403 894 1545 773 
Q 1688 653 1941 653 
Q 2256 653 2472 879 
Q 2688 1106 2688 1447 
L 2688 1575 
L 2106 1575 
z
M 3816 1997 
L 3816 0 
L 2688 0 
L 2688 519 
Q 2463 200 2181 54 
Q 1900 -91 1497 -91 
Q 953 -91 614 226 
Q 275 544 275 1050 
Q 275 1666 698 1953 
Q 1122 2241 2028 2241 
L 2688 2241 
L 2688 2328 
Q 2688 2594 2478 2717 
Q 2269 2841 1825 2841 
Q 1466 2841 1156 2769 
Q 847 2697 581 2553 
L 581 3406 
Q 941 3494 1303 3539 
Q 1666 3584 2028 3584 
Q 2975 3584 3395 3211 
Q 3816 2838 3816 1997 
z
" transform="scale(0.015625)"/>
      <path id="DejaVuSans-Bold-72" d="M 3138 2547 
Q 2991 2616 2845 2648 
Q 2700 2681 2553 2681 
Q 2122 2681 1889 2404 
Q 1656 2128 1656 1613 
L 1656 0 
L 538 0 
L 538 3500 
L 1656 3500 
L 1656 2925 
Q 1872 3269 2151 3426 
Q 2431 3584 2822 3584 
Q 2878 3584 2943 3579 
Q 3009 3575 3134 3559 
L 3138 2547 
z
" transform="scale(0.015625)"/>
      <path id="DejaVuSans-Bold-63" d="M 3366 3391 
L 3366 2478 
Q 3138 2634 2908 2709 
Q 2678 2784 2431 2784 
Q 1963 2784 1702 2511 
Q 1441 2238 1441 1747 
Q 1441 1256 1702 982 
Q 1963 709 2431 709 
Q 2694 709 2930 787 
Q 3166 866 3366 1019 
L 3366 103 
Q 3103 6 2833 -42 
Q 2563 -91 2291 -91 
Q 1344 -91 809 395 
Q 275 881 275 1747 
Q 275 2613 809 3098 
Q 1344 3584 2291 3584 
Q 2566 3584 2833 3536 
Q 3100 3488 3366 3391 
z
" transform="scale(0.015625)"/>
      <path id="DejaVuSans-Bold-68" d="M 4056 2131 
L 4056 0 
L 2931 0 
L 2931 347 
L 2931 1625 
Q 2931 2084 2911 2256 
Q 2891 2428 2841 2509 
Q 2775 2619 2662 2680 
Q 2550 2741 2406 2741 
Q 2056 2741 1856 2470 
Q 1656 2200 1656 1722 
L 1656 0 
L 538 0 
L 538 4863 
L 1656 4863 
L 1656 2988 
Q 1909 3294 2193 3439 
Q 2478 3584 2822 3584 
Q 3428 3584 3742 3212 
Q 4056 2841 4056 2131 
z
" transform="scale(0.015625)"/>
      <path id="DejaVuSans-Bold-20" transform="scale(0.015625)"/>
      <path id="DejaVuSans-Bold-47" d="M 4781 347 
Q 4331 128 3847 18 
Q 3363 -91 2847 -91 
Q 1681 -91 1000 561 
Q 319 1213 319 2328 
Q 319 3456 1012 4103 
Q 1706 4750 2913 4750 
Q 3378 4750 3804 4662 
Q 4231 4575 4609 4403 
L 4609 3438 
Q 4219 3659 3833 3768 
Q 3447 3878 3059 3878 
Q 2341 3878 1952 3476 
Q 1563 3075 1563 2328 
Q 1563 1588 1938 1184 
Q 2313 781 3003 781 
Q 3191 781 3352 804 
Q 3513 828 3641 878 
L 3641 1784 
L 2906 1784 
L 2906 2591 
L 4781 2591 
L 4781 347 
z
" transform="scale(0.015625)"/>
      <path id="DejaVuSans-Bold-70" d="M 1656 506 
L 1656 -1331 
L 538 -1331 
L 538 3500 
L 1656 3500 
L 1656 2988 
Q 1888 3294 2169 3439 
Q 2450 3584 2816 3584 
Q 3463 3584 3878 3070 
Q 4294 2556 4294 1747 
Q 4294 938 3878 423 
Q 3463 -91 2816 -91 
Q 2450 -91 2169 54 
Q 1888 200 1656 506 
z
M 2400 2772 
Q 2041 2772 1848 2508 
Q 1656 2244 1656 1747 
Q 1656 1250 1848 986 
Q 2041 722 2400 722 
Q 2759 722 2948 984 
Q 3138 1247 3138 1747 
Q 3138 2247 2948 2509 
Q 2759 2772 2400 2772 
z
" transform="scale(0.015625)"/>
     </defs>
     <use xlink:href="#DejaVuSans-Bold-52"/>
     <use xlink:href="#DejaVuSans-Bold-65" transform="translate(77.001953 0)"/>
     <use xlink:href="#DejaVuSans-Bold-73" transform="translate(144.824219 0)"/>
     <use xlink:href="#DejaVuSans-Bold-65" transform="translate(204.345703 0)"/>
     <use xlink:href="#DejaVuSans-Bold-61" transform="translate(272.167969 0)"/>
     <use xlink:href="#DejaVuSans-Bold-72" transform="translate(339.648438 0)"/>
     <use xlink:href="#DejaVuSans-Bold-63" transform="translate(388.964844 0)"/>
     <use xlink:href="#DejaVuSans-Bold-68" transform="translate(448.242188 0)"/>
     <use xlink:href="#DejaVuSans-Bold-20" transform="translate(519.433594 0)"/>
     <use xlink:href="#DejaVuSans-Bold-47" transform="translate(554.248047 0)"/>
     <use xlink:href="#DejaVuSans-Bold-61" transform="translate(636.328125 0)"/>
     <use xlink:href="#DejaVuSans-Bold-70" transform="translate(703.808594 0)"/>
    </g>
   </g>
   <g id="text_2">
    <!-- Static topology -->
    <g transform="translate(90.832 197.255825) scale(0.2 -0.2)">
     <defs>
      <path id="DejaVuSans-Bold-53" d="M 3834 4519 
L 3834 3531 
Q 3450 3703 3084 3790 
Q 2719 3878 2394 3878 
Q 1963 3878 1756 3759 
Q 1550 3641 1550 3391 
Q 1550 3203 1689 3098 
Q 1828 2994 2194 2919 
L 2706 2816 
Q 3484 2659 3812 2340 
Q 4141 2022 4141 1434 
Q 4141 663 3683 286 
Q 3225 -91 2284 -91 
Q 1841 -91 1394 -6 
Q 947 78 500 244 
L 500 1259 
Q 947 1022 1364 901 
Q 1781 781 2169 781 
Q 2563 781 2772 912 
Q 2981 1044 2981 1288 
Q 2981 1506 2839 1625 
Q 2697 1744 2272 1838 
L 1806 1941 
Q 1106 2091 782 2419 
Q 459 2747 459 3303 
Q 459 4000 909 4375 
Q 1359 4750 2203 4750 
Q 2588 4750 2994 4692 
Q 3400 4634 3834 4519 
z
" transform="scale(0.015625)"/>
      <path id="DejaVuSans-Bold-74" d="M 1759 4494 
L 1759 3500 
L 2913 3500 
L 2913 2700 
L 1759 2700 
L 1759 1216 
Q 1759 972 1856 886 
Q 1953 800 2241 800 
L 2816 800 
L 2816 0 
L 1856 0 
Q 1194 0 917 276 
Q 641 553 641 1216 
L 641 2700 
L 84 2700 
L 84 3500 
L 641 3500 
L 641 4494 
L 1759 4494 
z
" transform="scale(0.015625)"/>
      <path id="DejaVuSans-Bold-69" d="M 538 3500 
L 1656 3500 
L 1656 0 
L 538 0 
L 538 3500 
z
M 538 4863 
L 1656 4863 
L 1656 3950 
L 538 3950 
L 538 4863 
z
" transform="scale(0.015625)"/>
      <path id="DejaVuSans-Bold-6f" d="M 2203 2784 
Q 1831 2784 1636 2517 
Q 1441 2250 1441 1747 
Q 1441 1244 1636 976 
Q 1831 709 2203 709 
Q 2569 709 2762 976 
Q 2956 1244 2956 1747 
Q 2956 2250 2762 2517 
Q 2569 2784 2203 2784 
z
M 2203 3584 
Q 3106 3584 3614 3096 
Q 4122 2609 4122 1747 
Q 4122 884 3614 396 
Q 3106 -91 2203 -91 
Q 1297 -91 786 396 
Q 275 884 275 1747 
Q 275 2609 786 3096 
Q 1297 3584 2203 3584 
z
" transform="scale(0.015625)"/>
      <path id="DejaVuSans-Bold-6c" d="M 538 4863 
L 1656 4863 
L 1656 0 
L 538 0 
L 538 4863 
z
" transform="scale(0.015625)"/>
      <path id="DejaVuSans-Bold-67" d="M 2919 594 
Q 2688 288 2409 144 
Q 2131 0 1766 0 
Q 1125 0 706 504 
Q 288 1009 288 1791 
Q 288 2575 706 3076 
Q 1125 3578 1766 3578 
Q 2131 3578 2409 3434 
Q 2688 3291 2919 2981 
L 2919 3500 
L 4044 3500 
L 4044 353 
Q 4044 -491 3511 -936 
Q 2978 -1381 1966 -1381 
Q 1638 -1381 1331 -1331 
Q 1025 -1281 716 -1178 
L 716 -306 
Q 1009 -475 1290 -558 
Q 1572 -641 1856 -641 
Q 2406 -641 2662 -400 
Q 2919 -159 2919 353 
L 2919 594 
z
M 2181 2772 
Q 1834 2772 1640 2515 
Q 1447 2259 1447 1791 
Q 1447 1309 1634 1061 
Q 1822 813 2181 813 
Q 2531 813 2725 1069 
Q 2919 1325 2919 1791 
Q 2919 2259 2725 2515 
Q 2531 2772 2181 2772 
z
" transform="scale(0.015625)"/>
      <path id="DejaVuSans-Bold-79" d="M 78 3500 
L 1197 3500 
L 2138 1125 
L 2938 3500 
L 4056 3500 
L 2584 -331 
Q 2363 -916 2067 -1148 
Q 1772 -1381 1288 -1381 
L 641 -1381 
L 641 -647 
L 991 -647 
Q 1275 -647 1404 -556 
Q 1534 -466 1606 -231 
L 1638 -134 
L 78 3500 
z
" transform="scale(0.015625)"/>
     </defs>
     <use xlink:href="#DejaVuSans-Bold-53"/>
     <use xlink:href="#DejaVuSans-Bold-74" transform="translate(72.021484 0)"/>
     <use xlink:href="#DejaVuSans-Bold-61" transform="translate(119.824219 0)"/>
     <use xlink:href="#DejaVuSans-Bold-74" transform="translate(187.304688 0)"/>
     <use xlink:href="#DejaVuSans-Bold-69" transform="translate(235.107422 0)"/>
     <use xlink:href="#DejaVuSans-Bold-63" transform="translate(269.384766 0)"/>
     <use xlink:href="#DejaVuSans-Bold-20" transform="translate(328.662109 0)"/>
     <use xlink:href="#DejaVuSans-Bold-74" transform="translate(363.476562 0)"/>
     <use xlink:href="#DejaVuSans-Bold-6f" transform="translate(411.279297 0)"/>
     <use xlink:href="#DejaVuSans-Bold-70" transform="translate(479.980469 0)"/>
     <use xlink:href="#DejaVuSans-Bold-6f" transform="translate(551.5625 0)"/>
     <use xlink:href="#DejaVuSans-Bold-6c" transform="translate(620.263672 0)"/>
     <use xlink:href="#DejaVuSans-Bold-6f" transform="translate(654.541016 0)"/>
     <use xlink:href="#DejaVuSans-Bold-67" transform="translate(723.242188 0)"/>
     <use xlink:href="#DejaVuSans-Bold-79" transform="translate(794.824219 0)"/>
    </g>
   </g>
   <g id="text_3">
    <!-- misses mobility-driven -->
    <g transform="translate(63.892938 305.886538) scale(0.2 -0.2)">
     <defs>
      <path id="DejaVuSans-6d" d="M 3328 2828 
Q 3544 3216 3844 3400 
Q 4144 3584 4550 3584 
Q 5097 3584 5394 3201 
Q 5691 2819 5691 2113 
L 5691 0 
L 5113 0 
L 5113 2094 
Q 5113 2597 4934 2840 
Q 4756 3084 4391 3084 
Q 3944 3084 3684 2787 
Q 3425 2491 3425 1978 
L 3425 0 
L 2847 0 
L 2847 2094 
Q 2847 2600 2669 2842 
Q 2491 3084 2119 3084 
Q 1678 3084 1418 2786 
Q 1159 2488 1159 1978 
L 1159 0 
L 581 0 
L 581 3500 
L 1159 3500 
L 1159 2956 
Q 1356 3278 1631 3431 
Q 1906 3584 2284 3584 
Q 2666 3584 2933 3390 
Q 3200 3197 3328 2828 
z
" transform="scale(0.015625)"/>
      <path id="DejaVuSans-69" d="M 603 3500 
L 1178 3500 
L 1178 0 
L 603 0 
L 603 3500 
z
M 603 4863 
L 1178 4863 
L 1178 4134 
L 603 4134 
L 603 4863 
z
" transform="scale(0.015625)"/>
      <path id="DejaVuSans-73" d="M 2834 3397 
L 2834 2853 
Q 2591 2978 2328 3040 
Q 2066 3103 1784 3103 
Q 1356 3103 1142 2972 
Q 928 2841 928 2578 
Q 928 2378 1081 2264 
Q 1234 2150 1697 2047 
L 1894 2003 
Q 2506 1872 2764 1633 
Q 3022 1394 3022 966 
Q 3022 478 2636 193 
Q 2250 -91 1575 -91 
Q 1294 -91 989 -36 
Q 684 19 347 128 
L 347 722 
Q 666 556 975 473 
Q 1284 391 1588 391 
Q 1994 391 2212 530 
Q 2431 669 2431 922 
Q 2431 1156 2273 1281 
Q 2116 1406 1581 1522 
L 1381 1569 
Q 847 1681 609 1914 
Q 372 2147 372 2553 
Q 372 3047 722 3315 
Q 1072 3584 1716 3584 
Q 2034 3584 2315 3537 
Q 2597 3491 2834 3397 
z
" transform="scale(0.015625)"/>
      <path id="DejaVuSans-65" d="M 3597 1894 
L 3597 1613 
L 953 1613 
Q 991 1019 1311 708 
Q 1631 397 2203 397 
Q 2534 397 2845 478 
Q 3156 559 3463 722 
L 3463 178 
Q 3153 47 2828 -22 
Q 2503 -91 2169 -91 
Q 1331 -91 842 396 
Q 353 884 353 1716 
Q 353 2575 817 3079 
Q 1281 3584 2069 3584 
Q 2775 3584 3186 3129 
Q 3597 2675 3597 1894 
z
M 3022 2063 
Q 3016 2534 2758 2815 
Q 2500 3097 2075 3097 
Q 1594 3097 1305 2825 
Q 1016 2553 972 2059 
L 3022 2063 
z
" transform="scale(0.015625)"/>
      <path id="DejaVuSans-20" transform="scale(0.015625)"/>
      <path id="DejaVuSans-6f" d="M 1959 3097 
Q 1497 3097 1228 2736 
Q 959 2375 959 1747 
Q 959 1119 1226 758 
Q 1494 397 1959 397 
Q 2419 397 2687 759 
Q 2956 1122 2956 1747 
Q 2956 2369 2687 2733 
Q 2419 3097 1959 3097 
z
M 1959 3584 
Q 2709 3584 3137 3096 
Q 3566 2609 3566 1747 
Q 3566 888 3137 398 
Q 2709 -91 1959 -91 
Q 1206 -91 779 398 
Q 353 888 353 1747 
Q 353 2609 779 3096 
Q 1206 3584 1959 3584 
z
" transform="scale(0.015625)"/>
      <path id="DejaVuSans-62" d="M 3116 1747 
Q 3116 2381 2855 2742 
Q 2594 3103 2138 3103 
Q 1681 3103 1420 2742 
Q 1159 2381 1159 1747 
Q 1159 1113 1420 752 
Q 1681 391 2138 391 
Q 2594 391 2855 752 
Q 3116 1113 3116 1747 
z
M 1159 2969 
Q 1341 3281 1617 3432 
Q 1894 3584 2278 3584 
Q 2916 3584 3314 3078 
Q 3713 2572 3713 1747 
Q 3713 922 3314 415 
Q 2916 -91 2278 -91 
Q 1894 -91 1617 61 
Q 1341 213 1159 525 
L 1159 0 
L 581 0 
L 581 4863 
L 1159 4863 
L 1159 2969 
z
" transform="scale(0.015625)"/>
      <path id="DejaVuSans-6c" d="M 603 4863 
L 1178 4863 
L 1178 0 
L 603 0 
L 603 4863 
z
" transform="scale(0.015625)"/>
      <path id="DejaVuSans-74" d="M 1172 4494 
L 1172 3500 
L 2356 3500 
L 2356 3053 
L 1172 3053 
L 1172 1153 
Q 1172 725 1289 603 
Q 1406 481 1766 481 
L 2356 481 
L 2356 0 
L 1766 0 
Q 1100 0 847 248 
Q 594 497 594 1153 
L 594 3053 
L 172 3053 
L 172 3500 
L 594 3500 
L 594 4494 
L 1172 4494 
z
" transform="scale(0.015625)"/>
      <path id="DejaVuSans-79" d="M 2059 -325 
Q 1816 -950 1584 -1140 
Q 1353 -1331 966 -1331 
L 506 -1331 
L 506 -850 
L 844 -850 
Q 1081 -850 1212 -737 
Q 1344 -625 1503 -206 
L 1606 56 
L 191 3500 
L 800 3500 
L 1894 763 
L 2988 3500 
L 3597 3500 
L 2059 -325 
z
" transform="scale(0.015625)"/>
      <path id="DejaVuSans-2d" d="M 313 2009 
L 1997 2009 
L 1997 1497 
L 313 1497 
L 313 2009 
z
" transform="scale(0.015625)"/>
      <path id="DejaVuSans-64" d="M 2906 2969 
L 2906 4863 
L 3481 4863 
L 3481 0 
L 2906 0 
L 2906 525 
Q 2725 213 2448 61 
Q 2172 -91 1784 -91 
Q 1150 -91 751 415 
Q 353 922 353 1747 
Q 353 2572 751 3078 
Q 1150 3584 1784 3584 
Q 2172 3584 2448 3432 
Q 2725 3281 2906 2969 
z
M 947 1747 
Q 947 1113 1208 752 
Q 1469 391 1925 391 
Q 2381 391 2643 752 
Q 2906 1113 2906 1747 
Q 2906 2381 2643 2742 
Q 2381 3103 1925 3103 
Q 1469 3103 1208 2742 
Q 947 2381 947 1747 
z
" transform="scale(0.015625)"/>
      <path id="DejaVuSans-72" d="M 2631 2963 
Q 2534 3019 2420 3045 
Q 2306 3072 2169 3072 
Q 1681 3072 1420 2755 
Q 1159 2438 1159 1844 
L 1159 0 
L 581 0 
L 581 3500 
L 1159 3500 
L 1159 2956 
Q 1341 3275 1631 3429 
Q 1922 3584 2338 3584 
Q 2397 3584 2469 3576 
Q 2541 3569 2628 3553 
L 2631 2963 
z
" transform="scale(0.015625)"/>
      <path id="DejaVuSans-76" d="M 191 3500 
L 800 3500 
L 1894 563 
L 2988 3500 
L 3597 3500 
L 2284 0 
L 1503 0 
L 191 3500 
z
" transform="scale(0.015625)"/>
      <path id="DejaVuSans-6e" d="M 3513 2113 
L 3513 0 
L 2938 0 
L 2938 2094 
Q 2938 2591 2744 2837 
Q 2550 3084 2163 3084 
Q 1697 3084 1428 2787 
Q 1159 2491 1159 1978 
L 1159 0 
L 581 0 
L 581 3500 
L 1159 3500 
L 1159 2956 
Q 1366 3272 1645 3428 
Q 1925 3584 2291 3584 
Q 2894 3584 3203 3211 
Q 3513 2838 3513 2113 
z
" transform="scale(0.015625)"/>
     </defs>
     <use xlink:href="#DejaVuSans-6d"/>
     <use xlink:href="#DejaVuSans-69" transform="translate(97.412109 0)"/>
     <use xlink:href="#DejaVuSans-73" transform="translate(125.195312 0)"/>
     <use xlink:href="#DejaVuSans-73" transform="translate(177.294922 0)"/>
     <use xlink:href="#DejaVuSans-65" transform="translate(229.394531 0)"/>
     <use xlink:href="#DejaVuSans-73" transform="translate(290.917969 0)"/>
     <use xlink:href="#DejaVuSans-20" transform="translate(343.017578 0)"/>
     <use xlink:href="#DejaVuSans-6d" transform="translate(374.804688 0)"/>
     <use xlink:href="#DejaVuSans-6f" transform="translate(472.216797 0)"/>
     <use xlink:href="#DejaVuSans-62" transform="translate(533.398438 0)"/>
     <use xlink:href="#DejaVuSans-69" transform="translate(596.875 0)"/>
     <use xlink:href="#DejaVuSans-6c" transform="translate(624.658203 0)"/>
     <use xlink:href="#DejaVuSans-69" transform="translate(652.441406 0)"/>
     <use xlink:href="#DejaVuSans-74" transform="translate(680.224609 0)"/>
     <use xlink:href="#DejaVuSans-79" transform="translate(719.433594 0)"/>
     <use xlink:href="#DejaVuSans-2d" transform="translate(776.863281 0)"/>
     <use xlink:href="#DejaVuSans-64" transform="translate(812.947266 0)"/>
     <use xlink:href="#DejaVuSans-72" transform="translate(876.423828 0)"/>
     <use xlink:href="#DejaVuSans-69" transform="translate(917.537109 0)"/>
     <use xlink:href="#DejaVuSans-76" transform="translate(945.320312 0)"/>
     <use xlink:href="#DejaVuSans-65" transform="translate(1004.5 0)"/>
     <use xlink:href="#DejaVuSans-6e" transform="translate(1066.023438 0)"/>
    </g>
    <!-- cooperation changes -->
    <g transform="translate(72.010125 328.282163) scale(0.2 -0.2)">
     <defs>
      <path id="DejaVuSans-63" d="M 3122 3366 
L 3122 2828 
Q 2878 2963 2633 3030 
Q 2388 3097 2138 3097 
Q 1578 3097 1268 2742 
Q 959 2388 959 1747 
Q 959 1106 1268 751 
Q 1578 397 2138 397 
Q 2388 397 2633 464 
Q 2878 531 3122 666 
L 3122 134 
Q 2881 22 2623 -34 
Q 2366 -91 2075 -91 
Q 1284 -91 818 406 
Q 353 903 353 1747 
Q 353 2603 823 3093 
Q 1294 3584 2113 3584 
Q 2378 3584 2631 3529 
Q 2884 3475 3122 3366 
z
" transform="scale(0.015625)"/>
      <path id="DejaVuSans-70" d="M 1159 525 
L 1159 -1331 
L 581 -1331 
L 581 3500 
L 1159 3500 
L 1159 2969 
Q 1341 3281 1617 3432 
Q 1894 3584 2278 3584 
Q 2916 3584 3314 3078 
Q 3713 2572 3713 1747 
Q 3713 922 3314 415 
Q 2916 -91 2278 -91 
Q 1894 -91 1617 61 
Q 1341 213 1159 525 
z
M 3116 1747 
Q 3116 2381 2855 2742 
Q 2594 3103 2138 3103 
Q 1681 3103 1420 2742 
Q 1159 2381 1159 1747 
Q 1159 1113 1420 752 
Q 1681 391 2138 391 
Q 2594 391 2855 752 
Q 3116 1113 3116 1747 
z
" transform="scale(0.015625)"/>
      <path id="DejaVuSans-61" d="M 2194 1759 
Q 1497 1759 1228 1600 
Q 959 1441 959 1056 
Q 959 750 1161 570 
Q 1363 391 1709 391 
Q 2188 391 2477 730 
Q 2766 1069 2766 1631 
L 2766 1759 
L 2194 1759 
z
M 3341 1997 
L 3341 0 
L 2766 0 
L 2766 531 
Q 2569 213 2275 61 
Q 1981 -91 1556 -91 
Q 1019 -91 701 211 
Q 384 513 384 1019 
Q 384 1609 779 1909 
Q 1175 2209 1959 2209 
L 2766 2209 
L 2766 2266 
Q 2766 2663 2505 2880 
Q 2244 3097 1772 3097 
Q 1472 3097 1187 3025 
Q 903 2953 641 2809 
L 641 3341 
Q 956 3463 1253 3523 
Q 1550 3584 1831 3584 
Q 2591 3584 2966 3190 
Q 3341 2797 3341 1997 
z
" transform="scale(0.015625)"/>
      <path id="DejaVuSans-68" d="M 3513 2113 
L 3513 0 
L 2938 0 
L 2938 2094 
Q 2938 2591 2744 2837 
Q 2550 3084 2163 3084 
Q 1697 3084 1428 2787 
Q 1159 2491 1159 1978 
L 1159 0 
L 581 0 
L 581 4863 
L 1159 4863 
L 1159 2956 
Q 1366 3272 1645 3428 
Q 1925 3584 2291 3584 
Q 2894 3584 3203 3211 
Q 3513 2838 3513 2113 
z
" transform="scale(0.015625)"/>
      <path id="DejaVuSans-67" d="M 2906 1791 
Q 2906 2416 2648 2759 
Q 2391 3103 1925 3103 
Q 1463 3103 1205 2759 
Q 947 2416 947 1791 
Q 947 1169 1205 825 
Q 1463 481 1925 481 
Q 2391 481 2648 825 
Q 2906 1169 2906 1791 
z
M 3481 434 
Q 3481 -459 3084 -895 
Q 2688 -1331 1869 -1331 
Q 1566 -1331 1297 -1286 
Q 1028 -1241 775 -1147 
L 775 -588 
Q 1028 -725 1275 -790 
Q 1522 -856 1778 -856 
Q 2344 -856 2625 -561 
Q 2906 -266 2906 331 
L 2906 616 
Q 2728 306 2450 153 
Q 2172 0 1784 0 
Q 1141 0 747 490 
Q 353 981 353 1791 
Q 353 2603 747 3093 
Q 1141 3584 1784 3584 
Q 2172 3584 2450 3431 
Q 2728 3278 2906 2969 
L 2906 3500 
L 3481 3500 
L 3481 434 
z
" transform="scale(0.015625)"/>
     </defs>
     <use xlink:href="#DejaVuSans-63"/>
     <use xlink:href="#DejaVuSans-6f" transform="translate(54.980469 0)"/>
     <use xlink:href="#DejaVuSans-6f" transform="translate(116.162109 0)"/>
     <use xlink:href="#DejaVuSans-70" transform="translate(177.34375 0)"/>
     <use xlink:href="#DejaVuSans-65" transform="translate(240.820312 0)"/>
     <use xlink:href="#DejaVuSans-72" transform="translate(302.34375 0)"/>
     <use xlink:href="#DejaVuSans-61" transform="translate(343.457031 0)"/>
     <use xlink:href="#DejaVuSans-74" transform="translate(404.736328 0)"/>
     <use xlink:href="#DejaVuSans-69" transform="translate(443.945312 0)"/>
     <use xlink:href="#DejaVuSans-6f" transform="translate(471.728516 0)"/>
     <use xlink:href="#DejaVuSans-6e" transform="translate(532.910156 0)"/>
     <use xlink:href="#DejaVuSans-20" transform="translate(596.289062 0)"/>
     <use xlink:href="#DejaVuSans-63" transform="translate(628.076172 0)"/>
     <use xlink:href="#DejaVuSans-68" transform="translate(683.056641 0)"/>
     <use xlink:href="#DejaVuSans-61" transform="translate(746.435547 0)"/>
     <use xlink:href="#DejaVuSans-6e" transform="translate(807.714844 0)"/>
     <use xlink:href="#DejaVuSans-67" transform="translate(871.09375 0)"/>
     <use xlink:href="#DejaVuSans-65" transform="translate(934.570312 0)"/>
     <use xlink:href="#DejaVuSans-73" transform="translate(996.09375 0)"/>
    </g>
   </g>
   <g id="text_4">
    <!-- Popularity only -->
    <g transform="translate(367.871875 197.255825) scale(0.2 -0.2)">
     <defs>
      <path id="DejaVuSans-Bold-50" d="M 588 4666 
L 2584 4666 
Q 3475 4666 3951 4270 
Q 4428 3875 4428 3144 
Q 4428 2409 3951 2014 
Q 3475 1619 2584 1619 
L 1791 1619 
L 1791 0 
L 588 0 
L 588 4666 
z
M 1791 3794 
L 1791 2491 
L 2456 2491 
Q 2806 2491 2997 2661 
Q 3188 2831 3188 3144 
Q 3188 3456 2997 3625 
Q 2806 3794 2456 3794 
L 1791 3794 
z
" transform="scale(0.015625)"/>
      <path id="DejaVuSans-Bold-75" d="M 500 1363 
L 500 3500 
L 1625 3500 
L 1625 3150 
Q 1625 2866 1622 2436 
Q 1619 2006 1619 1863 
Q 1619 1441 1641 1255 
Q 1663 1069 1716 984 
Q 1784 875 1895 815 
Q 2006 756 2150 756 
Q 2500 756 2700 1025 
Q 2900 1294 2900 1772 
L 2900 3500 
L 4019 3500 
L 4019 0 
L 2900 0 
L 2900 506 
Q 2647 200 2364 54 
Q 2081 -91 1741 -91 
Q 1134 -91 817 281 
Q 500 653 500 1363 
z
" transform="scale(0.015625)"/>
      <path id="DejaVuSans-Bold-6e" d="M 4056 2131 
L 4056 0 
L 2931 0 
L 2931 347 
L 2931 1631 
Q 2931 2084 2911 2256 
Q 2891 2428 2841 2509 
Q 2775 2619 2662 2680 
Q 2550 2741 2406 2741 
Q 2056 2741 1856 2470 
Q 1656 2200 1656 1722 
L 1656 0 
L 538 0 
L 538 3500 
L 1656 3500 
L 1656 2988 
Q 1909 3294 2193 3439 
Q 2478 3584 2822 3584 
Q 3428 3584 3742 3212 
Q 4056 2841 4056 2131 
z
" transform="scale(0.015625)"/>
     </defs>
     <use xlink:href="#DejaVuSans-Bold-50"/>
     <use xlink:href="#DejaVuSans-Bold-6f" transform="translate(73.291016 0)"/>
     <use xlink:href="#DejaVuSans-Bold-70" transform="translate(141.992188 0)"/>
     <use xlink:href="#DejaVuSans-Bold-75" transform="translate(213.574219 0)"/>
     <use xlink:href="#DejaVuSans-Bold-6c" transform="translate(284.765625 0)"/>
     <use xlink:href="#DejaVuSans-Bold-61" transform="translate(319.042969 0)"/>
     <use xlink:href="#DejaVuSans-Bold-72" transform="translate(386.523438 0)"/>
     <use xlink:href="#DejaVuSans-Bold-69" transform="translate(435.839844 0)"/>
     <use xlink:href="#DejaVuSans-Bold-74" transform="translate(470.117188 0)"/>
     <use xlink:href="#DejaVuSans-Bold-79" transform="translate(517.919922 0)"/>
     <use xlink:href="#DejaVuSans-Bold-20" transform="translate(583.105469 0)"/>
     <use xlink:href="#DejaVuSans-Bold-6f" transform="translate(617.919922 0)"/>
     <use xlink:href="#DejaVuSans-Bold-6e" transform="translate(686.621094 0)"/>
     <use xlink:href="#DejaVuSans-Bold-6c" transform="translate(757.8125 0)"/>
     <use xlink:href="#DejaVuSans-Bold-79" transform="translate(792.089844 0)"/>
    </g>
   </g>
   <g id="text_5">
    <!-- misses graph distance -->
    <g transform="translate(341.296875 305.886538) scale(0.2 -0.2)">
     <use xlink:href="#DejaVuSans-6d"/>
     <use xlink:href="#DejaVuSans-69" transform="translate(97.412109 0)"/>
     <use xlink:href="#DejaVuSans-73" transform="translate(125.195312 0)"/>
     <use xlink:href="#DejaVuSans-73" transform="translate(177.294922 0)"/>
     <use xlink:href="#DejaVuSans-65" transform="translate(229.394531 0)"/>
     <use xlink:href="#DejaVuSans-73" transform="translate(290.917969 0)"/>
     <use xlink:href="#DejaVuSans-20" transform="translate(343.017578 0)"/>
     <use xlink:href="#DejaVuSans-67" transform="translate(374.804688 0)"/>
     <use xlink:href="#DejaVuSans-72" transform="translate(438.28125 0)"/>
     <use xlink:href="#DejaVuSans-61" transform="translate(479.394531 0)"/>
     <use xlink:href="#DejaVuSans-70" transform="translate(540.673828 0)"/>
     <use xlink:href="#DejaVuSans-68" transform="translate(604.150391 0)"/>
     <use xlink:href="#DejaVuSans-20" transform="translate(667.529297 0)"/>
     <use xlink:href="#DejaVuSans-64" transform="translate(699.316406 0)"/>
     <use xlink:href="#DejaVuSans-69" transform="translate(762.792969 0)"/>
     <use xlink:href="#DejaVuSans-73" transform="translate(790.576172 0)"/>
     <use xlink:href="#DejaVuSans-74" transform="translate(842.675781 0)"/>
     <use xlink:href="#DejaVuSans-61" transform="translate(881.884766 0)"/>
     <use xlink:href="#DejaVuSans-6e" transform="translate(943.164062 0)"/>
     <use xlink:href="#DejaVuSans-63" transform="translate(1006.542969 0)"/>
     <use xlink:href="#DejaVuSans-65" transform="translate(1061.523438 0)"/>
    </g>
    <!-- and redundancy -->
    <g transform="translate(372.314063 328.282163) scale(0.2 -0.2)">
     <defs>
      <path id="DejaVuSans-75" d="M 544 1381 
L 544 3500 
L 1119 3500 
L 1119 1403 
Q 1119 906 1312 657 
Q 1506 409 1894 409 
Q 2359 409 2629 706 
Q 2900 1003 2900 1516 
L 2900 3500 
L 3475 3500 
L 3475 0 
L 2900 0 
L 2900 538 
Q 2691 219 2414 64 
Q 2138 -91 1772 -91 
Q 1169 -91 856 284 
Q 544 659 544 1381 
z
M 1991 3584 
L 1991 3584 
z
" transform="scale(0.015625)"/>
     </defs>
     <use xlink:href="#DejaVuSans-61"/>
     <use xlink:href="#DejaVuSans-6e" transform="translate(61.279297 0)"/>
     <use xlink:href="#DejaVuSans-64" transform="translate(124.658203 0)"/>
     <use xlink:href="#DejaVuSans-20" transform="translate(188.134766 0)"/>
     <use xlink:href="#DejaVuSans-72" transform="translate(219.921875 0)"/>
     <use xlink:href="#DejaVuSans-65" transform="translate(258.785156 0)"/>
     <use xlink:href="#DejaVuSans-64" transform="translate(320.308594 0)"/>
     <use xlink:href="#DejaVuSans-75" transform="translate(383.785156 0)"/>
     <use xlink:href="#DejaVuSans-6e" transform="translate(447.164062 0)"/>
     <use xlink:href="#DejaVuSans-64" transform="translate(510.542969 0)"/>
     <use xlink:href="#DejaVuSans-61" transform="translate(574.019531 0)"/>
     <use xlink:href="#DejaVuSans-6e" transform="translate(635.298828 0)"/>
     <use xlink:href="#DejaVuSans-63" transform="translate(698.677734 0)"/>
     <use xlink:href="#DejaVuSans-79" transform="translate(753.658203 0)"/>
    </g>
   </g>
   <g id="text_6">
    <!-- No update cost -->
    <g transform="translate(644.891437 197.33395) scale(0.2 -0.2)">
     <defs>
      <path id="DejaVuSans-Bold-4e" d="M 588 4666 
L 1931 4666 
L 3628 1466 
L 3628 4666 
L 4769 4666 
L 4769 0 
L 3425 0 
L 1728 3200 
L 1728 0 
L 588 0 
L 588 4666 
z
" transform="scale(0.015625)"/>
      <path id="DejaVuSans-Bold-64" d="M 2919 2988 
L 2919 4863 
L 4044 4863 
L 4044 0 
L 2919 0 
L 2919 506 
Q 2688 197 2409 53 
Q 2131 -91 1766 -91 
Q 1119 -91 703 423 
Q 288 938 288 1747 
Q 288 2556 703 3070 
Q 1119 3584 1766 3584 
Q 2128 3584 2408 3439 
Q 2688 3294 2919 2988 
z
M 2181 722 
Q 2541 722 2730 984 
Q 2919 1247 2919 1747 
Q 2919 2247 2730 2509 
Q 2541 2772 2181 2772 
Q 1825 2772 1636 2509 
Q 1447 2247 1447 1747 
Q 1447 1247 1636 984 
Q 1825 722 2181 722 
z
" transform="scale(0.015625)"/>
     </defs>
     <use xlink:href="#DejaVuSans-Bold-4e"/>
     <use xlink:href="#DejaVuSans-Bold-6f" transform="translate(83.691406 0)"/>
     <use xlink:href="#DejaVuSans-Bold-20" transform="translate(152.392578 0)"/>
     <use xlink:href="#DejaVuSans-Bold-75" transform="translate(187.207031 0)"/>
     <use xlink:href="#DejaVuSans-Bold-70" transform="translate(258.398438 0)"/>
     <use xlink:href="#DejaVuSans-Bold-64" transform="translate(329.980469 0)"/>
     <use xlink:href="#DejaVuSans-Bold-61" transform="translate(401.5625 0)"/>
     <use xlink:href="#DejaVuSans-Bold-74" transform="translate(469.042969 0)"/>
     <use xlink:href="#DejaVuSans-Bold-65" transform="translate(516.845703 0)"/>
     <use xlink:href="#DejaVuSans-Bold-20" transform="translate(584.667969 0)"/>
     <use xlink:href="#DejaVuSans-Bold-63" transform="translate(619.482422 0)"/>
     <use xlink:href="#DejaVuSans-Bold-6f" transform="translate(678.759766 0)"/>
     <use xlink:href="#DejaVuSans-Bold-73" transform="translate(747.460938 0)"/>
     <use xlink:href="#DejaVuSans-Bold-74" transform="translate(806.982422 0)"/>
    </g>
   </g>
   <g id="text_7">
    <!-- hides cache rewrite -->
    <g transform="translate(632.389875 305.886538) scale(0.2 -0.2)">
     <defs>
      <path id="DejaVuSans-77" d="M 269 3500 
L 844 3500 
L 1563 769 
L 2278 3500 
L 2956 3500 
L 3675 769 
L 4391 3500 
L 4966 3500 
L 4050 0 
L 3372 0 
L 2619 2869 
L 1863 0 
L 1184 0 
L 269 3500 
z
" transform="scale(0.015625)"/>
     </defs>
     <use xlink:href="#DejaVuSans-68"/>
     <use xlink:href="#DejaVuSans-69" transform="translate(63.378906 0)"/>
     <use xlink:href="#DejaVuSans-64" transform="translate(91.162109 0)"/>
     <use xlink:href="#DejaVuSans-65" transform="translate(154.638672 0)"/>
     <use xlink:href="#DejaVuSans-73" transform="translate(216.162109 0)"/>
     <use xlink:href="#DejaVuSans-20" transform="translate(268.261719 0)"/>
     <use xlink:href="#DejaVuSans-63" transform="translate(300.048828 0)"/>
     <use xlink:href="#DejaVuSans-61" transform="translate(355.029297 0)"/>
     <use xlink:href="#DejaVuSans-63" transform="translate(416.308594 0)"/>
     <use xlink:href="#DejaVuSans-68" transform="translate(471.289062 0)"/>
     <use xlink:href="#DejaVuSans-65" transform="translate(534.667969 0)"/>
     <use xlink:href="#DejaVuSans-20" transform="translate(596.191406 0)"/>
     <use xlink:href="#DejaVuSans-72" transform="translate(627.978516 0)"/>
     <use xlink:href="#DejaVuSans-65" transform="translate(666.841797 0)"/>
     <use xlink:href="#DejaVuSans-77" transform="translate(728.365234 0)"/>
     <use xlink:href="#DejaVuSans-72" transform="translate(810.152344 0)"/>
     <use xlink:href="#DejaVuSans-69" transform="translate(851.265625 0)"/>
     <use xlink:href="#DejaVuSans-74" transform="translate(879.048828 0)"/>
     <use xlink:href="#DejaVuSans-65" transform="translate(918.257812 0)"/>
    </g>
    <!-- overhead -->
    <g transform="translate(683.27425 328.282163) scale(0.2 -0.2)">
     <use xlink:href="#DejaVuSans-6f"/>
     <use xlink:href="#DejaVuSans-76" transform="translate(61.181641 0)"/>
     <use xlink:href="#DejaVuSans-65" transform="translate(120.361328 0)"/>
     <use xlink:href="#DejaVuSans-72" transform="translate(181.884766 0)"/>
     <use xlink:href="#DejaVuSans-68" transform="translate(221.248047 0)"/>
     <use xlink:href="#DejaVuSans-65" transform="translate(284.626953 0)"/>
     <use xlink:href="#DejaVuSans-61" transform="translate(346.150391 0)"/>
     <use xlink:href="#DejaVuSans-64" transform="translate(407.429688 0)"/>
    </g>
   </g>
   <g id="text_8">
    <!-- This project closes the gap by evaluating cache placement as a -->
    <g transform="translate(78.624 400.571431) scale(0.23 -0.23)">
     <defs>
      <path id="DejaVuSans-54" d="M -19 4666 
L 3928 4666 
L 3928 4134 
L 2272 4134 
L 2272 0 
L 1638 0 
L 1638 4134 
L -19 4134 
L -19 4666 
z
" transform="scale(0.015625)"/>
      <path id="DejaVuSans-6a" d="M 603 3500 
L 1178 3500 
L 1178 -63 
Q 1178 -731 923 -1031 
Q 669 -1331 103 -1331 
L -116 -1331 
L -116 -844 
L 38 -844 
Q 366 -844 484 -692 
Q 603 -541 603 -63 
L 603 3500 
z
M 603 4863 
L 1178 4863 
L 1178 4134 
L 603 4134 
L 603 4863 
z
" transform="scale(0.015625)"/>
     </defs>
     <use xlink:href="#DejaVuSans-54"/>
     <use xlink:href="#DejaVuSans-68" transform="translate(61.083984 0)"/>
     <use xlink:href="#DejaVuSans-69" transform="translate(124.462891 0)"/>
     <use xlink:href="#DejaVuSans-73" transform="translate(152.246094 0)"/>
     <use xlink:href="#DejaVuSans-20" transform="translate(204.345703 0)"/>
     <use xlink:href="#DejaVuSans-70" transform="translate(236.132812 0)"/>
     <use xlink:href="#DejaVuSans-72" transform="translate(299.609375 0)"/>
     <use xlink:href="#DejaVuSans-6f" transform="translate(338.472656 0)"/>
     <use xlink:href="#DejaVuSans-6a" transform="translate(399.654297 0)"/>
     <use xlink:href="#DejaVuSans-65" transform="translate(427.4375 0)"/>
     <use xlink:href="#DejaVuSans-63" transform="translate(488.960938 0)"/>
     <use xlink:href="#DejaVuSans-74" transform="translate(543.941406 0)"/>
     <use xlink:href="#DejaVuSans-20" transform="translate(583.150391 0)"/>
     <use xlink:href="#DejaVuSans-63" transform="translate(614.9375 0)"/>
     <use xlink:href="#DejaVuSans-6c" transform="translate(669.917969 0)"/>
     <use xlink:href="#DejaVuSans-6f" transform="translate(697.701172 0)"/>
     <use xlink:href="#DejaVuSans-73" transform="translate(758.882812 0)"/>
     <use xlink:href="#DejaVuSans-65" transform="translate(810.982422 0)"/>
     <use xlink:href="#DejaVuSans-73" transform="translate(872.505859 0)"/>
     <use xlink:href="#DejaVuSans-20" transform="translate(924.605469 0)"/>
     <use xlink:href="#DejaVuSans-74" transform="translate(956.392578 0)"/>
     <use xlink:href="#DejaVuSans-68" transform="translate(995.601562 0)"/>
     <use xlink:href="#DejaVuSans-65" transform="translate(1058.980469 0)"/>
     <use xlink:href="#DejaVuSans-20" transform="translate(1120.503906 0)"/>
     <use xlink:href="#DejaVuSans-67" transform="translate(1152.291016 0)"/>
     <use xlink:href="#DejaVuSans-61" transform="translate(1215.767578 0)"/>
     <use xlink:href="#DejaVuSans-70" transform="translate(1277.046875 0)"/>
     <use xlink:href="#DejaVuSans-20" transform="translate(1340.523438 0)"/>
     <use xlink:href="#DejaVuSans-62" transform="translate(1372.310547 0)"/>
     <use xlink:href="#DejaVuSans-79" transform="translate(1435.787109 0)"/>
     <use xlink:href="#DejaVuSans-20" transform="translate(1494.966797 0)"/>
     <use xlink:href="#DejaVuSans-65" transform="translate(1526.753906 0)"/>
     <use xlink:href="#DejaVuSans-76" transform="translate(1588.277344 0)"/>
     <use xlink:href="#DejaVuSans-61" transform="translate(1647.457031 0)"/>
     <use xlink:href="#DejaVuSans-6c" transform="translate(1708.736328 0)"/>
     <use xlink:href="#DejaVuSans-75" transform="translate(1736.519531 0)"/>
     <use xlink:href="#DejaVuSans-61" transform="translate(1799.898438 0)"/>
     <use xlink:href="#DejaVuSans-74" transform="translate(1861.177734 0)"/>
     <use xlink:href="#DejaVuSans-69" transform="translate(1900.386719 0)"/>
     <use xlink:href="#DejaVuSans-6e" transform="translate(1928.169922 0)"/>
     <use xlink:href="#DejaVuSans-67" transform="translate(1991.548828 0)"/>
     <use xlink:href="#DejaVuSans-20" transform="translate(2055.025391 0)"/>
     <use xlink:href="#DejaVuSans-63" transform="translate(2086.8125 0)"/>
     <use xlink:href="#DejaVuSans-61" transform="translate(2141.792969 0)"/>
     <use xlink:href="#DejaVuSans-63" transform="translate(2203.072266 0)"/>
     <use xlink:href="#DejaVuSans-68" transform="translate(2258.052734 0)"/>
     <use xlink:href="#DejaVuSans-65" transform="translate(2321.431641 0)"/>
     <use xlink:href="#DejaVuSans-20" transform="translate(2382.955078 0)"/>
     <use xlink:href="#DejaVuSans-70" transform="translate(2414.742188 0)"/>
     <use xlink:href="#DejaVuSans-6c" transform="translate(2478.21875 0)"/>
     <use xlink:href="#DejaVuSans-61" transform="translate(2506.001953 0)"/>
     <use xlink:href="#DejaVuSans-63" transform="translate(2567.28125 0)"/>
     <use xlink:href="#DejaVuSans-65" transform="translate(2622.261719 0)"/>
     <use xlink:href="#DejaVuSans-6d" transform="translate(2683.785156 0)"/>
     <use xlink:href="#DejaVuSans-65" transform="translate(2781.197266 0)"/>
     <use xlink:href="#DejaVuSans-6e" transform="translate(2842.720703 0)"/>
     <use xlink:href="#DejaVuSans-74" transform="translate(2906.099609 0)"/>
     <use xlink:href="#DejaVuSans-20" transform="translate(2945.308594 0)"/>
     <use xlink:href="#DejaVuSans-61" transform="translate(2977.095703 0)"/>
     <use xlink:href="#DejaVuSans-73" transform="translate(3038.375 0)"/>
     <use xlink:href="#DejaVuSans-20" transform="translate(3090.474609 0)"/>
     <use xlink:href="#DejaVuSans-61" transform="translate(3122.261719 0)"/>
    </g>
    <!-- perturbed, topology-aware, sequential online control problem. -->
    <g transform="translate(78.624 426.3264) scale(0.23 -0.23)">
     <defs>
      <path id="DejaVuSans-2c" d="M 750 794 
L 1409 794 
L 1409 256 
L 897 -744 
L 494 -744 
L 750 256 
L 750 794 
z
" transform="scale(0.015625)"/>
      <path id="DejaVuSans-71" d="M 947 1747 
Q 947 1113 1208 752 
Q 1469 391 1925 391 
Q 2381 391 2643 752 
Q 2906 1113 2906 1747 
Q 2906 2381 2643 2742 
Q 2381 3103 1925 3103 
Q 1469 3103 1208 2742 
Q 947 2381 947 1747 
z
M 2906 525 
Q 2725 213 2448 61 
Q 2172 -91 1784 -91 
Q 1150 -91 751 415 
Q 353 922 353 1747 
Q 353 2572 751 3078 
Q 1150 3584 1784 3584 
Q 2172 3584 2448 3432 
Q 2725 3281 2906 2969 
L 2906 3500 
L 3481 3500 
L 3481 -1331 
L 2906 -1331 
L 2906 525 
z
" transform="scale(0.015625)"/>
      <path id="DejaVuSans-2e" d="M 684 794 
L 1344 794 
L 1344 0 
L 684 0 
L 684 794 
z
" transform="scale(0.015625)"/>
     </defs>
     <use xlink:href="#DejaVuSans-70"/>
     <use xlink:href="#DejaVuSans-65" transform="translate(63.476562 0)"/>
     <use xlink:href="#DejaVuSans-72" transform="translate(125 0)"/>
     <use xlink:href="#DejaVuSans-74" transform="translate(166.113281 0)"/>
     <use xlink:href="#DejaVuSans-75" transform="translate(205.322266 0)"/>
     <use xlink:href="#DejaVuSans-72" transform="translate(268.701172 0)"/>
     <use xlink:href="#DejaVuSans-62" transform="translate(309.814453 0)"/>
     <use xlink:href="#DejaVuSans-65" transform="translate(373.291016 0)"/>
     <use xlink:href="#DejaVuSans-64" transform="translate(434.814453 0)"/>
     <use xlink:href="#DejaVuSans-2c" transform="translate(498.291016 0)"/>
     <use xlink:href="#DejaVuSans-20" transform="translate(530.078125 0)"/>
     <use xlink:href="#DejaVuSans-74" transform="translate(561.865234 0)"/>
     <use xlink:href="#DejaVuSans-6f" transform="translate(601.074219 0)"/>
     <use xlink:href="#DejaVuSans-70" transform="translate(662.255859 0)"/>
     <use xlink:href="#DejaVuSans-6f" transform="translate(725.732422 0)"/>
     <use xlink:href="#DejaVuSans-6c" transform="translate(786.914062 0)"/>
     <use xlink:href="#DejaVuSans-6f" transform="translate(814.697266 0)"/>
     <use xlink:href="#DejaVuSans-67" transform="translate(875.878906 0)"/>
     <use xlink:href="#DejaVuSans-79" transform="translate(939.355469 0)"/>
     <use xlink:href="#DejaVuSans-2d" transform="translate(996.785156 0)"/>
     <use xlink:href="#DejaVuSans-61" transform="translate(1032.869141 0)"/>
     <use xlink:href="#DejaVuSans-77" transform="translate(1094.148438 0)"/>
     <use xlink:href="#DejaVuSans-61" transform="translate(1175.935547 0)"/>
     <use xlink:href="#DejaVuSans-72" transform="translate(1237.214844 0)"/>
     <use xlink:href="#DejaVuSans-65" transform="translate(1276.078125 0)"/>
     <use xlink:href="#DejaVuSans-2c" transform="translate(1337.601562 0)"/>
     <use xlink:href="#DejaVuSans-20" transform="translate(1369.388672 0)"/>
     <use xlink:href="#DejaVuSans-73" transform="translate(1401.175781 0)"/>
     <use xlink:href="#DejaVuSans-65" transform="translate(1453.275391 0)"/>
     <use xlink:href="#DejaVuSans-71" transform="translate(1514.798828 0)"/>
     <use xlink:href="#DejaVuSans-75" transform="translate(1578.275391 0)"/>
     <use xlink:href="#DejaVuSans-65" transform="translate(1641.654297 0)"/>
     <use xlink:href="#DejaVuSans-6e" transform="translate(1703.177734 0)"/>
     <use xlink:href="#DejaVuSans-74" transform="translate(1766.556641 0)"/>
     <use xlink:href="#DejaVuSans-69" transform="translate(1805.765625 0)"/>
     <use xlink:href="#DejaVuSans-61" transform="translate(1833.548828 0)"/>
     <use xlink:href="#DejaVuSans-6c" transform="translate(1894.828125 0)"/>
     <use xlink:href="#DejaVuSans-20" transform="translate(1922.611328 0)"/>
     <use xlink:href="#DejaVuSans-6f" transform="translate(1954.398438 0)"/>
     <use xlink:href="#DejaVuSans-6e" transform="translate(2015.580078 0)"/>
     <use xlink:href="#DejaVuSans-6c" transform="translate(2078.958984 0)"/>
     <use xlink:href="#DejaVuSans-69" transform="translate(2106.742188 0)"/>
     <use xlink:href="#DejaVuSans-6e" transform="translate(2134.525391 0)"/>
     <use xlink:href="#DejaVuSans-65" transform="translate(2197.904297 0)"/>
     <use xlink:href="#DejaVuSans-20" transform="translate(2259.427734 0)"/>
     <use xlink:href="#DejaVuSans-63" transform="translate(2291.214844 0)"/>
     <use xlink:href="#DejaVuSans-6f" transform="translate(2346.195312 0)"/>
     <use xlink:href="#DejaVuSans-6e" transform="translate(2407.376953 0)"/>
     <use xlink:href="#DejaVuSans-74" transform="translate(2470.755859 0)"/>
     <use xlink:href="#DejaVuSans-72" transform="translate(2509.964844 0)"/>
     <use xlink:href="#DejaVuSans-6f" transform="translate(2548.828125 0)"/>
     <use xlink:href="#DejaVuSans-6c" transform="translate(2610.009766 0)"/>
     <use xlink:href="#DejaVuSans-20" transform="translate(2637.792969 0)"/>
     <use xlink:href="#DejaVuSans-70" transform="translate(2669.580078 0)"/>
     <use xlink:href="#DejaVuSans-72" transform="translate(2733.056641 0)"/>
     <use xlink:href="#DejaVuSans-6f" transform="translate(2771.919922 0)"/>
     <use xlink:href="#DejaVuSans-62" transform="translate(2833.101562 0)"/>
     <use xlink:href="#DejaVuSans-6c" transform="translate(2896.578125 0)"/>
     <use xlink:href="#DejaVuSans-65" transform="translate(2924.361328 0)"/>
     <use xlink:href="#DejaVuSans-6d" transform="translate(2985.884766 0)"/>
     <use xlink:href="#DejaVuSans-2e" transform="translate(3083.296875 0)"/>
    </g>
   </g>
  </g>
 </g>
 <defs>
  <clipPath id="p233de89175">
   <rect x="7.2" y="7.2" width="892.8" height="498.96"/>
  </clipPath>
 </defs>
</svg>
