<?xml version="1.0" encoding="utf-8" standalone="no"?>
<!DOCTYPE svg PUBLIC "-//W3C//DTD SVG 1.1//EN"
  "http://www.w3.org/Graphics/SVG/1.1/DTD/svg11.dtd">
<svg xmlns:xlink="http://www.w3.org/1999/xlink" width="976.666562pt" height="562.016875pt" viewBox="0 0 976.666562 562.016875" xmlns="http://www.w3.org/2000/svg" version="1.1">
 <metadata>
  <rdf:RDF xmlns:dc="http://purl.org/dc/elements/1.1/" xmlns:cc="http://creativecommons.org/ns#" xmlns:rdf="http://www.w3.org/1999/02/22-rdf-syntax-ns#">
   <cc:Work>
    <dc:type rdf:resource="http://purl.org/dc/dcmitype/StillImage"/>
    <dc:date>2026-05-06T22:43:57.830989</dc:date>
    <dc:format>image/svg+xml</dc:format>
    <dc:creator>
     <cc:Agent>
      <dc:title>Matplotlib v3.10.9, https://matplotlib.org/</dc:title>
     </cc:Agent>
    </dc:creator>
   </cc:Work>
  </rdf:RDF>
 </metadata>
 <defs>
  <style type="text/css">*{stroke-linejoin: round; stroke-linecap: butt}</style>
 </defs>
 <g id="figure_1">
  <g id="patch_1">
   <path d="M 0 562.016875 
L 976.666562 562.016875 
L 976.666562 0 
L 0 0 
z
" style="fill: #ffffff"/>
  </g>
  <g id="axes_1">
   <g id="patch_2">
    <path d="M 76.666563 530.39625 
L 969.466563 530.39625 
L 969.466563 31.43625 
L 76.666563 31.43625 
z
" style="fill: #ffffff"/>
   </g>
   <g id="patch_3">
    <path d="M 117.248381 530.39625 
L 229.198224 530.39625 
L 229.198224 435.363637 
L 117.248381 435.363637 
z
" clip-path="url(#p17cb67e046)" style="fill: #56b4e9"/>
   </g>
   <g id="patch_4">
    <path d="M 257.185685 530.39625 
L 369.135528 530.39625 
L 369.135528 425.850075 
L 257.185685 425.850075 
z
" clip-path="url(#p17cb67e046)" style="fill: #56b4e9"/>
   </g>
   <g id="patch_5">
    <path d="M 397.122989 530.39625 
L 509.072832 530.39625 
L 509.072832 415.968505 
L 397.122989 415.968505 
z
" clip-path="url(#p17cb67e046)" style="fill: #56b4e9"/>
   </g>
   <g id="patch_6">
    <path d="M 537.060293 530.39625 
L 649.010136 530.39625 
L 649.010136 391.382003 
L 537.060293 391.382003 
z
" clip-path="url(#p17cb67e046)" style="fill: #56b4e9"/>
   </g>
   <g id="patch_7">
    <path d="M 676.997597 530.39625 
L 788.94744 530.39625 
L 788.94744 379.587486 
L 676.997597 379.587486 
z
" clip-path="url(#p17cb67e046)" style="fill: #56b4e9"/>
   </g>
   <g id="patch_8">
    <path d="M 816.934901 530.39625 
L 928.884744 530.39625 
L 928.884744 373.645631 
L 816.934901 373.645631 
z
" clip-path="url(#p17cb67e046)" style="fill: #56b4e9"/>
   </g>
   <g id="patch_9">
    <path d="M 117.248381 435.363637 
L 229.198224 435.363637 
L 229.198224 393.579914 
L 117.248381 393.579914 
z
" clip-path="url(#p17cb67e046)" style="fill: #e69f00"/>
   </g>
   <g id="patch_10">
    <path d="M 257.185685 425.850075 
L 369.135528 425.850075 
L 369.135528 336.034011 
L 257.185685 336.034011 
z
" clip-path="url(#p17cb67e046)" style="fill: #e69f00"/>
   </g>
   <g id="patch_11">
    <path d="M 397.122989 415.968505 
L 509.072832 415.968505 
L 509.072832 328.09356 
L 397.122989 328.09356 
z
" clip-path="url(#p17cb67e046)" style="fill: #e69f00"/>
   </g>
   <g id="patch_12">
    <path d="M 537.060293 391.382003 
L 649.010136 391.382003 
L 649.010136 225.269343 
L 537.060293 225.269343 
z
" clip-path="url(#p17cb67e046)" style="fill: #e69f00"/>
   </g>
   <g id="patch_13">
    <path d="M 676.997597 379.587486 
L 788.94744 379.587486 
L 788.94744 164.220621 
L 676.997597 164.220621 
z
" clip-path="url(#p17cb67e046)" style="fill: #e69f00"/>
   </g>
   <g id="patch_14">
    <path d="M 816.934901 373.645631 
L 928.884744 373.645631 
L 928.884744 122.173518 
L 816.934901 122.173518 
z
" clip-path="url(#p17cb67e046)" style="fill: #e69f00"/>
   </g>
   <g id="patch_15">
    <path d="M 117.248381 393.579914 
L 229.198224 393.579914 
L 229.198224 383.748954 
L 117.248381 383.748954 
z
" clip-path="url(#p17cb67e046)" style="fill: #cc79a7"/>
   </g>
   <g id="patch_16">
    <path d="M 257.185685 336.034011 
L 369.135528 336.034011 
L 369.135528 317.004891 
L 257.185685 317.004891 
z
" clip-path="url(#p17cb67e046)" style="fill: #cc79a7"/>
   </g>
   <g id="patch_17">
    <path d="M 397.122989 328.09356 
L 509.072832 328.09356 
L 509.072832 299.468305 
L 397.122989 299.468305 
z
" clip-path="url(#p17cb67e046)" style="fill: #cc79a7"/>
   </g>
   <g id="patch_18">
    <path d="M 537.060293 225.269343 
L 649.010136 225.269343 
L 649.010136 183.614128 
L 537.060293 183.614128 
z
" clip-path="url(#p17cb67e046)" style="fill: #cc79a7"/>
   </g>
   <g id="patch_19">
    <path d="M 676.997597 164.220621 
L 788.94744 164.220621 
L 788.94744 91.255907 
L 676.997597 91.255907 
z
" clip-path="url(#p17cb67e046)" style="fill: #cc79a7"/>
   </g>
   <g id="patch_20">
    <path d="M 816.934901 122.173518 
L 928.884744 122.173518 
L 928.884744 55.19625 
L 816.934901 55.19625 
z
" clip-path="url(#p17cb67e046)" style="fill: #cc79a7"/>
   </g>
   <g id="matplotlib.axis_1">
    <g id="xtick_1">
     <g id="line2d_1">
      <defs>
       <path id="m734833634d" d="M 0 0 
L 0 3.5 
" style="stroke: #000000; stroke-width: 0.8"/>
      </defs>
      <g>
       <use xlink:href="#m734833634d" x="173.223302" y="530.39625" style="stroke: #000000; stroke-width: 0.8"/>
      </g>
     </g>
     <g id="text_1">
      <!-- p=0.00 -->
      <g transform="translate(139.928927 551.073438) scale(0.18 -0.18)">
       <defs>
        <path id="DejaVuSans-70" d="M 1159 525 
L 1159 -1331 
L 581 -1331 
L 581 3500 
L 1159 3500 
L 1159 2969 
Q 1341 3281 1617 3432 
Q 1894 3584 2278 3584 
Q 2916 3584 3314 3078 
Q 3713 2572 3713 1747 
Q 3713 922 3314 415 
Q 2916 -91 2278 -91 
Q 1894 -91 1617 61 
Q 1341 213 1159 525 
z
M 3116 1747 
Q 3116 2381 2855 2742 
Q 2594 3103 2138 3103 
Q 1681 3103 1420 2742 
Q 1159 2381 1159 1747 
Q 1159 1113 1420 752 
Q 1681 391 2138 391 
Q 2594 391 2855 752 
Q 3116 1113 3116 1747 
z
" transform="scale(0.015625)"/>
        <path id="DejaVuSans-3d" d="M 678 2906 
L 4684 2906 
L 4684 2381 
L 678 2381 
L 678 2906 
z
M 678 1631 
L 4684 1631 
L 4684 1100 
L 678 1100 
L 678 1631 
z
" transform="scale(0.015625)"/>
        <path id="DejaVuSans-30" d="M 2034 4250 
Q 1547 4250 1301 3770 
Q 1056 3291 1056 2328 
Q 1056 1369 1301 889 
Q 1547 409 2034 409 
Q 2525 409 2770 889 
Q 3016 1369 3016 2328 
Q 3016 3291 2770 3770 
Q 2525 4250 2034 4250 
z
M 2034 4750 
Q 2819 4750 3233 4129 
Q 3647 3509 3647 2328 
Q 3647 1150 3233 529 
Q 2819 -91 2034 -91 
Q 1250 -91 836 529 
Q 422 1150 422 2328 
Q 422 3509 836 4129 
Q 1250 4750 2034 4750 
z
" transform="scale(0.015625)"/>
        <path id="DejaVuSans-2e" d="M 684 794 
L 1344 794 
L 1344 0 
L 684 0 
L 684 794 
z
" transform="scale(0.015625)"/>
       </defs>
       <use xlink:href="#DejaVuSans-70"/>
       <use xlink:href="#DejaVuSans-3d" transform="translate(63.476562 0)"/>
       <use xlink:href="#DejaVuSans-30" transform="translate(147.265625 0)"/>
       <use xlink:href="#DejaVuSans-2e" transform="translate(210.888672 0)"/>
       <use xlink:href="#DejaVuSans-30" transform="translate(242.675781 0)"/>
       <use xlink:href="#DejaVuSans-30" transform="translate(306.298828 0)"/>
      </g>
     </g>
    </g>
    <g id="xtick_2">
     <g id="line2d_2">
      <g>
       <use xlink:href="#m734833634d" x="313.160606" y="530.39625" style="stroke: #000000; stroke-width: 0.8"/>
      </g>
     </g>
     <g id="text_2">
      <!-- p=0.05 -->
      <g transform="translate(279.866231 551.073438) scale(0.18 -0.18)">
       <defs>
        <path id="DejaVuSans-35" d="M 691 4666 
L 3169 4666 
L 3169 4134 
L 1269 4134 
L 1269 2991 
Q 1406 3038 1543 3061 
Q 1681 3084 1819 3084 
Q 2600 3084 3056 2656 
Q 3513 2228 3513 1497 
Q 3513 744 3044 326 
Q 2575 -91 1722 -91 
Q 1428 -91 1123 -41 
Q 819 9 494 109 
L 494 744 
Q 775 591 1075 516 
Q 1375 441 1709 441 
Q 2250 441 2565 725 
Q 2881 1009 2881 1497 
Q 2881 1984 2565 2268 
Q 2250 2553 1709 2553 
Q 1456 2553 1204 2497 
Q 953 2441 691 2322 
L 691 4666 
z
" transform="scale(0.015625)"/>
       </defs>
       <use xlink:href="#DejaVuSans-70"/>
       <use xlink:href="#DejaVuSans-3d" transform="translate(63.476562 0)"/>
       <use xlink:href="#DejaVuSans-30" transform="translate(147.265625 0)"/>
       <use xlink:href="#DejaVuSans-2e" transform="translate(210.888672 0)"/>
       <use xlink:href="#DejaVuSans-30" transform="translate(242.675781 0)"/>
       <use xlink:href="#DejaVuSans-35" transform="translate(306.298828 0)"/>
      </g>
     </g>
    </g>
    <g id="xtick_3">
     <g id="line2d_3">
      <g>
       <use xlink:href="#m734833634d" x="453.09791" y="530.39625" style="stroke: #000000; stroke-width: 0.8"/>
      </g>
     </g>
     <g id="text_3">
      <!-- p=0.10 -->
      <g transform="translate(419.803535 551.073438) scale(0.18 -0.18)">
       <defs>
        <path id="DejaVuSans-31" d="M 794 531 
L 1825 531 
L 1825 4091 
L 703 3866 
L 703 4441 
L 1819 4666 
L 2450 4666 
L 2450 531 
L 3481 531 
L 3481 0 
L 794 0 
L 794 531 
z
" transform="scale(0.015625)"/>
       </defs>
       <use xlink:href="#DejaVuSans-70"/>
       <use xlink:href="#DejaVuSans-3d" transform="translate(63.476562 0)"/>
       <use xlink:href="#DejaVuSans-30" transform="translate(147.265625 0)"/>
       <use xlink:href="#DejaVuSans-2e" transform="translate(210.888672 0)"/>
       <use xlink:href="#DejaVuSans-31" transform="translate(242.675781 0)"/>
       <use xlink:href="#DejaVuSans-30" transform="translate(306.298828 0)"/>
      </g>
     </g>
    </g>
    <g id="xtick_4">
     <g id="line2d_4">
      <g>
       <use xlink:href="#m734833634d" x="593.035215" y="530.39625" style="stroke: #000000; stroke-width: 0.8"/>
      </g>
     </g>
     <g id="text_4">
      <!-- p=0.15 -->
      <g transform="translate(559.74084 551.073438) scale(0.18 -0.18)">
       <use xlink:href="#DejaVuSans-70"/>
       <use xlink:href="#DejaVuSans-3d" transform="translate(63.476562 0)"/>
       <use xlink:href="#DejaVuSans-30" transform="translate(147.265625 0)"/>
       <use xlink:href="#DejaVuSans-2e" transform="translate(210.888672 0)"/>
       <use xlink:href="#DejaVuSans-31" transform="translate(242.675781 0)"/>
       <use xlink:href="#DejaVuSans-35" transform="translate(306.298828 0)"/>
      </g>
     </g>
    </g>
    <g id="xtick_5">
     <g id="line2d_5">
      <g>
       <use xlink:href="#m734833634d" x="732.972519" y="530.39625" style="stroke: #000000; stroke-width: 0.8"/>
      </g>
     </g>
     <g id="text_5">
      <!-- p=0.20 -->
      <g transform="translate(699.678144 551.073438) scale(0.18 -0.18)">
       <defs>
        <path id="DejaVuSans-32" d="M 1228 531 
L 3431 531 
L 3431 0 
L 469 0 
L 469 531 
Q 828 903 1448 1529 
Q 2069 2156 2228 2338 
Q 2531 2678 2651 2914 
Q 2772 3150 2772 3378 
Q 2772 3750 2511 3984 
Q 2250 4219 1831 4219 
Q 1534 4219 1204 4116 
Q 875 4013 500 3803 
L 500 4441 
Q 881 4594 1212 4672 
Q 1544 4750 1819 4750 
Q 2544 4750 2975 4387 
Q 3406 4025 3406 3419 
Q 3406 3131 3298 2873 
Q 3191 2616 2906 2266 
Q 2828 2175 2409 1742 
Q 1991 1309 1228 531 
z
" transform="scale(0.015625)"/>
       </defs>
       <use xlink:href="#DejaVuSans-70"/>
       <use xlink:href="#DejaVuSans-3d" transform="translate(63.476562 0)"/>
       <use xlink:href="#DejaVuSans-30" transform="translate(147.265625 0)"/>
       <use xlink:href="#DejaVuSans-2e" transform="translate(210.888672 0)"/>
       <use xlink:href="#DejaVuSans-32" transform="translate(242.675781 0)"/>
       <use xlink:href="#DejaVuSans-30" transform="translate(306.298828 0)"/>
      </g>
     </g>
    </g>
    <g id="xtick_6">
     <g id="line2d_6">
      <g>
       <use xlink:href="#m734833634d" x="872.909823" y="530.39625" style="stroke: #000000; stroke-width: 0.8"/>
      </g>
     </g>
     <g id="text_6">
      <!-- p=0.25 -->
      <g transform="translate(839.615448 551.073438) scale(0.18 -0.18)">
       <use xlink:href="#DejaVuSans-70"/>
       <use xlink:href="#DejaVuSans-3d" transform="translate(63.476562 0)"/>
       <use xlink:href="#DejaVuSans-30" transform="translate(147.265625 0)"/>
       <use xlink:href="#DejaVuSans-2e" transform="translate(210.888672 0)"/>
       <use xlink:href="#DejaVuSans-32" transform="translate(242.675781 0)"/>
       <use xlink:href="#DejaVuSans-35" transform="translate(306.298828 0)"/>
      </g>
     </g>
    </g>
   </g>
   <g id="matplotlib.axis_2">
    <g id="ytick_1">
     <g id="line2d_7">
      <path d="M 76.666563 530.39625 
L 969.466563 530.39625 
" clip-path="url(#p17cb67e046)" style="fill: none; stroke: #b0b0b0; stroke-opacity: 0.25; stroke-width: 0.8; stroke-linecap: square"/>
     </g>
     <g id="line2d_8">
      <defs>
       <path id="m40a4fbfa00" d="M 0 0 
L -3.5 0 
" style="stroke: #000000; stroke-width: 0.8"/>
      </defs>
      <g>
       <use xlink:href="#m40a4fbfa00" x="76.666563" y="530.39625" style="stroke: #000000; stroke-width: 0.8"/>
      </g>
     </g>
     <g id="text_7">
      <!-- 0.00 -->
      <g transform="translate(29.588438 537.234844) scale(0.18 -0.18)">
       <use xlink:href="#DejaVuSans-30"/>
       <use xlink:href="#DejaVuSans-2e" transform="translate(63.623047 0)"/>
       <use xlink:href="#DejaVuSans-30" transform="translate(95.410156 0)"/>
       <use xlink:href="#DejaVuSans-30" transform="translate(159.033203 0)"/>
      </g>
     </g>
    </g>
    <g id="ytick_2">
     <g id="line2d_9">
      <path d="M 76.666563 448.471584 
L 969.466563 448.471584 
" clip-path="url(#p17cb67e046)" style="fill: none; stroke: #b0b0b0; stroke-opacity: 0.25; stroke-width: 0.8; stroke-linecap: square"/>
     </g>
     <g id="line2d_10">
      <g>
       <use xlink:href="#m40a4fbfa00" x="76.666563" y="448.471584" style="stroke: #000000; stroke-width: 0.8"/>
      </g>
     </g>
     <g id="text_8">
      <!-- 0.05 -->
      <g transform="translate(29.588438 455.310177) scale(0.18 -0.18)">
       <use xlink:href="#DejaVuSans-30"/>
       <use xlink:href="#DejaVuSans-2e" transform="translate(63.623047 0)"/>
       <use xlink:href="#DejaVuSans-30" transform="translate(95.410156 0)"/>
       <use xlink:href="#DejaVuSans-35" transform="translate(159.033203 0)"/>
      </g>
     </g>
    </g>
    <g id="ytick_3">
     <g id="line2d_11">
      <path d="M 76.666563 366.546917 
L 969.466563 366.546917 
" clip-path="url(#p17cb67e046)" style="fill: none; stroke: #b0b0b0; stroke-opacity: 0.25; stroke-width: 0.8; stroke-linecap: square"/>
     </g>
     <g id="line2d_12">
      <g>
       <use xlink:href="#m40a4fbfa00" x="76.666563" y="366.546917" style="stroke: #000000; stroke-width: 0.8"/>
      </g>
     </g>
     <g id="text_9">
      <!-- 0.10 -->
      <g transform="translate(29.588438 373.385511) scale(0.18 -0.18)">
       <use xlink:href="#DejaVuSans-30"/>
       <use xlink:href="#DejaVuSans-2e" transform="translate(63.623047 0)"/>
       <use xlink:href="#DejaVuSans-31" transform="translate(95.410156 0)"/>
       <use xlink:href="#DejaVuSans-30" transform="translate(159.033203 0)"/>
      </g>
     </g>
    </g>
    <g id="ytick_4">
     <g id="line2d_13">
      <path d="M 76.666563 284.622251 
L 969.466563 284.622251 
" clip-path="url(#p17cb67e046)" style="fill: none; stroke: #b0b0b0; stroke-opacity: 0.25; stroke-width: 0.8; stroke-linecap: square"/>
     </g>
     <g id="line2d_14">
      <g>
       <use xlink:href="#m40a4fbfa00" x="76.666563" y="284.622251" style="stroke: #000000; stroke-width: 0.8"/>
      </g>
     </g>
     <g id="text_10">
      <!-- 0.15 -->
      <g transform="translate(29.588438 291.460844) scale(0.18 -0.18)">
       <use xlink:href="#DejaVuSans-30"/>
       <use xlink:href="#DejaVuSans-2e" transform="translate(63.623047 0)"/>
       <use xlink:href="#DejaVuSans-31" transform="translate(95.410156 0)"/>
       <use xlink:href="#DejaVuSans-35" transform="translate(159.033203 0)"/>
      </g>
     </g>
    </g>
    <g id="ytick_5">
     <g id="line2d_15">
      <path d="M 76.666563 202.697584 
L 969.466563 202.697584 
" clip-path="url(#p17cb67e046)" style="fill: none; stroke: #b0b0b0; stroke-opacity: 0.25; stroke-width: 0.8; stroke-linecap: square"/>
     </g>
     <g id="line2d_16">
      <g>
       <use xlink:href="#m40a4fbfa00" x="76.666563" y="202.697584" style="stroke: #000000; stroke-width: 0.8"/>
      </g>
     </g>
     <g id="text_11">
      <!-- 0.20 -->
      <g transform="translate(29.588438 209.536178) scale(0.18 -0.18)">
       <use xlink:href="#DejaVuSans-30"/>
       <use xlink:href="#DejaVuSans-2e" transform="translate(63.623047 0)"/>
       <use xlink:href="#DejaVuSans-32" transform="translate(95.410156 0)"/>
       <use xlink:href="#DejaVuSans-30" transform="translate(159.033203 0)"/>
      </g>
     </g>
    </g>
    <g id="ytick_6">
     <g id="line2d_17">
      <path d="M 76.666563 120.772918 
L 969.466563 120.772918 
" clip-path="url(#p17cb67e046)" style="fill: none; stroke: #b0b0b0; stroke-opacity: 0.25; stroke-width: 0.8; stroke-linecap: square"/>
     </g>
     <g id="line2d_18">
      <g>
       <use xlink:href="#m40a4fbfa00" x="76.666563" y="120.772918" style="stroke: #000000; stroke-width: 0.8"/>
      </g>
     </g>
     <g id="text_12">
      <!-- 0.25 -->
      <g transform="translate(29.588438 127.611511) scale(0.18 -0.18)">
       <use xlink:href="#DejaVuSans-30"/>
       <use xlink:href="#DejaVuSans-2e" transform="translate(63.623047 0)"/>
       <use xlink:href="#DejaVuSans-32" transform="translate(95.410156 0)"/>
       <use xlink:href="#DejaVuSans-35" transform="translate(159.033203 0)"/>
      </g>
     </g>
    </g>
    <g id="ytick_7">
     <g id="line2d_19">
      <path d="M 76.666563 38.848251 
L 969.466563 38.848251 
" clip-path="url(#p17cb67e046)" style="fill: none; stroke: #b0b0b0; stroke-opacity: 0.25; stroke-width: 0.8; stroke-linecap: square"/>
     </g>
     <g id="line2d_20">
      <g>
       <use xlink:href="#m40a4fbfa00" x="76.666563" y="38.848251" style="stroke: #000000; stroke-width: 0.8"/>
      </g>
     </g>
     <g id="text_13">
      <!-- 0.30 -->
      <g transform="translate(29.588438 45.686845) scale(0.18 -0.18)">
       <defs>
        <path id="DejaVuSans-33" d="M 2597 2516 
Q 3050 2419 3304 2112 
Q 3559 1806 3559 1356 
Q 3559 666 3084 287 
Q 2609 -91 1734 -91 
Q 1441 -91 1130 -33 
Q 819 25 488 141 
L 488 750 
Q 750 597 1062 519 
Q 1375 441 1716 441 
Q 2309 441 2620 675 
Q 2931 909 2931 1356 
Q 2931 1769 2642 2001 
Q 2353 2234 1838 2234 
L 1294 2234 
L 1294 2753 
L 1863 2753 
Q 2328 2753 2575 2939 
Q 2822 3125 2822 3475 
Q 2822 3834 2567 4026 
Q 2313 4219 1838 4219 
Q 1578 4219 1281 4162 
Q 984 4106 628 3988 
L 628 4550 
Q 988 4650 1302 4700 
Q 1616 4750 1894 4750 
Q 2613 4750 3031 4423 
Q 3450 4097 3450 3541 
Q 3450 3153 3228 2886 
Q 3006 2619 2597 2516 
z
" transform="scale(0.015625)"/>
       </defs>
       <use xlink:href="#DejaVuSans-30"/>
       <use xlink:href="#DejaVuSans-2e" transform="translate(63.623047 0)"/>
       <use xlink:href="#DejaVuSans-33" transform="translate(95.410156 0)"/>
       <use xlink:href="#DejaVuSans-30" transform="translate(159.033203 0)"/>
      </g>
     </g>
    </g>
    <g id="text_14">
     <!-- Weighted objective contribution -->
     <g transform="translate(21.637031 432.885078) rotate(-90) scale(0.19 -0.19)">
      <defs>
       <path id="DejaVuSans-57" d="M 213 4666 
L 850 4666 
L 1831 722 
L 2809 4666 
L 3519 4666 
L 4500 722 
L 5478 4666 
L 6119 4666 
L 4947 0 
L 4153 0 
L 3169 4050 
L 2175 0 
L 1381 0 
L 213 4666 
z
" transform="scale(0.015625)"/>
       <path id="DejaVuSans-65" d="M 3597 1894 
L 3597 1613 
L 953 1613 
Q 991 1019 1311 708 
Q 1631 397 2203 397 
Q 2534 397 2845 478 
Q 3156 559 3463 722 
L 3463 178 
Q 3153 47 2828 -22 
Q 2503 -91 2169 -91 
Q 1331 -91 842 396 
Q 353 884 353 1716 
Q 353 2575 817 3079 
Q 1281 3584 2069 3584 
Q 2775 3584 3186 3129 
Q 3597 2675 3597 1894 
z
M 3022 2063 
Q 3016 2534 2758 2815 
Q 2500 3097 2075 3097 
Q 1594 3097 1305 2825 
Q 1016 2553 972 2059 
L 3022 2063 
z
" transform="scale(0.015625)"/>
       <path id="DejaVuSans-69" d="M 603 3500 
L 1178 3500 
L 1178 0 
L 603 0 
L 603 3500 
z
M 603 4863 
L 1178 4863 
L 1178 4134 
L 603 4134 
L 603 4863 
z
" transform="scale(0.015625)"/>
       <path id="DejaVuSans-67" d="M 2906 1791 
Q 2906 2416 2648 2759 
Q 2391 3103 1925 3103 
Q 1463 3103 1205 2759 
Q 947 2416 947 1791 
Q 947 1169 1205 825 
Q 1463 481 1925 481 
Q 2391 481 2648 825 
Q 2906 1169 2906 1791 
z
M 3481 434 
Q 3481 -459 3084 -895 
Q 2688 -1331 1869 -1331 
Q 1566 -1331 1297 -1286 
Q 1028 -1241 775 -1147 
L 775 -588 
Q 1028 -725 1275 -790 
Q 1522 -856 1778 -856 
Q 2344 -856 2625 -561 
Q 2906 -266 2906 331 
L 2906 616 
Q 2728 306 2450 153 
Q 2172 0 1784 0 
Q 1141 0 747 490 
Q 353 981 353 1791 
Q 353 2603 747 3093 
Q 1141 3584 1784 3584 
Q 2172 3584 2450 3431 
Q 2728 3278 2906 2969 
L 2906 3500 
L 3481 3500 
L 3481 434 
z
" transform="scale(0.015625)"/>
       <path id="DejaVuSans-68" d="M 3513 2113 
L 3513 0 
L 2938 0 
L 2938 2094 
Q 2938 2591 2744 2837 
Q 2550 3084 2163 3084 
Q 1697 3084 1428 2787 
Q 1159 2491 1159 1978 
L 1159 0 
L 581 0 
L 581 4863 
L 1159 4863 
L 1159 2956 
Q 1366 3272 1645 3428 
Q 1925 3584 2291 3584 
Q 2894 3584 3203 3211 
Q 3513 2838 3513 2113 
z
" transform="scale(0.015625)"/>
       <path id="DejaVuSans-74" d="M 1172 4494 
L 1172 3500 
L 2356 3500 
L 2356 3053 
L 1172 3053 
L 1172 1153 
Q 1172 725 1289 603 
Q 1406 481 1766 481 
L 2356 481 
L 2356 0 
L 1766 0 
Q 1100 0 847 248 
Q 594 497 594 1153 
L 594 3053 
L 172 3053 
L 172 3500 
L 594 3500 
L 594 4494 
L 1172 4494 
z
" transform="scale(0.015625)"/>
       <path id="DejaVuSans-64" d="M 2906 2969 
L 2906 4863 
L 3481 4863 
L 3481 0 
L 2906 0 
L 2906 525 
Q 2725 213 2448 61 
Q 2172 -91 1784 -91 
Q 1150 -91 751 415 
Q 353 922 353 1747 
Q 353 2572 751 3078 
Q 1150 3584 1784 3584 
Q 2172 3584 2448 3432 
Q 2725 3281 2906 2969 
z
M 947 1747 
Q 947 1113 1208 752 
Q 1469 391 1925 391 
Q 2381 391 2643 752 
Q 2906 1113 2906 1747 
Q 2906 2381 2643 2742 
Q 2381 3103 1925 3103 
Q 1469 3103 1208 2742 
Q 947 2381 947 1747 
z
" transform="scale(0.015625)"/>
       <path id="DejaVuSans-20" transform="scale(0.015625)"/>
       <path id="DejaVuSans-6f" d="M 1959 3097 
Q 1497 3097 1228 2736 
Q 959 2375 959 1747 
Q 959 1119 1226 758 
Q 1494 397 1959 397 
Q 2419 397 2687 759 
Q 2956 1122 2956 1747 
Q 2956 2369 2687 2733 
Q 2419 3097 1959 3097 
z
M 1959 3584 
Q 2709 3584 3137 3096 
Q 3566 2609 3566 1747 
Q 3566 888 3137 398 
Q 2709 -91 1959 -91 
Q 1206 -91 779 398 
Q 353 888 353 1747 
Q 353 2609 779 3096 
Q 1206 3584 1959 3584 
z
" transform="scale(0.015625)"/>
       <path id="DejaVuSans-62" d="M 3116 1747 
Q 3116 2381 2855 2742 
Q 2594 3103 2138 3103 
Q 1681 3103 1420 2742 
Q 1159 2381 1159 1747 
Q 1159 1113 1420 752 
Q 1681 391 2138 391 
Q 2594 391 2855 752 
Q 3116 1113 3116 1747 
z
M 1159 2969 
Q 1341 3281 1617 3432 
Q 1894 3584 2278 3584 
Q 2916 3584 3314 3078 
Q 3713 2572 3713 1747 
Q 3713 922 3314 415 
Q 2916 -91 2278 -91 
Q 1894 -91 1617 61 
Q 1341 213 1159 525 
L 1159 0 
L 581 0 
L 581 4863 
L 1159 4863 
L 1159 2969 
z
" transform="scale(0.015625)"/>
       <path id="DejaVuSans-6a" d="M 603 3500 
L 1178 3500 
L 1178 -63 
Q 1178 -731 923 -1031 
Q 669 -1331 103 -1331 
L -116 -1331 
L -116 -844 
L 38 -844 
Q 366 -844 484 -692 
Q 603 -541 603 -63 
L 603 3500 
z
M 603 4863 
L 1178 4863 
L 1178 4134 
L 603 4134 
L 603 4863 
z
" transform="scale(0.015625)"/>
       <path id="DejaVuSans-63" d="M 3122 3366 
L 3122 2828 
Q 2878 2963 2633 3030 
Q 2388 3097 2138 3097 
Q 1578 3097 1268 2742 
Q 959 2388 959 1747 
Q 959 1106 1268 751 
Q 1578 397 2138 397 
Q 2388 397 2633 464 
Q 2878 531 3122 666 
L 3122 134 
Q 2881 22 2623 -34 
Q 2366 -91 2075 -91 
Q 1284 -91 818 406 
Q 353 903 353 1747 
Q 353 2603 823 3093 
Q 1294 3584 2113 3584 
Q 2378 3584 2631 3529 
Q 2884 3475 3122 3366 
z
" transform="scale(0.015625)"/>
       <path id="DejaVuSans-76" d="M 191 3500 
L 800 3500 
L 1894 563 
L 2988 3500 
L 3597 3500 
L 2284 0 
L 1503 0 
L 191 3500 
z
" transform="scale(0.015625)"/>
       <path id="DejaVuSans-6e" d="M 3513 2113 
L 3513 0 
L 2938 0 
L 2938 2094 
Q 2938 2591 2744 2837 
Q 2550 3084 2163 3084 
Q 1697 3084 1428 2787 
Q 1159 2491 1159 1978 
L 1159 0 
L 581 0 
L 581 3500 
L 1159 3500 
L 1159 2956 
Q 1366 3272 1645 3428 
Q 1925 3584 2291 3584 
Q 2894 3584 3203 3211 
Q 3513 2838 3513 2113 
z
" transform="scale(0.015625)"/>
       <path id="DejaVuSans-72" d="M 2631 2963 
Q 2534 3019 2420 3045 
Q 2306 3072 2169 3072 
Q 1681 3072 1420 2755 
Q 1159 2438 1159 1844 
L 1159 0 
L 581 0 
L 581 3500 
L 1159 3500 
L 1159 2956 
Q 1341 3275 1631 3429 
Q 1922 3584 2338 3584 
Q 2397 3584 2469 3576 
Q 2541 3569 2628 3553 
L 2631 2963 
z
" transform="scale(0.015625)"/>
       <path id="DejaVuSans-75" d="M 544 1381 
L 544 3500 
L 1119 3500 
L 1119 1403 
Q 1119 906 1312 657 
Q 1506 409 1894 409 
Q 2359 409 2629 706 
Q 2900 1003 2900 1516 
L 2900 3500 
L 3475 3500 
L 3475 0 
L 2900 0 
L 2900 538 
Q 2691 219 2414 64 
Q 2138 -91 1772 -91 
Q 1169 -91 856 284 
Q 544 659 544 1381 
z
M 1991 3584 
L 1991 3584 
z
" transform="scale(0.015625)"/>
      </defs>
      <use xlink:href="#DejaVuSans-57"/>
      <use xlink:href="#DejaVuSans-65" transform="translate(93.001953 0)"/>
      <use xlink:href="#DejaVuSans-69" transform="translate(154.525391 0)"/>
      <use xlink:href="#DejaVuSans-67" transform="translate(182.308594 0)"/>
      <use xlink:href="#DejaVuSans-68" transform="translate(245.785156 0)"/>
      <use xlink:href="#DejaVuSans-74" transform="translate(309.164062 0)"/>
      <use xlink:href="#DejaVuSans-65" transform="translate(348.373047 0)"/>
      <use xlink:href="#DejaVuSans-64" transform="translate(409.896484 0)"/>
      <use xlink:href="#DejaVuSans-20" transform="translate(473.373047 0)"/>
      <use xlink:href="#DejaVuSans-6f" transform="translate(505.160156 0)"/>
      <use xlink:href="#DejaVuSans-62" transform="translate(566.341797 0)"/>
      <use xlink:href="#DejaVuSans-6a" transform="translate(629.818359 0)"/>
      <use xlink:href="#DejaVuSans-65" transform="translate(657.601562 0)"/>
      <use xlink:href="#DejaVuSans-63" transform="translate(719.125 0)"/>
      <use xlink:href="#DejaVuSans-74" transform="translate(774.105469 0)"/>
      <use xlink:href="#DejaVuSans-69" transform="translate(813.314453 0)"/>
      <use xlink:href="#DejaVuSans-76" transform="translate(841.097656 0)"/>
      <use xlink:href="#DejaVuSans-65" transform="translate(900.277344 0)"/>
      <use xlink:href="#DejaVuSans-20" transform="translate(961.800781 0)"/>
      <use xlink:href="#DejaVuSans-63" transform="translate(993.587891 0)"/>
      <use xlink:href="#DejaVuSans-6f" transform="translate(1048.568359 0)"/>
      <use xlink:href="#DejaVuSans-6e" transform="translate(1109.75 0)"/>
      <use xlink:href="#DejaVuSans-74" transform="translate(1173.128906 0)"/>
      <use xlink:href="#DejaVuSans-72" transform="translate(1212.337891 0)"/>
      <use xlink:href="#DejaVuSans-69" transform="translate(1253.451172 0)"/>
      <use xlink:href="#DejaVuSans-62" transform="translate(1281.234375 0)"/>
      <use xlink:href="#DejaVuSans-75" transform="translate(1344.710938 0)"/>
      <use xlink:href="#DejaVuSans-74" transform="translate(1408.089844 0)"/>
      <use xlink:href="#DejaVuSans-69" transform="translate(1447.298828 0)"/>
      <use xlink:href="#DejaVuSans-6f" transform="translate(1475.082031 0)"/>
      <use xlink:href="#DejaVuSans-6e" transform="translate(1536.263672 0)"/>
     </g>
    </g>
   </g>
   <g id="patch_21">
    <path d="M 76.666563 530.39625 
L 76.666563 31.43625 
" style="fill: none; stroke: #000000; stroke-width: 0.8; stroke-linejoin: miter; stroke-linecap: square"/>
   </g>
   <g id="patch_22">
    <path d="M 969.466563 530.39625 
L 969.466563 31.43625 
" style="fill: none; stroke: #000000; stroke-width: 0.8; stroke-linejoin: miter; stroke-linecap: square"/>
   </g>
   <g id="patch_23">
    <path d="M 76.666562 530.39625 
L 969.466563 530.39625 
" style="fill: none; stroke: #000000; stroke-width: 0.8; stroke-linejoin: miter; stroke-linecap: square"/>
   </g>
   <g id="patch_24">
    <path d="M 76.666562 31.43625 
L 969.466563 31.43625 
" style="fill: none; stroke: #000000; stroke-width: 0.8; stroke-linejoin: miter; stroke-linecap: square"/>
   </g>
   <g id="text_15">
    <!-- Online DQN Non-Access Overheads -->
    <g transform="translate(311.320938 25.43625) scale(0.24 -0.24)">
     <defs>
      <path id="DejaVuSans-4f" d="M 2522 4238 
Q 1834 4238 1429 3725 
Q 1025 3213 1025 2328 
Q 1025 1447 1429 934 
Q 1834 422 2522 422 
Q 3209 422 3611 934 
Q 4013 1447 4013 2328 
Q 4013 3213 3611 3725 
Q 3209 4238 2522 4238 
z
M 2522 4750 
Q 3503 4750 4090 4092 
Q 4678 3434 4678 2328 
Q 4678 1225 4090 567 
Q 3503 -91 2522 -91 
Q 1538 -91 948 565 
Q 359 1222 359 2328 
Q 359 3434 948 4092 
Q 1538 4750 2522 4750 
z
" transform="scale(0.015625)"/>
      <path id="DejaVuSans-6c" d="M 603 4863 
L 1178 4863 
L 1178 0 
L 603 0 
L 603 4863 
z
" transform="scale(0.015625)"/>
      <path id="DejaVuSans-44" d="M 1259 4147 
L 1259 519 
L 2022 519 
Q 2988 519 3436 956 
Q 3884 1394 3884 2338 
Q 3884 3275 3436 3711 
Q 2988 4147 2022 4147 
L 1259 4147 
z
M 628 4666 
L 1925 4666 
Q 3281 4666 3915 4102 
Q 4550 3538 4550 2338 
Q 4550 1131 3912 565 
Q 3275 0 1925 0 
L 628 0 
L 628 4666 
z
" transform="scale(0.015625)"/>
      <path id="DejaVuSans-51" d="M 2522 4238 
Q 1834 4238 1429 3725 
Q 1025 3213 1025 2328 
Q 1025 1447 1429 934 
Q 1834 422 2522 422 
Q 3209 422 3611 934 
Q 4013 1447 4013 2328 
Q 4013 3213 3611 3725 
Q 3209 4238 2522 4238 
z
M 3406 84 
L 4238 -825 
L 3475 -825 
L 2784 -78 
Q 2681 -84 2626 -87 
Q 2572 -91 2522 -91 
Q 1538 -91 948 567 
Q 359 1225 359 2328 
Q 359 3434 948 4092 
Q 1538 4750 2522 4750 
Q 3503 4750 4090 4092 
Q 4678 3434 4678 2328 
Q 4678 1516 4351 937 
Q 4025 359 3406 84 
z
" transform="scale(0.015625)"/>
      <path id="DejaVuSans-4e" d="M 628 4666 
L 1478 4666 
L 3547 763 
L 3547 4666 
L 4159 4666 
L 4159 0 
L 3309 0 
L 1241 3903 
L 1241 0 
L 628 0 
L 628 4666 
z
" transform="scale(0.015625)"/>
      <path id="DejaVuSans-2d" d="M 313 2009 
L 1997 2009 
L 1997 1497 
L 313 1497 
L 313 2009 
z
" transform="scale(0.015625)"/>
      <path id="DejaVuSans-41" d="M 2188 4044 
L 1331 1722 
L 3047 1722 
L 2188 4044 
z
M 1831 4666 
L 2547 4666 
L 4325 0 
L 3669 0 
L 3244 1197 
L 1141 1197 
L 716 0 
L 50 0 
L 1831 4666 
z
" transform="scale(0.015625)"/>
      <path id="DejaVuSans-73" d="M 2834 3397 
L 2834 2853 
Q 2591 2978 2328 3040 
Q 2066 3103 1784 3103 
Q 1356 3103 1142 2972 
Q 928 2841 928 2578 
Q 928 2378 1081 2264 
Q 1234 2150 1697 2047 
L 1894 2003 
Q 2506 1872 2764 1633 
Q 3022 1394 3022 966 
Q 3022 478 2636 193 
Q 2250 -91 1575 -91 
Q 1294 -91 989 -36 
Q 684 19 347 128 
L 347 722 
Q 666 556 975 473 
Q 1284 391 1588 391 
Q 1994 391 2212 530 
Q 2431 669 2431 922 
Q 2431 1156 2273 1281 
Q 2116 1406 1581 1522 
L 1381 1569 
Q 847 1681 609 1914 
Q 372 2147 372 2553 
Q 372 3047 722 3315 
Q 1072 3584 1716 3584 
Q 2034 3584 2315 3537 
Q 2597 3491 2834 3397 
z
" transform="scale(0.015625)"/>
      <path id="DejaVuSans-61" d="M 2194 1759 
Q 1497 1759 1228 1600 
Q 959 1441 959 1056 
Q 959 750 1161 570 
Q 1363 391 1709 391 
Q 2188 391 2477 730 
Q 2766 1069 2766 1631 
L 2766 1759 
L 2194 1759 
z
M 3341 1997 
L 3341 0 
L 2766 0 
L 2766 531 
Q 2569 213 2275 61 
Q 1981 -91 1556 -91 
Q 1019 -91 701 211 
Q 384 513 384 1019 
Q 384 1609 779 1909 
Q 1175 2209 1959 2209 
L 2766 2209 
L 2766 2266 
Q 2766 2663 2505 2880 
Q 2244 3097 1772 3097 
Q 1472 3097 1187 3025 
Q 903 2953 641 2809 
L 641 3341 
Q 956 3463 1253 3523 
Q 1550 3584 1831 3584 
Q 2591 3584 2966 3190 
Q 3341 2797 3341 1997 
z
" transform="scale(0.015625)"/>
     </defs>
     <use xlink:href="#DejaVuSans-4f"/>
     <use xlink:href="#DejaVuSans-6e" transform="translate(78.710938 0)"/>
     <use xlink:href="#DejaVuSans-6c" transform="translate(142.089844 0)"/>
     <use xlink:href="#DejaVuSans-69" transform="translate(169.873047 0)"/>
     <use xlink:href="#DejaVuSans-6e" transform="translate(197.65625 0)"/>
     <use xlink:href="#DejaVuSans-65" transform="translate(261.035156 0)"/>
     <use xlink:href="#DejaVuSans-20" transform="translate(322.558594 0)"/>
     <use xlink:href="#DejaVuSans-44" transform="translate(354.345703 0)"/>
     <use xlink:href="#DejaVuSans-51" transform="translate(431.347656 0)"/>
     <use xlink:href="#DejaVuSans-4e" transform="translate(510.058594 0)"/>
     <use xlink:href="#DejaVuSans-20" transform="translate(584.863281 0)"/>
     <use xlink:href="#DejaVuSans-4e" transform="translate(616.650391 0)"/>
     <use xlink:href="#DejaVuSans-6f" transform="translate(691.455078 0)"/>
     <use xlink:href="#DejaVuSans-6e" transform="translate(752.636719 0)"/>
     <use xlink:href="#DejaVuSans-2d" transform="translate(816.015625 0)"/>
     <use xlink:href="#DejaVuSans-41" transform="translate(849.849609 0)"/>
     <use xlink:href="#DejaVuSans-63" transform="translate(916.507812 0)"/>
     <use xlink:href="#DejaVuSans-63" transform="translate(971.488281 0)"/>
     <use xlink:href="#DejaVuSans-65" transform="translate(1026.46875 0)"/>
     <use xlink:href="#DejaVuSans-73" transform="translate(1087.992188 0)"/>
     <use xlink:href="#DejaVuSans-73" transform="translate(1140.091797 0)"/>
     <use xlink:href="#DejaVuSans-20" transform="translate(1192.191406 0)"/>
     <use xlink:href="#DejaVuSans-4f" transform="translate(1223.978516 0)"/>
     <use xlink:href="#DejaVuSans-76" transform="translate(1302.689453 0)"/>
     <use xlink:href="#DejaVuSans-65" transform="translate(1361.869141 0)"/>
     <use xlink:href="#DejaVuSans-72" transform="translate(1423.392578 0)"/>
     <use xlink:href="#DejaVuSans-68" transform="translate(1462.755859 0)"/>
     <use xlink:href="#DejaVuSans-65" transform="translate(1526.134766 0)"/>
     <use xlink:href="#DejaVuSans-61" transform="translate(1587.658203 0)"/>
     <use xlink:href="#DejaVuSans-64" transform="translate(1648.9375 0)"/>
     <use xlink:href="#DejaVuSans-73" transform="translate(1712.414062 0)"/>
    </g>
   </g>
   <g id="legend_1">
    <g id="patch_25">
     <path d="M 92.866563 61.313438 
L 128.866563 61.313438 
L 128.866563 48.713438 
L 92.866563 48.713438 
z
" style="fill: #56b4e9"/>
    </g>
    <g id="text_16">
     <!-- Weighted replication -->
     <g transform="translate(143.266563 61.313438) scale(0.18 -0.18)">
      <use xlink:href="#DejaVuSans-57"/>
      <use xlink:href="#DejaVuSans-65" transform="translate(93.001953 0)"/>
      <use xlink:href="#DejaVuSans-69" transform="translate(154.525391 0)"/>
      <use xlink:href="#DejaVuSans-67" transform="translate(182.308594 0)"/>
      <use xlink:href="#DejaVuSans-68" transform="translate(245.785156 0)"/>
      <use xlink:href="#DejaVuSans-74" transform="translate(309.164062 0)"/>
      <use xlink:href="#DejaVuSans-65" transform="translate(348.373047 0)"/>
      <use xlink:href="#DejaVuSans-64" transform="translate(409.896484 0)"/>
      <use xlink:href="#DejaVuSans-20" transform="translate(473.373047 0)"/>
      <use xlink:href="#DejaVuSans-72" transform="translate(505.160156 0)"/>
      <use xlink:href="#DejaVuSans-65" transform="translate(544.023438 0)"/>
      <use xlink:href="#DejaVuSans-70" transform="translate(605.546875 0)"/>
      <use xlink:href="#DejaVuSans-6c" transform="translate(669.023438 0)"/>
      <use xlink:href="#DejaVuSans-69" transform="translate(696.806641 0)"/>
      <use xlink:href="#DejaVuSans-63" transform="translate(724.589844 0)"/>
      <use xlink:href="#DejaVuSans-61" transform="translate(779.570312 0)"/>
      <use xlink:href="#DejaVuSans-74" transform="translate(840.849609 0)"/>
      <use xlink:href="#DejaVuSans-69" transform="translate(880.058594 0)"/>
      <use xlink:href="#DejaVuSans-6f" transform="translate(907.841797 0)"/>
      <use xlink:href="#DejaVuSans-6e" transform="translate(969.023438 0)"/>
     </g>
    </g>
    <g id="patch_26">
     <path d="M 92.866563 87.734063 
L 128.866563 87.734063 
L 128.866563 75.134063 
L 92.866563 75.134063 
z
" style="fill: #e69f00"/>
    </g>
    <g id="text_17">
     <!-- Weighted redundancy -->
     <g transform="translate(143.266563 87.734063) scale(0.18 -0.18)">
      <defs>
       <path id="DejaVuSans-79" d="M 2059 -325 
Q 1816 -950 1584 -1140 
Q 1353 -1331 966 -1331 
L 506 -1331 
L 506 -850 
L 844 -850 
Q 1081 -850 1212 -737 
Q 1344 -625 1503 -206 
L 1606 56 
L 191 3500 
L 800 3500 
L 1894 763 
L 2988 3500 
L 3597 3500 
L 2059 -325 
z
" transform="scale(0.015625)"/>
      </defs>
      <use xlink:href="#DejaVuSans-57"/>
      <use xlink:href="#DejaVuSans-65" transform="translate(93.001953 0)"/>
      <use xlink:href="#DejaVuSans-69" transform="translate(154.525391 0)"/>
      <use xlink:href="#DejaVuSans-67" transform="translate(182.308594 0)"/>
      <use xlink:href="#DejaVuSans-68" transform="translate(245.785156 0)"/>
      <use xlink:href="#DejaVuSans-74" transform="translate(309.164062 0)"/>
      <use xlink:href="#DejaVuSans-65" transform="translate(348.373047 0)"/>
      <use xlink:href="#DejaVuSans-64" transform="translate(409.896484 0)"/>
      <use xlink:href="#DejaVuSans-20" transform="translate(473.373047 0)"/>
      <use xlink:href="#DejaVuSans-72" transform="translate(505.160156 0)"/>
      <use xlink:href="#DejaVuSans-65" transform="translate(544.023438 0)"/>
      <use xlink:href="#DejaVuSans-64" transform="translate(605.546875 0)"/>
      <use xlink:href="#DejaVuSans-75" transform="translate(669.023438 0)"/>
      <use xlink:href="#DejaVuSans-6e" transform="translate(732.402344 0)"/>
      <use xlink:href="#DejaVuSans-64" transform="translate(795.78125 0)"/>
      <use xlink:href="#DejaVuSans-61" transform="translate(859.257812 0)"/>
      <use xlink:href="#DejaVuSans-6e" transform="translate(920.537109 0)"/>
      <use xlink:href="#DejaVuSans-63" transform="translate(983.916016 0)"/>
      <use xlink:href="#DejaVuSans-79" transform="translate(1038.896484 0)"/>
     </g>
    </g>
    <g id="patch_27">
     <path d="M 92.866563 114.154688 
L 128.866563 114.154688 
L 128.866563 101.554688 
L 92.866563 101.554688 
z
" style="fill: #cc79a7"/>
    </g>
    <g id="text_18">
     <!-- Weighted relocation -->
     <g transform="translate(143.266563 114.154688) scale(0.18 -0.18)">
      <use xlink:href="#DejaVuSans-57"/>
      <use xlink:href="#DejaVuSans-65" transform="translate(93.001953 0)"/>
      <use xlink:href="#DejaVuSans-69" transform="translate(154.525391 0)"/>
      <use xlink:href="#DejaVuSans-67" transform="translate(182.308594 0)"/>
      <use xlink:href="#DejaVuSans-68" transform="translate(245.785156 0)"/>
      <use xlink:href="#DejaVuSans-74" transform="translate(309.164062 0)"/>
      <use xlink:href="#DejaVuSans-65" transform="translate(348.373047 0)"/>
      <use xlink:href="#DejaVuSans-64" transform="translate(409.896484 0)"/>
      <use xlink:href="#DejaVuSans-20" transform="translate(473.373047 0)"/>
      <use xlink:href="#DejaVuSans-72" transform="translate(505.160156 0)"/>
      <use xlink:href="#DejaVuSans-65" transform="translate(544.023438 0)"/>
      <use xlink:href="#DejaVuSans-6c" transform="translate(605.546875 0)"/>
      <use xlink:href="#DejaVuSans-6f" transform="translate(633.330078 0)"/>
      <use xlink:href="#DejaVuSans-63" transform="translate(694.511719 0)"/>
      <use xlink:href="#DejaVuSans-61" transform="translate(749.492188 0)"/>
      <use xlink:href="#DejaVuSans-74" transform="translate(810.771484 0)"/>
      <use xlink:href="#DejaVuSans-69" transform="translate(849.980469 0)"/>
      <use xlink:href="#DejaVuSans-6f" transform="translate(877.763672 0)"/>
      <use xlink:href="#DejaVuSans-6e" transform="translate(938.945312 0)"/>
     </g>
    </g>
   </g>
  </g>
 </g>
 <defs>
  <clipPath id="p17cb67e046">
   <rect x="76.666563" y="31.43625" width="892.8" height="498.96"/>
  </clipPath>
 </defs>
</svg>
