<?xml version="1.0" encoding="utf-8" standalone="no"?>
<!DOCTYPE svg PUBLIC "-//W3C//DTD SVG 1.1//EN"
  "http://www.w3.org/Graphics/SVG/1.1/DTD/svg11.dtd">
<svg xmlns:xlink="http://www.w3.org/1999/xlink" width="907.2pt" height="513.36pt" viewBox="0 0 907.2 513.36" xmlns="http://www.w3.org/2000/svg" version="1.1">
 <metadata>
  <rdf:RDF xmlns:dc="http://purl.org/dc/elements/1.1/" xmlns:cc="http://creativecommons.org/ns#" xmlns:rdf="http://www.w3.org/1999/02/22-rdf-syntax-ns#">
   <cc:Work>
    <dc:type rdf:resource="http://purl.org/dc/dcmitype/StillImage"/>
    <dc:date>2026-05-06T22:43:56.516070</dc:date>
    <dc:format>image/svg+xml</dc:format>
    <dc:creator>
     <cc:Agent>
      <dc:title>Matplotlib v3.10.9, https://matplotlib.org/</dc:title>
     </cc:Agent>
    </dc:creator>
   </cc:Work>
  </rdf:RDF>
 </metadata>
 <defs>
  <style type="text/css">*{stroke-linejoin: round; stroke-linecap: butt}</style>
 </defs>
 <g id="figure_1">
  <g id="patch_1">
   <path d="M 0 513.36 
L 907.2 513.36 
L 907.2 -0 
L 0 -0 
z
" style="fill: #ffffff"/>
  </g>
  <g id="axes_1">
   <g id="patch_2">
    <path d="M 87.552 229.2372 
L 266.112 229.2372 
Q 297.36 229.2372 297.36 211.7736 
L 297.36 141.9192 
Q 297.36 124.4556 266.112 124.4556 
L 87.552 124.4556 
Q 56.304 124.4556 56.304 141.9192 
L 56.304 211.7736 
Q 56.304 229.2372 87.552 229.2372 
z
" clip-path="url(#p10aa249867)" style="fill: #e8f1fa; stroke: #2b5c7c; stroke-width: 2.2; stroke-linejoin: miter"/>
   </g>
   <g id="patch_3">
    <path d="M 364.32 229.2372 
L 542.88 229.2372 
Q 574.128 229.2372 574.128 211.7736 
L 574.128 141.9192 
Q 574.128 124.4556 542.88 124.4556 
L 364.32 124.4556 
Q 333.072 124.4556 333.072 141.9192 
L 333.072 211.7736 
Q 333.072 229.2372 364.32 229.2372 
z
" clip-path="url(#p10aa249867)" style="fill: #e8e3f8; stroke: #2b5c7c; stroke-width: 2.2; stroke-linejoin: miter"/>
   </g>
   <g id="patch_4">
    <path d="M 641.088 229.2372 
L 819.648 229.2372 
Q 850.896 229.2372 850.896 211.7736 
L 850.896 141.9192 
Q 850.896 124.4556 819.648 124.4556 
L 641.088 124.4556 
Q 609.84 124.4556 609.84 141.9192 
L 609.84 211.7736 
Q 609.84 229.2372 641.088 229.2372 
z
" clip-path="url(#p10aa249867)" style="fill: #fff0d6; stroke: #2b5c7c; stroke-width: 2.2; stroke-linejoin: miter"/>
   </g>
   <g id="patch_5">
    <path d="M 364.32 393.894 
L 542.88 393.894 
Q 574.128 393.894 574.128 376.4304 
L 574.128 306.576 
Q 574.128 289.1124 542.88 289.1124 
L 364.32 289.1124 
Q 333.072 289.1124 333.072 306.576 
L 333.072 376.4304 
Q 333.072 393.894 364.32 393.894 
z
" clip-path="url(#p10aa249867)" style="fill: #e3f4ea; stroke: #2b5c7c; stroke-width: 2.2; stroke-linejoin: miter"/>
   </g>
   <g id="patch_6">
    <path d="M 641.088 393.894 
L 819.648 393.894 
Q 850.896 393.894 850.896 376.4304 
L 850.896 306.576 
Q 850.896 289.1124 819.648 289.1124 
L 641.088 289.1124 
Q 609.84 289.1124 609.84 306.576 
L 609.84 376.4304 
Q 609.84 393.894 641.088 393.894 
z
" clip-path="url(#p10aa249867)" style="fill: #f9e2e2; stroke: #2b5c7c; stroke-width: 2.2; stroke-linejoin: miter"/>
   </g>
   <g id="patch_7">
    <path d="M 87.552 393.894 
L 266.112 393.894 
Q 297.36 393.894 297.36 376.4304 
L 297.36 306.576 
Q 297.36 289.1124 266.112 289.1124 
L 87.552 289.1124 
Q 56.304 289.1124 56.304 306.576 
L 56.304 376.4304 
Q 56.304 393.894 87.552 393.894 
z
" clip-path="url(#p10aa249867)" style="fill: #f3f6fa; stroke: #2b5c7c; stroke-width: 2.2; stroke-linejoin: miter"/>
   </g>
   <g id="patch_8">
    <path d="M 277.036049 176.8464 
Q 315.212097 176.8464 350.481258 176.8464 
" clip-path="url(#p10aa249867)" style="fill: none; stroke: #333333; stroke-width: 2.6; stroke-linecap: round"/>
    <path d="M 342.481258 172.8464 
L 350.481258 176.8464 
L 342.481258 180.8464 
z
" clip-path="url(#p10aa249867)" style="fill: #333333; stroke: #333333; stroke-width: 2.6; stroke-linecap: round"/>
   </g>
   <g id="patch_9">
    <path d="M 553.804049 176.8464 
Q 591.980097 176.8464 627.249258 176.8464 
" clip-path="url(#p10aa249867)" style="fill: none; stroke: #333333; stroke-width: 2.6; stroke-linecap: round"/>
    <path d="M 619.249258 172.8464 
L 627.249258 176.8464 
L 619.249258 180.8464 
z
" clip-path="url(#p10aa249867)" style="fill: #333333; stroke: #333333; stroke-width: 2.6; stroke-linecap: round"/>
   </g>
   <g id="patch_10">
    <path d="M 730.368 218.764187 
Q 730.368 259.175654 730.368 296.680233 
" clip-path="url(#p10aa249867)" style="fill: none; stroke: #333333; stroke-width: 2.6; stroke-linecap: round"/>
    <path d="M 734.368 288.680233 
L 730.368 296.680233 
L 726.368 288.680233 
z
" clip-path="url(#p10aa249867)" style="fill: #333333; stroke: #333333; stroke-width: 2.6; stroke-linecap: round"/>
   </g>
   <g id="patch_11">
    <path d="M 630.163951 341.5032 
Q 591.987903 341.5032 556.718742 341.5032 
" clip-path="url(#p10aa249867)" style="fill: none; stroke: #333333; stroke-width: 2.6; stroke-linecap: round"/>
    <path d="M 564.718742 345.5032 
L 556.718742 341.5032 
L 564.718742 337.5032 
z
" clip-path="url(#p10aa249867)" style="fill: #333333; stroke: #333333; stroke-width: 2.6; stroke-linecap: round"/>
   </g>
   <g id="patch_12">
    <path d="M 353.395951 341.5032 
Q 315.219903 341.5032 279.950742 341.5032 
" clip-path="url(#p10aa249867)" style="fill: none; stroke: #333333; stroke-width: 2.6; stroke-linecap: round"/>
    <path d="M 287.950742 345.5032 
L 279.950742 341.5032 
L 287.950742 337.5032 
z
" clip-path="url(#p10aa249867)" style="fill: #333333; stroke: #333333; stroke-width: 2.6; stroke-linecap: round"/>
   </g>
   <g id="patch_13">
    <path d="M 176.832 299.585413 
Q 176.832 259.173946 176.832 221.669367 
" clip-path="url(#p10aa249867)" style="fill: none; stroke: #333333; stroke-width: 2.6; stroke-linecap: round"/>
    <path d="M 172.832 229.669367 
L 176.832 221.669367 
L 180.832 229.669367 
z
" clip-path="url(#p10aa249867)" style="fill: #333333; stroke: #333333; stroke-width: 2.6; stroke-linecap: round"/>
   </g>
   <g id="text_1">
    <!-- Online DQN Refinement Loop -->
    <g transform="translate(33.984 47.1168) scale(0.3 -0.3)">
     <defs>
      <path id="DejaVuSans-Bold-4f" d="M 2719 3878 
Q 2169 3878 1866 3472 
Q 1563 3066 1563 2328 
Q 1563 1594 1866 1187 
Q 2169 781 2719 781 
Q 3272 781 3575 1187 
Q 3878 1594 3878 2328 
Q 3878 3066 3575 3472 
Q 3272 3878 2719 3878 
z
M 2719 4750 
Q 3844 4750 4481 4106 
Q 5119 3463 5119 2328 
Q 5119 1197 4481 553 
Q 3844 -91 2719 -91 
Q 1597 -91 958 553 
Q 319 1197 319 2328 
Q 319 3463 958 4106 
Q 1597 4750 2719 4750 
z
" transform="scale(0.015625)"/>
      <path id="DejaVuSans-Bold-6e" d="M 4056 2131 
L 4056 0 
L 2931 0 
L 2931 347 
L 2931 1631 
Q 2931 2084 2911 2256 
Q 2891 2428 2841 2509 
Q 2775 2619 2662 2680 
Q 2550 2741 2406 2741 
Q 2056 2741 1856 2470 
Q 1656 2200 1656 1722 
L 1656 0 
L 538 0 
L 538 3500 
L 1656 3500 
L 1656 2988 
Q 1909 3294 2193 3439 
Q 2478 3584 2822 3584 
Q 3428 3584 3742 3212 
Q 4056 2841 4056 2131 
z
" transform="scale(0.015625)"/>
      <path id="DejaVuSans-Bold-6c" d="M 538 4863 
L 1656 4863 
L 1656 0 
L 538 0 
L 538 4863 
z
" transform="scale(0.015625)"/>
      <path id="DejaVuSans-Bold-69" d="M 538 3500 
L 1656 3500 
L 1656 0 
L 538 0 
L 538 3500 
z
M 538 4863 
L 1656 4863 
L 1656 3950 
L 538 3950 
L 538 4863 
z
" transform="scale(0.015625)"/>
      <path id="DejaVuSans-Bold-65" d="M 4031 1759 
L 4031 1441 
L 1416 1441 
Q 1456 1047 1700 850 
Q 1944 653 2381 653 
Q 2734 653 3104 758 
Q 3475 863 3866 1075 
L 3866 213 
Q 3469 63 3072 -14 
Q 2675 -91 2278 -91 
Q 1328 -91 801 392 
Q 275 875 275 1747 
Q 275 2603 792 3093 
Q 1309 3584 2216 3584 
Q 3041 3584 3536 3087 
Q 4031 2591 4031 1759 
z
M 2881 2131 
Q 2881 2450 2695 2645 
Q 2509 2841 2209 2841 
Q 1884 2841 1681 2658 
Q 1478 2475 1428 2131 
L 2881 2131 
z
" transform="scale(0.015625)"/>
      <path id="DejaVuSans-Bold-20" transform="scale(0.015625)"/>
      <path id="DejaVuSans-Bold-44" d="M 1791 3756 
L 1791 909 
L 2222 909 
Q 2959 909 3348 1275 
Q 3738 1641 3738 2338 
Q 3738 3031 3350 3393 
Q 2963 3756 2222 3756 
L 1791 3756 
z
M 588 4666 
L 1856 4666 
Q 2919 4666 3439 4514 
Q 3959 4363 4331 4000 
Q 4659 3684 4818 3271 
Q 4978 2859 4978 2338 
Q 4978 1809 4818 1395 
Q 4659 981 4331 666 
Q 3956 303 3431 151 
Q 2906 0 1856 0 
L 588 0 
L 588 4666 
z
" transform="scale(0.015625)"/>
      <path id="DejaVuSans-Bold-51" d="M 2847 -84 
L 2753 -84 
Q 1600 -84 959 553 
Q 319 1191 319 2328 
Q 319 3463 958 4106 
Q 1597 4750 2719 4750 
Q 3853 4750 4486 4112 
Q 5119 3475 5119 2328 
Q 5119 1541 4783 972 
Q 4447 403 3816 116 
L 4756 -934 
L 3609 -934 
L 2847 -84 
z
M 2719 3878 
Q 2169 3878 1866 3472 
Q 1563 3066 1563 2328 
Q 1563 1578 1859 1179 
Q 2156 781 2719 781 
Q 3272 781 3575 1187 
Q 3878 1594 3878 2328 
Q 3878 3066 3575 3472 
Q 3272 3878 2719 3878 
z
" transform="scale(0.015625)"/>
      <path id="DejaVuSans-Bold-4e" d="M 588 4666 
L 1931 4666 
L 3628 1466 
L 3628 4666 
L 4769 4666 
L 4769 0 
L 3425 0 
L 1728 3200 
L 1728 0 
L 588 0 
L 588 4666 
z
" transform="scale(0.015625)"/>
      <path id="DejaVuSans-Bold-52" d="M 2297 2597 
Q 2675 2597 2839 2737 
Q 3003 2878 3003 3200 
Q 3003 3519 2839 3656 
Q 2675 3794 2297 3794 
L 1791 3794 
L 1791 2597 
L 2297 2597 
z
M 1791 1766 
L 1791 0 
L 588 0 
L 588 4666 
L 2425 4666 
Q 3347 4666 3776 4356 
Q 4206 4047 4206 3378 
Q 4206 2916 3982 2619 
Q 3759 2322 3309 2181 
Q 3556 2125 3751 1926 
Q 3947 1728 4147 1325 
L 4800 0 
L 3519 0 
L 2950 1159 
Q 2778 1509 2601 1637 
Q 2425 1766 2131 1766 
L 1791 1766 
z
" transform="scale(0.015625)"/>
      <path id="DejaVuSans-Bold-66" d="M 2841 4863 
L 2841 4128 
L 2222 4128 
Q 1984 4128 1890 4042 
Q 1797 3956 1797 3744 
L 1797 3500 
L 2753 3500 
L 2753 2700 
L 1797 2700 
L 1797 0 
L 678 0 
L 678 2700 
L 122 2700 
L 122 3500 
L 678 3500 
L 678 3744 
Q 678 4316 997 4589 
Q 1316 4863 1984 4863 
L 2841 4863 
z
" transform="scale(0.015625)"/>
      <path id="DejaVuSans-Bold-6d" d="M 3781 2919 
Q 3994 3244 4286 3414 
Q 4578 3584 4928 3584 
Q 5531 3584 5847 3212 
Q 6163 2841 6163 2131 
L 6163 0 
L 5038 0 
L 5038 1825 
Q 5041 1866 5042 1909 
Q 5044 1953 5044 2034 
Q 5044 2406 4934 2573 
Q 4825 2741 4581 2741 
Q 4263 2741 4089 2478 
Q 3916 2216 3909 1719 
L 3909 0 
L 2784 0 
L 2784 1825 
Q 2784 2406 2684 2573 
Q 2584 2741 2328 2741 
Q 2006 2741 1831 2477 
Q 1656 2213 1656 1722 
L 1656 0 
L 531 0 
L 531 3500 
L 1656 3500 
L 1656 2988 
Q 1863 3284 2130 3434 
Q 2397 3584 2719 3584 
Q 3081 3584 3359 3409 
Q 3638 3234 3781 2919 
z
" transform="scale(0.015625)"/>
      <path id="DejaVuSans-Bold-74" d="M 1759 4494 
L 1759 3500 
L 2913 3500 
L 2913 2700 
L 1759 2700 
L 1759 1216 
Q 1759 972 1856 886 
Q 1953 800 2241 800 
L 2816 800 
L 2816 0 
L 1856 0 
Q 1194 0 917 276 
Q 641 553 641 1216 
L 641 2700 
L 84 2700 
L 84 3500 
L 641 3500 
L 641 4494 
L 1759 4494 
z
" transform="scale(0.015625)"/>
      <path id="DejaVuSans-Bold-4c" d="M 588 4666 
L 1791 4666 
L 1791 909 
L 3903 909 
L 3903 0 
L 588 0 
L 588 4666 
z
" transform="scale(0.015625)"/>
      <path id="DejaVuSans-Bold-6f" d="M 2203 2784 
Q 1831 2784 1636 2517 
Q 1441 2250 1441 1747 
Q 1441 1244 1636 976 
Q 1831 709 2203 709 
Q 2569 709 2762 976 
Q 2956 1244 2956 1747 
Q 2956 2250 2762 2517 
Q 2569 2784 2203 2784 
z
M 2203 3584 
Q 3106 3584 3614 3096 
Q 4122 2609 4122 1747 
Q 4122 884 3614 396 
Q 3106 -91 2203 -91 
Q 1297 -91 786 396 
Q 275 884 275 1747 
Q 275 2609 786 3096 
Q 1297 3584 2203 3584 
z
" transform="scale(0.015625)"/>
      <path id="DejaVuSans-Bold-70" d="M 1656 506 
L 1656 -1331 
L 538 -1331 
L 538 3500 
L 1656 3500 
L 1656 2988 
Q 1888 3294 2169 3439 
Q 2450 3584 2816 3584 
Q 3463 3584 3878 3070 
Q 4294 2556 4294 1747 
Q 4294 938 3878 423 
Q 3463 -91 2816 -91 
Q 2450 -91 2169 54 
Q 1888 200 1656 506 
z
M 2400 2772 
Q 2041 2772 1848 2508 
Q 1656 2244 1656 1747 
Q 1656 1250 1848 986 
Q 2041 722 2400 722 
Q 2759 722 2948 984 
Q 3138 1247 3138 1747 
Q 3138 2247 2948 2509 
Q 2759 2772 2400 2772 
z
" transform="scale(0.015625)"/>
     </defs>
     <use xlink:href="#DejaVuSans-Bold-4f"/>
     <use xlink:href="#DejaVuSans-Bold-6e" transform="translate(85.009766 0)"/>
     <use xlink:href="#DejaVuSans-Bold-6c" transform="translate(156.201172 0)"/>
     <use xlink:href="#DejaVuSans-Bold-69" transform="translate(190.478516 0)"/>
     <use xlink:href="#DejaVuSans-Bold-6e" transform="translate(224.755859 0)"/>
     <use xlink:href="#DejaVuSans-Bold-65" transform="translate(295.947266 0)"/>
     <use xlink:href="#DejaVuSans-Bold-20" transform="translate(363.769531 0)"/>
     <use xlink:href="#DejaVuSans-Bold-44" transform="translate(398.583984 0)"/>
     <use xlink:href="#DejaVuSans-Bold-51" transform="translate(481.591797 0)"/>
     <use xlink:href="#DejaVuSans-Bold-4e" transform="translate(566.601562 0)"/>
     <use xlink:href="#DejaVuSans-Bold-20" transform="translate(650.292969 0)"/>
     <use xlink:href="#DejaVuSans-Bold-52" transform="translate(685.107422 0)"/>
     <use xlink:href="#DejaVuSans-Bold-65" transform="translate(762.109375 0)"/>
     <use xlink:href="#DejaVuSans-Bold-66" transform="translate(829.931641 0)"/>
     <use xlink:href="#DejaVuSans-Bold-69" transform="translate(873.4375 0)"/>
     <use xlink:href="#DejaVuSans-Bold-6e" transform="translate(907.714844 0)"/>
     <use xlink:href="#DejaVuSans-Bold-65" transform="translate(978.90625 0)"/>
     <use xlink:href="#DejaVuSans-Bold-6d" transform="translate(1046.728516 0)"/>
     <use xlink:href="#DejaVuSans-Bold-65" transform="translate(1150.927734 0)"/>
     <use xlink:href="#DejaVuSans-Bold-6e" transform="translate(1218.75 0)"/>
     <use xlink:href="#DejaVuSans-Bold-74" transform="translate(1289.941406 0)"/>
     <use xlink:href="#DejaVuSans-Bold-20" transform="translate(1337.744141 0)"/>
     <use xlink:href="#DejaVuSans-Bold-4c" transform="translate(1372.558594 0)"/>
     <use xlink:href="#DejaVuSans-Bold-6f" transform="translate(1436.279297 0)"/>
     <use xlink:href="#DejaVuSans-Bold-6f" transform="translate(1504.980469 0)"/>
     <use xlink:href="#DejaVuSans-Bold-70" transform="translate(1573.681641 0)"/>
    </g>
   </g>
   <g id="text_2">
    <!-- State -->
    <g transform="translate(149.569031 171.664931) scale(0.18 -0.18)">
     <defs>
      <path id="DejaVuSans-Bold-53" d="M 3834 4519 
L 3834 3531 
Q 3450 3703 3084 3790 
Q 2719 3878 2394 3878 
Q 1963 3878 1756 3759 
Q 1550 3641 1550 3391 
Q 1550 3203 1689 3098 
Q 1828 2994 2194 2919 
L 2706 2816 
Q 3484 2659 3812 2340 
Q 4141 2022 4141 1434 
Q 4141 663 3683 286 
Q 3225 -91 2284 -91 
Q 1841 -91 1394 -6 
Q 947 78 500 244 
L 500 1259 
Q 947 1022 1364 901 
Q 1781 781 2169 781 
Q 2563 781 2772 912 
Q 2981 1044 2981 1288 
Q 2981 1506 2839 1625 
Q 2697 1744 2272 1838 
L 1806 1941 
Q 1106 2091 782 2419 
Q 459 2747 459 3303 
Q 459 4000 909 4375 
Q 1359 4750 2203 4750 
Q 2588 4750 2994 4692 
Q 3400 4634 3834 4519 
z
" transform="scale(0.015625)"/>
      <path id="DejaVuSans-Bold-61" d="M 2106 1575 
Q 1756 1575 1579 1456 
Q 1403 1338 1403 1106 
Q 1403 894 1545 773 
Q 1688 653 1941 653 
Q 2256 653 2472 879 
Q 2688 1106 2688 1447 
L 2688 1575 
L 2106 1575 
z
M 3816 1997 
L 3816 0 
L 2688 0 
L 2688 519 
Q 2463 200 2181 54 
Q 1900 -91 1497 -91 
Q 953 -91 614 226 
Q 275 544 275 1050 
Q 275 1666 698 1953 
Q 1122 2241 2028 2241 
L 2688 2241 
L 2688 2328 
Q 2688 2594 2478 2717 
Q 2269 2841 1825 2841 
Q 1466 2841 1156 2769 
Q 847 2697 581 2553 
L 581 3406 
Q 941 3494 1303 3539 
Q 1666 3584 2028 3584 
Q 2975 3584 3395 3211 
Q 3816 2838 3816 1997 
z
" transform="scale(0.015625)"/>
     </defs>
     <use xlink:href="#DejaVuSans-Bold-53"/>
     <use xlink:href="#DejaVuSans-Bold-74" transform="translate(72.021484 0)"/>
     <use xlink:href="#DejaVuSans-Bold-61" transform="translate(119.824219 0)"/>
     <use xlink:href="#DejaVuSans-Bold-74" transform="translate(187.304688 0)"/>
     <use xlink:href="#DejaVuSans-Bold-65" transform="translate(235.107422 0)"/>
    </g>
    <!-- x, P, graph features -->
    <g transform="translate(77.344031 191.820994) scale(0.18 -0.18)">
     <defs>
      <path id="DejaVuSans-Bold-78" d="M 1422 1791 
L 159 3500 
L 1344 3500 
L 2059 2463 
L 2784 3500 
L 3969 3500 
L 2706 1797 
L 4031 0 
L 2847 0 
L 2059 1106 
L 1281 0 
L 97 0 
L 1422 1791 
z
" transform="scale(0.015625)"/>
      <path id="DejaVuSans-Bold-2c" d="M 653 1209 
L 1778 1209 
L 1778 256 
L 1006 -909 
L 341 -909 
L 653 256 
L 653 1209 
z
" transform="scale(0.015625)"/>
      <path id="DejaVuSans-Bold-50" d="M 588 4666 
L 2584 4666 
Q 3475 4666 3951 4270 
Q 4428 3875 4428 3144 
Q 4428 2409 3951 2014 
Q 3475 1619 2584 1619 
L 1791 1619 
L 1791 0 
L 588 0 
L 588 4666 
z
M 1791 3794 
L 1791 2491 
L 2456 2491 
Q 2806 2491 2997 2661 
Q 3188 2831 3188 3144 
Q 3188 3456 2997 3625 
Q 2806 3794 2456 3794 
L 1791 3794 
z
" transform="scale(0.015625)"/>
      <path id="DejaVuSans-Bold-67" d="M 2919 594 
Q 2688 288 2409 144 
Q 2131 0 1766 0 
Q 1125 0 706 504 
Q 288 1009 288 1791 
Q 288 2575 706 3076 
Q 1125 3578 1766 3578 
Q 2131 3578 2409 3434 
Q 2688 3291 2919 2981 
L 2919 3500 
L 4044 3500 
L 4044 353 
Q 4044 -491 3511 -936 
Q 2978 -1381 1966 -1381 
Q 1638 -1381 1331 -1331 
Q 1025 -1281 716 -1178 
L 716 -306 
Q 1009 -475 1290 -558 
Q 1572 -641 1856 -641 
Q 2406 -641 2662 -400 
Q 2919 -159 2919 353 
L 2919 594 
z
M 2181 2772 
Q 1834 2772 1640 2515 
Q 1447 2259 1447 1791 
Q 1447 1309 1634 1061 
Q 1822 813 2181 813 
Q 2531 813 2725 1069 
Q 2919 1325 2919 1791 
Q 2919 2259 2725 2515 
Q 2531 2772 2181 2772 
z
" transform="scale(0.015625)"/>
      <path id="DejaVuSans-Bold-72" d="M 3138 2547 
Q 2991 2616 2845 2648 
Q 2700 2681 2553 2681 
Q 2122 2681 1889 2404 
Q 1656 2128 1656 1613 
L 1656 0 
L 538 0 
L 538 3500 
L 1656 3500 
L 1656 2925 
Q 1872 3269 2151 3426 
Q 2431 3584 2822 3584 
Q 2878 3584 2943 3579 
Q 3009 3575 3134 3559 
L 3138 2547 
z
" transform="scale(0.015625)"/>
      <path id="DejaVuSans-Bold-68" d="M 4056 2131 
L 4056 0 
L 2931 0 
L 2931 347 
L 2931 1625 
Q 2931 2084 2911 2256 
Q 2891 2428 2841 2509 
Q 2775 2619 2662 2680 
Q 2550 2741 2406 2741 
Q 2056 2741 1856 2470 
Q 1656 2200 1656 1722 
L 1656 0 
L 538 0 
L 538 4863 
L 1656 4863 
L 1656 2988 
Q 1909 3294 2193 3439 
Q 2478 3584 2822 3584 
Q 3428 3584 3742 3212 
Q 4056 2841 4056 2131 
z
" transform="scale(0.015625)"/>
      <path id="DejaVuSans-Bold-75" d="M 500 1363 
L 500 3500 
L 1625 3500 
L 1625 3150 
Q 1625 2866 1622 2436 
Q 1619 2006 1619 1863 
Q 1619 1441 1641 1255 
Q 1663 1069 1716 984 
Q 1784 875 1895 815 
Q 2006 756 2150 756 
Q 2500 756 2700 1025 
Q 2900 1294 2900 1772 
L 2900 3500 
L 4019 3500 
L 4019 0 
L 2900 0 
L 2900 506 
Q 2647 200 2364 54 
Q 2081 -91 1741 -91 
Q 1134 -91 817 281 
Q 500 653 500 1363 
z
" transform="scale(0.015625)"/>
      <path id="DejaVuSans-Bold-73" d="M 3272 3391 
L 3272 2541 
Q 2913 2691 2578 2766 
Q 2244 2841 1947 2841 
Q 1628 2841 1473 2761 
Q 1319 2681 1319 2516 
Q 1319 2381 1436 2309 
Q 1553 2238 1856 2203 
L 2053 2175 
Q 2913 2066 3209 1816 
Q 3506 1566 3506 1031 
Q 3506 472 3093 190 
Q 2681 -91 1863 -91 
Q 1516 -91 1145 -36 
Q 775 19 384 128 
L 384 978 
Q 719 816 1070 734 
Q 1422 653 1784 653 
Q 2113 653 2278 743 
Q 2444 834 2444 1013 
Q 2444 1163 2330 1236 
Q 2216 1309 1875 1350 
L 1678 1375 
Q 931 1469 631 1722 
Q 331 1975 331 2491 
Q 331 3047 712 3315 
Q 1094 3584 1881 3584 
Q 2191 3584 2531 3537 
Q 2872 3491 3272 3391 
z
" transform="scale(0.015625)"/>
     </defs>
     <use xlink:href="#DejaVuSans-Bold-78"/>
     <use xlink:href="#DejaVuSans-Bold-2c" transform="translate(64.501953 0)"/>
     <use xlink:href="#DejaVuSans-Bold-20" transform="translate(102.490234 0)"/>
     <use xlink:href="#DejaVuSans-Bold-50" transform="translate(137.304688 0)"/>
     <use xlink:href="#DejaVuSans-Bold-2c" transform="translate(192.220703 0)"/>
     <use xlink:href="#DejaVuSans-Bold-20" transform="translate(230.208984 0)"/>
     <use xlink:href="#DejaVuSans-Bold-67" transform="translate(265.023438 0)"/>
     <use xlink:href="#DejaVuSans-Bold-72" transform="translate(336.605469 0)"/>
     <use xlink:href="#DejaVuSans-Bold-61" transform="translate(385.921875 0)"/>
     <use xlink:href="#DejaVuSans-Bold-70" transform="translate(453.402344 0)"/>
     <use xlink:href="#DejaVuSans-Bold-68" transform="translate(524.984375 0)"/>
     <use xlink:href="#DejaVuSans-Bold-20" transform="translate(596.175781 0)"/>
     <use xlink:href="#DejaVuSans-Bold-66" transform="translate(630.990234 0)"/>
     <use xlink:href="#DejaVuSans-Bold-65" transform="translate(674.496094 0)"/>
     <use xlink:href="#DejaVuSans-Bold-61" transform="translate(742.318359 0)"/>
     <use xlink:href="#DejaVuSans-Bold-74" transform="translate(809.798828 0)"/>
     <use xlink:href="#DejaVuSans-Bold-75" transform="translate(857.601562 0)"/>
     <use xlink:href="#DejaVuSans-Bold-72" transform="translate(928.792969 0)"/>
     <use xlink:href="#DejaVuSans-Bold-65" transform="translate(978.109375 0)"/>
     <use xlink:href="#DejaVuSans-Bold-73" transform="translate(1045.931641 0)"/>
    </g>
   </g>
   <g id="text_3">
    <!-- Q-network -->
    <g transform="translate(400.310156 171.664931) scale(0.18 -0.18)">
     <defs>
      <path id="DejaVuSans-Bold-2d" d="M 347 2297 
L 2309 2297 
L 2309 1388 
L 347 1388 
L 347 2297 
z
" transform="scale(0.015625)"/>
      <path id="DejaVuSans-Bold-77" d="M 225 3500 
L 1313 3500 
L 1900 1088 
L 2491 3500 
L 3425 3500 
L 4013 1113 
L 4603 3500 
L 5691 3500 
L 4769 0 
L 3547 0 
L 2956 2406 
L 2369 0 
L 1147 0 
L 225 3500 
z
" transform="scale(0.015625)"/>
      <path id="DejaVuSans-Bold-6b" d="M 538 4863 
L 1656 4863 
L 1656 2216 
L 2944 3500 
L 4244 3500 
L 2534 1894 
L 4378 0 
L 3022 0 
L 1656 1459 
L 1656 0 
L 538 0 
L 538 4863 
z
" transform="scale(0.015625)"/>
     </defs>
     <use xlink:href="#DejaVuSans-Bold-51"/>
     <use xlink:href="#DejaVuSans-Bold-2d" transform="translate(86.884766 0)"/>
     <use xlink:href="#DejaVuSans-Bold-6e" transform="translate(128.388672 0)"/>
     <use xlink:href="#DejaVuSans-Bold-65" transform="translate(199.580078 0)"/>
     <use xlink:href="#DejaVuSans-Bold-74" transform="translate(267.402344 0)"/>
     <use xlink:href="#DejaVuSans-Bold-77" transform="translate(315.205078 0)"/>
     <use xlink:href="#DejaVuSans-Bold-6f" transform="translate(407.587891 0)"/>
     <use xlink:href="#DejaVuSans-Bold-72" transform="translate(476.289062 0)"/>
     <use xlink:href="#DejaVuSans-Bold-6b" transform="translate(525.605469 0)"/>
    </g>
    <!-- 2 hidden layers -->
    <g transform="translate(375.540469 191.820994) scale(0.18 -0.18)">
     <defs>
      <path id="DejaVuSans-Bold-32" d="M 1844 884 
L 3897 884 
L 3897 0 
L 506 0 
L 506 884 
L 2209 2388 
Q 2438 2594 2547 2791 
Q 2656 2988 2656 3200 
Q 2656 3528 2436 3728 
Q 2216 3928 1850 3928 
Q 1569 3928 1234 3808 
Q 900 3688 519 3450 
L 519 4475 
Q 925 4609 1322 4679 
Q 1719 4750 2100 4750 
Q 2938 4750 3402 4381 
Q 3866 4013 3866 3353 
Q 3866 2972 3669 2642 
Q 3472 2313 2841 1759 
L 1844 884 
z
" transform="scale(0.015625)"/>
      <path id="DejaVuSans-Bold-64" d="M 2919 2988 
L 2919 4863 
L 4044 4863 
L 4044 0 
L 2919 0 
L 2919 506 
Q 2688 197 2409 53 
Q 2131 -91 1766 -91 
Q 1119 -91 703 423 
Q 288 938 288 1747 
Q 288 2556 703 3070 
Q 1119 3584 1766 3584 
Q 2128 3584 2408 3439 
Q 2688 3294 2919 2988 
z
M 2181 722 
Q 2541 722 2730 984 
Q 2919 1247 2919 1747 
Q 2919 2247 2730 2509 
Q 2541 2772 2181 2772 
Q 1825 2772 1636 2509 
Q 1447 2247 1447 1747 
Q 1447 1247 1636 984 
Q 1825 722 2181 722 
z
" transform="scale(0.015625)"/>
      <path id="DejaVuSans-Bold-79" d="M 78 3500 
L 1197 3500 
L 2138 1125 
L 2938 3500 
L 4056 3500 
L 2584 -331 
Q 2363 -916 2067 -1148 
Q 1772 -1381 1288 -1381 
L 641 -1381 
L 641 -647 
L 991 -647 
Q 1275 -647 1404 -556 
Q 1534 -466 1606 -231 
L 1638 -134 
L 78 3500 
z
" transform="scale(0.015625)"/>
     </defs>
     <use xlink:href="#DejaVuSans-Bold-32"/>
     <use xlink:href="#DejaVuSans-Bold-20" transform="translate(69.580078 0)"/>
     <use xlink:href="#DejaVuSans-Bold-68" transform="translate(104.394531 0)"/>
     <use xlink:href="#DejaVuSans-Bold-69" transform="translate(175.585938 0)"/>
     <use xlink:href="#DejaVuSans-Bold-64" transform="translate(209.863281 0)"/>
     <use xlink:href="#DejaVuSans-Bold-64" transform="translate(281.445312 0)"/>
     <use xlink:href="#DejaVuSans-Bold-65" transform="translate(353.027344 0)"/>
     <use xlink:href="#DejaVuSans-Bold-6e" transform="translate(420.849609 0)"/>
     <use xlink:href="#DejaVuSans-Bold-20" transform="translate(492.041016 0)"/>
     <use xlink:href="#DejaVuSans-Bold-6c" transform="translate(526.855469 0)"/>
     <use xlink:href="#DejaVuSans-Bold-61" transform="translate(561.132812 0)"/>
     <use xlink:href="#DejaVuSans-Bold-79" transform="translate(625.488281 0)"/>
     <use xlink:href="#DejaVuSans-Bold-65" transform="translate(690.673828 0)"/>
     <use xlink:href="#DejaVuSans-Bold-72" transform="translate(758.496094 0)"/>
     <use xlink:href="#DejaVuSans-Bold-73" transform="translate(807.8125 0)"/>
    </g>
   </g>
   <g id="text_4">
    <!-- Action -->
    <g transform="translate(698.090344 171.664931) scale(0.18 -0.18)">
     <defs>
      <path id="DejaVuSans-Bold-41" d="M 3419 850 
L 1538 850 
L 1241 0 
L 31 0 
L 1759 4666 
L 3194 4666 
L 4922 0 
L 3713 0 
L 3419 850 
z
M 1838 1716 
L 3116 1716 
L 2478 3572 
L 1838 1716 
z
" transform="scale(0.015625)"/>
      <path id="DejaVuSans-Bold-63" d="M 3366 3391 
L 3366 2478 
Q 3138 2634 2908 2709 
Q 2678 2784 2431 2784 
Q 1963 2784 1702 2511 
Q 1441 2238 1441 1747 
Q 1441 1256 1702 982 
Q 1963 709 2431 709 
Q 2694 709 2930 787 
Q 3166 866 3366 1019 
L 3366 103 
Q 3103 6 2833 -42 
Q 2563 -91 2291 -91 
Q 1344 -91 809 395 
Q 275 881 275 1747 
Q 275 2613 809 3098 
Q 1344 3584 2291 3584 
Q 2566 3584 2833 3536 
Q 3100 3488 3366 3391 
z
" transform="scale(0.015625)"/>
     </defs>
     <use xlink:href="#DejaVuSans-Bold-41"/>
     <use xlink:href="#DejaVuSans-Bold-63" transform="translate(77.392578 0)"/>
     <use xlink:href="#DejaVuSans-Bold-74" transform="translate(136.669922 0)"/>
     <use xlink:href="#DejaVuSans-Bold-69" transform="translate(184.472656 0)"/>
     <use xlink:href="#DejaVuSans-Bold-6f" transform="translate(218.75 0)"/>
     <use xlink:href="#DejaVuSans-Bold-6e" transform="translate(287.451172 0)"/>
    </g>
    <!-- node-content toggle -->
    <g transform="translate(626.763937 191.820994) scale(0.18 -0.18)">
     <use xlink:href="#DejaVuSans-Bold-6e"/>
     <use xlink:href="#DejaVuSans-Bold-6f" transform="translate(71.191406 0)"/>
     <use xlink:href="#DejaVuSans-Bold-64" transform="translate(139.892578 0)"/>
     <use xlink:href="#DejaVuSans-Bold-65" transform="translate(211.474609 0)"/>
     <use xlink:href="#DejaVuSans-Bold-2d" transform="translate(279.296875 0)"/>
     <use xlink:href="#DejaVuSans-Bold-63" transform="translate(320.800781 0)"/>
     <use xlink:href="#DejaVuSans-Bold-6f" transform="translate(380.078125 0)"/>
     <use xlink:href="#DejaVuSans-Bold-6e" transform="translate(448.779297 0)"/>
     <use xlink:href="#DejaVuSans-Bold-74" transform="translate(519.970703 0)"/>
     <use xlink:href="#DejaVuSans-Bold-65" transform="translate(567.773438 0)"/>
     <use xlink:href="#DejaVuSans-Bold-6e" transform="translate(635.595703 0)"/>
     <use xlink:href="#DejaVuSans-Bold-74" transform="translate(706.787109 0)"/>
     <use xlink:href="#DejaVuSans-Bold-20" transform="translate(754.589844 0)"/>
     <use xlink:href="#DejaVuSans-Bold-74" transform="translate(789.404297 0)"/>
     <use xlink:href="#DejaVuSans-Bold-6f" transform="translate(837.207031 0)"/>
     <use xlink:href="#DejaVuSans-Bold-67" transform="translate(905.908203 0)"/>
     <use xlink:href="#DejaVuSans-Bold-67" transform="translate(977.490234 0)"/>
     <use xlink:href="#DejaVuSans-Bold-6c" transform="translate(1049.072266 0)"/>
     <use xlink:href="#DejaVuSans-Bold-65" transform="translate(1083.349609 0)"/>
    </g>
   </g>
   <g id="text_5">
    <!-- Reward -->
    <g transform="translate(415.296563 336.321731) scale(0.18 -0.18)">
     <use xlink:href="#DejaVuSans-Bold-52"/>
     <use xlink:href="#DejaVuSans-Bold-65" transform="translate(77.001953 0)"/>
     <use xlink:href="#DejaVuSans-Bold-77" transform="translate(144.824219 0)"/>
     <use xlink:href="#DejaVuSans-Bold-61" transform="translate(237.207031 0)"/>
     <use xlink:href="#DejaVuSans-Bold-72" transform="translate(304.6875 0)"/>
     <use xlink:href="#DejaVuSans-Bold-64" transform="translate(354.003906 0)"/>
    </g>
    <!-- objective reduction -->
    <g transform="translate(355.253906 356.477794) scale(0.18 -0.18)">
     <defs>
      <path id="DejaVuSans-Bold-62" d="M 2400 722 
Q 2759 722 2948 984 
Q 3138 1247 3138 1747 
Q 3138 2247 2948 2509 
Q 2759 2772 2400 2772 
Q 2041 2772 1848 2508 
Q 1656 2244 1656 1747 
Q 1656 1250 1848 986 
Q 2041 722 2400 722 
z
M 1656 2988 
Q 1888 3294 2169 3439 
Q 2450 3584 2816 3584 
Q 3463 3584 3878 3070 
Q 4294 2556 4294 1747 
Q 4294 938 3878 423 
Q 3463 -91 2816 -91 
Q 2450 -91 2169 54 
Q 1888 200 1656 506 
L 1656 0 
L 538 0 
L 538 4863 
L 1656 4863 
L 1656 2988 
z
" transform="scale(0.015625)"/>
      <path id="DejaVuSans-Bold-6a" d="M 538 3500 
L 1656 3500 
L 1656 63 
Q 1656 -641 1318 -1011 
Q 981 -1381 341 -1381 
L -213 -1381 
L -213 -647 
L -19 -647 
Q 300 -647 419 -503 
Q 538 -359 538 63 
L 538 3500 
z
M 538 4863 
L 1656 4863 
L 1656 3950 
L 538 3950 
L 538 4863 
z
" transform="scale(0.015625)"/>
      <path id="DejaVuSans-Bold-76" d="M 97 3500 
L 1216 3500 
L 2088 1081 
L 2956 3500 
L 4078 3500 
L 2700 0 
L 1472 0 
L 97 3500 
z
" transform="scale(0.015625)"/>
     </defs>
     <use xlink:href="#DejaVuSans-Bold-6f"/>
     <use xlink:href="#DejaVuSans-Bold-62" transform="translate(68.701172 0)"/>
     <use xlink:href="#DejaVuSans-Bold-6a" transform="translate(140.283203 0)"/>
     <use xlink:href="#DejaVuSans-Bold-65" transform="translate(174.560547 0)"/>
     <use xlink:href="#DejaVuSans-Bold-63" transform="translate(242.382812 0)"/>
     <use xlink:href="#DejaVuSans-Bold-74" transform="translate(301.660156 0)"/>
     <use xlink:href="#DejaVuSans-Bold-69" transform="translate(349.462891 0)"/>
     <use xlink:href="#DejaVuSans-Bold-76" transform="translate(383.740234 0)"/>
     <use xlink:href="#DejaVuSans-Bold-65" transform="translate(448.925781 0)"/>
     <use xlink:href="#DejaVuSans-Bold-20" transform="translate(516.748047 0)"/>
     <use xlink:href="#DejaVuSans-Bold-72" transform="translate(551.5625 0)"/>
     <use xlink:href="#DejaVuSans-Bold-65" transform="translate(600.878906 0)"/>
     <use xlink:href="#DejaVuSans-Bold-64" transform="translate(668.701172 0)"/>
     <use xlink:href="#DejaVuSans-Bold-75" transform="translate(740.283203 0)"/>
     <use xlink:href="#DejaVuSans-Bold-63" transform="translate(811.474609 0)"/>
     <use xlink:href="#DejaVuSans-Bold-74" transform="translate(870.751953 0)"/>
     <use xlink:href="#DejaVuSans-Bold-69" transform="translate(918.554688 0)"/>
     <use xlink:href="#DejaVuSans-Bold-6f" transform="translate(952.832031 0)"/>
     <use xlink:href="#DejaVuSans-Bold-6e" transform="translate(1021.533203 0)"/>
    </g>
   </g>
   <g id="text_6">
    <!-- Accept only if -->
    <g transform="translate(661.075031 336.321731) scale(0.18 -0.18)">
     <use xlink:href="#DejaVuSans-Bold-41"/>
     <use xlink:href="#DejaVuSans-Bold-63" transform="translate(77.392578 0)"/>
     <use xlink:href="#DejaVuSans-Bold-63" transform="translate(136.669922 0)"/>
     <use xlink:href="#DejaVuSans-Bold-65" transform="translate(195.947266 0)"/>
     <use xlink:href="#DejaVuSans-Bold-70" transform="translate(263.769531 0)"/>
     <use xlink:href="#DejaVuSans-Bold-74" transform="translate(335.351562 0)"/>
     <use xlink:href="#DejaVuSans-Bold-20" transform="translate(383.154297 0)"/>
     <use xlink:href="#DejaVuSans-Bold-6f" transform="translate(417.96875 0)"/>
     <use xlink:href="#DejaVuSans-Bold-6e" transform="translate(486.669922 0)"/>
     <use xlink:href="#DejaVuSans-Bold-6c" transform="translate(557.861328 0)"/>
     <use xlink:href="#DejaVuSans-Bold-79" transform="translate(592.138672 0)"/>
     <use xlink:href="#DejaVuSans-Bold-20" transform="translate(657.324219 0)"/>
     <use xlink:href="#DejaVuSans-Bold-69" transform="translate(692.138672 0)"/>
     <use xlink:href="#DejaVuSans-Bold-66" transform="translate(726.416016 0)"/>
    </g>
    <!-- J improves -->
    <g transform="translate(677.03175 356.618419) scale(0.18 -0.18)">
     <defs>
      <path id="DejaVuSans-Bold-4a" d="M 588 4666 
L 1791 4666 
L 1791 453 
Q 1791 -419 1317 -850 
Q 844 -1281 -116 -1281 
L -359 -1281 
L -359 -372 
L -172 -372 
Q 203 -372 395 -162 
Q 588 47 588 453 
L 588 4666 
z
" transform="scale(0.015625)"/>
     </defs>
     <use xlink:href="#DejaVuSans-Bold-4a"/>
     <use xlink:href="#DejaVuSans-Bold-20" transform="translate(37.207031 0)"/>
     <use xlink:href="#DejaVuSans-Bold-69" transform="translate(72.021484 0)"/>
     <use xlink:href="#DejaVuSans-Bold-6d" transform="translate(106.298828 0)"/>
     <use xlink:href="#DejaVuSans-Bold-70" transform="translate(210.498047 0)"/>
     <use xlink:href="#DejaVuSans-Bold-72" transform="translate(282.080078 0)"/>
     <use xlink:href="#DejaVuSans-Bold-6f" transform="translate(331.396484 0)"/>
     <use xlink:href="#DejaVuSans-Bold-76" transform="translate(400.097656 0)"/>
     <use xlink:href="#DejaVuSans-Bold-65" transform="translate(465.283203 0)"/>
     <use xlink:href="#DejaVuSans-Bold-73" transform="translate(533.105469 0)"/>
    </g>
   </g>
   <g id="text_7">
    <!-- Reference -->
    <g transform="translate(125.388563 336.392044) scale(0.18 -0.18)">
     <use xlink:href="#DejaVuSans-Bold-52"/>
     <use xlink:href="#DejaVuSans-Bold-65" transform="translate(77.001953 0)"/>
     <use xlink:href="#DejaVuSans-Bold-66" transform="translate(144.824219 0)"/>
     <use xlink:href="#DejaVuSans-Bold-65" transform="translate(188.330078 0)"/>
     <use xlink:href="#DejaVuSans-Bold-72" transform="translate(256.152344 0)"/>
     <use xlink:href="#DejaVuSans-Bold-65" transform="translate(305.46875 0)"/>
     <use xlink:href="#DejaVuSans-Bold-6e" transform="translate(373.291016 0)"/>
     <use xlink:href="#DejaVuSans-Bold-63" transform="translate(444.482422 0)"/>
     <use xlink:href="#DejaVuSans-Bold-65" transform="translate(503.759766 0)"/>
    </g>
    <!-- previous cache -->
    <g transform="translate(100.559813 356.548106) scale(0.18 -0.18)">
     <use xlink:href="#DejaVuSans-Bold-70"/>
     <use xlink:href="#DejaVuSans-Bold-72" transform="translate(71.582031 0)"/>
     <use xlink:href="#DejaVuSans-Bold-65" transform="translate(120.898438 0)"/>
     <use xlink:href="#DejaVuSans-Bold-76" transform="translate(188.720703 0)"/>
     <use xlink:href="#DejaVuSans-Bold-69" transform="translate(253.90625 0)"/>
     <use xlink:href="#DejaVuSans-Bold-6f" transform="translate(288.183594 0)"/>
     <use xlink:href="#DejaVuSans-Bold-75" transform="translate(356.884766 0)"/>
     <use xlink:href="#DejaVuSans-Bold-73" transform="translate(428.076172 0)"/>
     <use xlink:href="#DejaVuSans-Bold-20" transform="translate(487.597656 0)"/>
     <use xlink:href="#DejaVuSans-Bold-63" transform="translate(522.412109 0)"/>
     <use xlink:href="#DejaVuSans-Bold-61" transform="translate(581.689453 0)"/>
     <use xlink:href="#DejaVuSans-Bold-63" transform="translate(649.169922 0)"/>
     <use xlink:href="#DejaVuSans-Bold-68" transform="translate(708.447266 0)"/>
     <use xlink:href="#DejaVuSans-Bold-65" transform="translate(779.638672 0)"/>
    </g>
   </g>
  </g>
 </g>
 <defs>
  <clipPath id="p10aa249867">
   <rect x="7.2" y="7.2" width="892.8" height="498.96"/>
  </clipPath>
 </defs>
</svg>
